<svg xmlns="http://www.w3.org/2000/svg" width="297mm" height="210mm" viewBox="0 0 841.89 595.28"><title>aktivitaeten</title><path d="M676.51,251.77c-7.7,8.18-28.31-10-27.18-15.09,2.45-11.11,32.75-63.63,36.72-66.12s7.58-3.58,12.18-5.41,17.15-27,17.15-27l10.08,5.6s-13.82,24.88-13.53,29,1.21,8.41,1.3,12.9S686.41,241.24,676.51,251.77Z" style="fill:none;stroke:#1d1d1b;stroke-linejoin:round"/><ellipse cx="662.33" cy="244.42" rx="5.47" ry="15.38" transform="translate(86.07 652.27) rotate(-55.54)" style="fill:none;stroke:#1d1d1b;stroke-miterlimit:10"/><ellipse cx="151.39" cy="407.14" rx="15.62" ry="16.17" transform="translate(-39.76 17.08) rotate(-5.71)" style="fill:#f5f5f5;stroke:#1d1d1b;stroke-linejoin:round"/><circle cx="152.98" cy="409.8" r="12.01" transform="translate(-40.01 17.25) rotate(-5.71)" style="fill:none;stroke:#1d1d1b;stroke-linejoin:round"/><ellipse cx="165.94" cy="420.4" rx="22.95" ry="16.56" transform="translate(-256.11 258.71) rotate(-47.5)" style="fill:#f5f5f5;stroke:#1d1d1b;stroke-linejoin:round"/><path d="M175,439.52c0.16,6.13,7,12.23,14.09,11.53A12.87,12.87,0,0,0,200.66,437c-0.71-7.07-7.77-11.7-14.09-11.53s-14.25-9-15.61-8.28a15.1,15.1,0,0,0-7.51,9.51C163.18,427.93,174.89,433.38,175,439.52Z" style="fill:#f5f5f5;stroke:#1d1d1b;stroke-linejoin:round"/><ellipse cx="177.18" cy="410.63" rx="2.02" ry="2.61" transform="translate(-209.99 186.77) rotate(-36.62)" style="fill:#f5f5f5;stroke:#1d1d1b;stroke-linejoin:round"/><path d="M154.18,430.49a1.57,1.57,0,0,0,2.37.72,2.36,2.36,0,0,0,.52-2.88,1.57,1.57,0,0,0-2.37-.72A2.36,2.36,0,0,0,154.18,430.49Z" style="fill:#f5f5f5;stroke:#1d1d1b;stroke-linejoin:round"/><path d="M676.51,251.77c-7.7,8.18-28.31-10-27.18-15.09,2.45-11.11,32.75-63.63,36.72-66.12s7.58-3.58,12.18-5.41,17.15-27,17.15-27l10.08,5.6s-13.82,24.88-13.53,29,1.21,8.41,1.3,12.9S686.41,241.24,676.51,251.77Z" style="fill:#f5f5f5;stroke:#1d1d1b;stroke-linejoin:round;opacity:0.7000000000000001"/><path d="M721.41,151.24c-2.81,1.49-9.55-4.4-10-5.54l3.94-7.57,10.18,5.65Z" style="fill:#f5f5f5;stroke:#1d1d1b;stroke-linejoin:round"/><path d="M692.93,226.92c-7.36,2.21-27.37-13.35-27.74-23.17l13.07-22.41c5.15,12.28,18.49,15.91,30.41,15.64Z" style="fill:#f5f5f5;stroke:#1d1d1b;stroke-linejoin:round"/><path d="M239.48,119.66c6.21-.12,104.47,7.7,104.47,7.7l-6.72,37.92-99-38.64C235.64,125.09,236.77,119.8,239.48,119.66Z" style="fill:#f5f5f5;stroke:#1d1d1b;stroke-linejoin:round"/><ellipse cx="341.22" cy="146.57" rx="19.04" ry="10.13" transform="translate(126.31 449.43) rotate(-77.89)" style="fill:#f5f5f5;stroke:#1d1d1b;stroke-linejoin:round"/><ellipse cx="344.87" cy="148.62" rx="16.6" ry="8.83" transform="translate(127.18 454.62) rotate(-77.89)" style="fill:#f5f5f5;stroke:#1d1d1b;stroke-linejoin:round"/><ellipse cx="350.4" cy="146.62" rx="15.21" ry="8.09" transform="translate(133.51 458.45) rotate(-77.89)" style="fill:#f5f5f5;stroke:#1d1d1b;stroke-linejoin:round"/><ellipse cx="350.97" cy="152.78" rx="16.6" ry="8.83" transform="translate(127.94 463.87) rotate(-77.89)" style="fill:#f5f5f5;stroke:#1d1d1b;stroke-linejoin:round"/><ellipse cx="356.5" cy="150.78" rx="15.21" ry="8.09" transform="translate(134.27 467.7) rotate(-77.89)" style="fill:#f5f5f5;stroke:#1d1d1b;stroke-linejoin:round"/><path d="M336,297.08c-2.42,3.12-6.6,3.92-9.34,1.8l-22.22-17.21c-2.74-2.12-3-6.37-.59-9.49l35.47-45.78c2.42-3.12,6.6-3.92,9.34-1.8l22.22,17.21c2.74,2.12,3,6.37.59,9.49Z" style="fill:#f5f5f5;stroke:#1d1d1b;stroke-linejoin:round"/><rect x="313.44" y="244.53" width="49.16" height="33.13" transform="translate(-75.4 368.39) rotate(-52.23)" style="fill:#f5f5f5;stroke:#1d1d1b;stroke-linejoin:round"/><circle cx="319.53" cy="285.18" r="3.01" transform="translate(-101.61 363.11) rotate(-52.23)" style="fill:#f5f5f5;stroke:#1d1d1b;stroke-linejoin:round"/><line x1="352.8" y1="234.95" x2="359.52" y2="240.16" style="fill:#f5f5f5;stroke:#1d1d1b;stroke-linecap:round;stroke-linejoin:round"/><line x1="363.22" y1="228.79" x2="367.94" y2="222.7" style="fill:#f5f5f5;stroke:#1d1d1b;stroke-linecap:round;stroke-linejoin:round"/><line x1="356.52" y1="224.5" x2="355.49" y2="216.36" style="fill:#f5f5f5;stroke:#1d1d1b;stroke-linecap:round;stroke-linejoin:round"/><line x1="369.48" y1="234.54" x2="377.93" y2="233.46" style="fill:#f5f5f5;stroke:#1d1d1b;stroke-linecap:round;stroke-linejoin:round"/><line x1="311.38" y1="296.32" x2="306.66" y2="302.41" style="fill:#f5f5f5;stroke:#1d1d1b;stroke-linecap:round;stroke-linejoin:round"/><line x1="318.08" y1="300.62" x2="319.11" y2="308.76" style="fill:#f5f5f5;stroke:#1d1d1b;stroke-linecap:round;stroke-linejoin:round"/><line x1="305.13" y1="290.58" x2="296.68" y2="291.65" style="fill:#f5f5f5;stroke:#1d1d1b;stroke-linecap:round;stroke-linejoin:round"/><polygon points="486.43 108.57 511.4 172.48 467.99 188.15 443.64 128.06 486.43 108.57" style="fill:#f5f5f5;stroke:#1d1d1b;stroke-linejoin:round"/><polygon points="435.21 131.59 459.56 191.68 418.26 211.79 393.2 150.32 435.21 131.59" style="fill:#f5f5f5;stroke:#1d1d1b;stroke-linejoin:round"/><rect x="447.11" y="127.64" width="9.27" height="64.84" transform="translate(-27.04 181.38) rotate(-22.06)" style="fill:#f5f5f5;stroke:#1d1d1b;stroke-linejoin:round"/><path d="M440.77,133.1c-2.73-5.75,42.93-17.73,42.93-17.73L505.46,168S460.3,180,462.52,185.77C462.52,185.77,443.51,138.84,440.77,133.1Z" style="fill:#f5f5f5;stroke:#1d1d1b;stroke-linejoin:round"/><path d="M440.7,133.13c-2.13-6-42.91,17.79-42.91,17.79l21.82,52.64s40.4-23.45,42.91-17.79C462.52,185.77,442.83,139.12,440.7,133.13Z" style="fill:#f5f5f5;stroke:#1d1d1b;stroke-linejoin:round"/><line x1="612.24" y1="408.63" x2="676.78" y2="445.48" style="fill:#f5f5f5;stroke:#1d1d1b;stroke-linecap:round;stroke-linejoin:round"/><line x1="602.21" y1="409.2" x2="666.75" y2="446.05" style="fill:#f5f5f5;stroke:#1d1d1b;stroke-linecap:round;stroke-linejoin:round"/><line x1="592.18" y1="409.77" x2="656.72" y2="446.62" style="fill:#f5f5f5;stroke:#1d1d1b;stroke-linecap:round;stroke-linejoin:round"/><line x1="582.15" y1="410.34" x2="646.69" y2="447.19" style="fill:#f5f5f5;stroke:#1d1d1b;stroke-linecap:round;stroke-linejoin:round"/><line x1="572.12" y1="410.91" x2="636.66" y2="447.77" style="fill:#f5f5f5;stroke:#1d1d1b;stroke-linecap:round;stroke-linejoin:round"/><line x1="562.09" y1="411.48" x2="626.63" y2="448.34" style="fill:#f5f5f5;stroke:#1d1d1b;stroke-linecap:round;stroke-linejoin:round"/><line x1="552.06" y1="412.05" x2="616.59" y2="448.91" style="fill:#f5f5f5;stroke:#1d1d1b;stroke-linecap:round;stroke-linejoin:round"/><line x1="542.03" y1="412.62" x2="606.56" y2="449.48" style="fill:#f5f5f5;stroke:#1d1d1b;stroke-linecap:round;stroke-linejoin:round"/><line x1="622.27" y1="408.06" x2="686.81" y2="444.91" style="fill:#f5f5f5;stroke:#1d1d1b;stroke-linecap:round;stroke-linejoin:round"/><path d="M651.78,426.75c-9.17,3.84-22.38,5.86-34.76,6.94a265.53,265.53,0,0,1-34.07.76c-9.67-.43-13.53-17.16-1-17.22s22.66,0.07,34.07-.76,21.45-3.64,32.91-6.13C658.86,408.19,661,422.91,651.78,426.75Z" style="fill:#f5f5f5;stroke:#1d1d1b;stroke-linejoin:round"/><path d="M587.53,417.86a9.1,9.1,0,0,1,10.52,5.21" style="fill:#f5f5f5;stroke:#1d1d1b;stroke-linecap:round;stroke-linejoin:round"/><path d="M596.16,417.37a9.1,9.1,0,0,1,10.52,5.21" style="fill:#f5f5f5;stroke:#1d1d1b;stroke-linecap:round;stroke-linejoin:round"/><path d="M604,416.92a9.1,9.1,0,0,1,10.52,5.21" style="fill:#f5f5f5;stroke:#1d1d1b;stroke-linecap:round;stroke-linejoin:round"/><path d="M620.83,416a9.1,9.1,0,0,1,10.52,5.21" style="fill:#f5f5f5;stroke:#1d1d1b;stroke-linecap:round;stroke-linejoin:round"/><path d="M612.69,416.42a9.1,9.1,0,0,1,10.52,5.21" style="fill:#f5f5f5;stroke:#1d1d1b;stroke-linecap:round;stroke-linejoin:round"/><path d="M629.65,414.55a9.1,9.1,0,0,1,10.52,5.21" style="fill:#f5f5f5;stroke:#1d1d1b;stroke-linecap:round;stroke-linejoin:round"/><path d="M602.08,382.87s-10.93,3.36-9.48,10.18,10,3.56,10.59,9.34-9.63,9.81-9.41,12.71" style="fill:none;stroke:#1d1d1b;stroke-linecap:round;stroke-linejoin:round"/><path d="M613.85,379s-10.93,3.36-9.48,10.18,10,3.56,10.59,9.34-9.63,9.81-9.41,12.71" style="fill:none;stroke:#1d1d1b;stroke-linecap:round;stroke-linejoin:round"/><path d="M629,382.14s-10.93,3.36-9.48,10.18,10,3.56,10.59,9.34-9.63,9.81-9.41,12.71" style="fill:none;stroke:#1d1d1b;stroke-linecap:round;stroke-linejoin:round"/><path d="M623.29,362c-3.34-4.93,4.57-37.62,4.57-37.62h5.2s-7.71,33-4.57,37.62" style="fill:#f5f5f5;stroke:#1d1d1b;stroke-linecap:round;stroke-linejoin:round"/><ellipse cx="631.07" cy="313.74" rx="4.57" ry="6.73" style="fill:#f5f5f5;stroke:#1d1d1b;stroke-linejoin:round"/><ellipse cx="631.07" cy="338.22" rx="4.57" ry="6.73" style="fill:#f5f5f5;stroke:#1d1d1b;stroke-linejoin:round"/><ellipse cx="639.73" cy="317.33" rx="6.73" ry="4.57" transform="translate(-37.01 545.3) rotate(-45)" style="fill:#f5f5f5;stroke:#1d1d1b;stroke-linejoin:round"/><ellipse cx="622.42" cy="334.63" rx="6.73" ry="4.57" transform="translate(-54.32 538.13) rotate(-45)" style="fill:#f5f5f5;stroke:#1d1d1b;stroke-linejoin:round"/><ellipse cx="643.31" cy="325.98" rx="6.73" ry="4.57" style="fill:#f5f5f5;stroke:#1d1d1b;stroke-linejoin:round"/><ellipse cx="618.84" cy="325.98" rx="6.73" ry="4.57" style="fill:#f5f5f5;stroke:#1d1d1b;stroke-linejoin:round"/><ellipse cx="639.73" cy="334.63" rx="4.57" ry="6.73" transform="translate(-49.25 550.37) rotate(-45)" style="fill:#f5f5f5;stroke:#1d1d1b;stroke-linejoin:round"/><ellipse cx="622.42" cy="317.33" rx="4.57" ry="6.73" transform="translate(-42.08 533.06) rotate(-45)" style="fill:#f5f5f5;stroke:#1d1d1b;stroke-linejoin:round"/><circle cx="631.07" cy="325.98" r="8.29" style="fill:#f5f5f5;stroke:#1d1d1b;stroke-linejoin:round"/><path d="M745,283.34a135.19,135.19,0,0,0-28.78-4.81,73.54,73.54,0,0,0-26.54,3.4l-4.66-14.42a187.14,187.14,0,0,1,30.39-1.11A131,131,0,0,1,745,271.59" style="fill:#f5f5f5;stroke:#1d1d1b;stroke-linejoin:round"/><polygon points="684.66 280.9 645.77 290.96 644.33 286.91 680.94 270.43 684.66 280.9" style="fill:#f5f5f5;stroke:#1d1d1b;stroke-linejoin:round"/><path d="M645.54,290.92c-0.71,0-1.27-.88-1.54-1.64a3.58,3.58,0,0,1-.22-1.33,1,1,0,0,1,.62-1l0.27,0c0.7,0,1.27.88,1.54,1.63,0.41,1.17.25,2.14-.39,2.37Z" style="fill:#f5f5f5"/><path d="M644.66,287.37a1.78,1.78,0,0,1,1.06,1.3c0.3,0.83.26,1.61-.09,1.73l-0.1,0a1.78,1.78,0,0,1-1.06-1.3c-0.3-.83-0.26-1.61.09-1.73l0.1,0m0-1a1.29,1.29,0,0,0-.43.07,1.51,1.51,0,0,0-.95,1.49,4.06,4.06,0,0,0,.25,1.52c0.34,1,1,2,2,2a1.29,1.29,0,0,0,.43-0.07c0.94-.33,1.22-1.54.7-3-0.34-1-1-2-2-2h0Z" style="fill:#1d1d1b"/><path d="M693.28,283.62l-2.78.86-6-19.41,2.78-.86C690.15,264.75,695.41,279.48,693.28,283.62Z" style="fill:#f5f5f5;stroke:#1d1d1b;stroke-linejoin:round"/><path d="M650.4,310.12c0.6,3.27-1.63,4.61-3.64,4.61a3.74,3.74,0,0,1-3.64-4.61c0.72-2.66,3.15-6.83,3.64-6.83C647.44,303.29,649.8,306.85,650.4,310.12Z" style="fill:#f5f5f5;stroke:#1d1d1b;stroke-linejoin:round"/><path d="M640.23,316.81c0.6,3.27-1.63,4.61-3.64,4.61a3.74,3.74,0,0,1-3.64-4.61c0.72-2.66,3.15-6.83,3.64-6.83C637.26,310,639.63,313.54,640.23,316.81Z" style="fill:#f5f5f5;stroke:#1d1d1b;stroke-linejoin:round"/><path d="M642.91,300.16a2.91,2.91,0,0,1-3,3.77,3.06,3.06,0,0,1-3-3.77c0.59-2.17,2.58-5.59,3-5.59C640.49,294.57,642.42,297.49,642.91,300.16Z" style="fill:#f5f5f5;stroke:#1d1d1b;stroke-linejoin:round"/><path d="M226.11,380.84c-3.92,8-28.91,9.26-34.82,0l2.32-36.17c8.14,5.38,30.17,0,30.17,0Z" style="fill:#f5f5f5;stroke:#1d1d1b;stroke-linejoin:round"/><ellipse cx="208.85" cy="344.67" rx="14.94" ry="4.74" style="fill:#f5f5f5;stroke:#1d1d1b;stroke-linejoin:round"/><path d="M220,342.1c-2.54,5.15-18.71,6-22.53,0l1.5-23.4c5.26,3.48,19.52,0,19.52,0Z" style="fill:#f5f5f5;stroke:#1d1d1b;stroke-linejoin:round"/><ellipse cx="208.8" cy="318.7" rx="9.67" ry="3.06" style="fill:#f5f5f5;stroke:#1d1d1b;stroke-linejoin:round"/><rect x="217.58" y="368.85" width="37.27" height="6.26" transform="translate(-191.3 265.22) rotate(-43.56)" style="fill:#f5f5f5;stroke:#1d1d1b;stroke-linejoin:round"/><path d="M256.1,342.87l10.38,10.91s-9,11.57-11.86,11.28-10-7.33-10.38-10.91S256.1,342.87,256.1,342.87Z" style="fill:#f5f5f5;stroke:#1d1d1b;stroke-linejoin:round"/><path d="M255.56,347.52l6.16,6.48s-3.43,6.41-6.75,6.41-5.82-3.78-6.16-6.48S255.56,347.52,255.56,347.52Z" style="fill:none;stroke:#1d1d1b;stroke-linejoin:round"/><path d="M214.76,376.46c9.77-2.93,19,9.71,15.89,16.71s-21.24,16.34-21.24,16.34l-13.06-13.73S205,379.39,214.76,376.46Z" style="fill:#f5f5f5;stroke:#1d1d1b;stroke-linejoin:round"/><path d="M214.76,376.46c9.77-2.93,19,9.71,15.89,16.71s-21.24,16.34-21.24,16.34l-13.06-13.73S205,379.39,214.76,376.46Z" style="fill:#f5f5f5;stroke:#1d1d1b;stroke-linejoin:round"/><path d="M210.9,379.89c7.72-2.31,15,7.67,12.55,13.2S206.67,406,206.67,406l-10.31-10.84S203.18,382.2,210.9,379.89Z" style="fill:#f5f5f5;stroke:#1d1d1b;stroke-linejoin:round"/><polygon points="574.7 208.25 570.96 208.94 558.56 147.81 560.13 149.79 574.7 208.25" style="fill:#f5f5f5;stroke:#1a171b;stroke-linecap:round;stroke-linejoin:round"/><polygon points="625.13 232.05 632.36 232.78 613.7 152.17 610.12 152.85 625.13 232.05" style="fill:#f5f5f5;stroke:#1a171b;stroke-linecap:round;stroke-linejoin:round"/><polygon points="635.75 229.58 632.36 232.78 613.7 152.17 614.25 152.17 635.75 229.58" style="fill:#f5f5f5;stroke:#1a171b;stroke-linecap:round;stroke-linejoin:round"/><polygon points="565.07 208.34 570.96 208.94 558.56 147.81 556.8 147.86 565.07 208.34" style="fill:#f5f5f5;stroke:#1a171b;stroke-linecap:round;stroke-linejoin:round"/><polygon points="570.96 214.81 591.08 219.58 598.14 214.82 577.28 210.8 570.96 214.81" style="fill:#f5f5f5;stroke:#1a171b;stroke-linecap:round;stroke-linejoin:round"/><line x1="595.91" y1="157.32" x2="598.14" y2="214.82" style="fill:#f5f5f5;stroke:#1a171b;stroke-linecap:round;stroke-linejoin:round"/><line x1="595.91" y1="157.32" x2="591.14" y2="219.58" style="fill:#f5f5f5;stroke:#1a171b;stroke-linecap:round;stroke-linejoin:round"/><line x1="577.11" y1="155.52" x2="577.28" y2="210.8" style="fill:#f5f5f5;stroke:#1a171b;stroke-linecap:round;stroke-linejoin:round"/><line x1="577.11" y1="155.52" x2="570.96" y2="214.81" style="fill:#f5f5f5;stroke:#1a171b;stroke-linecap:round;stroke-linejoin:round"/><polygon points="539.22 228.79 544.58 226.83 558.25 153.58 556.36 146.21 556.36 145.72 613.7 152.17 613.7 159.32 613.58 159.31 612.14 245.37 616.67 242.33 613.7 159.32 557.31 152.98 539.22 228.79" style="fill:#f5f5f5;stroke:#1a171b;stroke-linecap:round;stroke-linejoin:round"/><polyline points="556.36 145.72 613.7 152.17 613.58 159.31 613.58 159.31 612.14 245.37 601.91 244.45 609.52 158.85 557.31 152.98 539.22 228.79 530.91 227.31 556.36 145.72" style="fill:#f5f5f5;stroke:#1a171b;stroke-linecap:round;stroke-linejoin:round"/><circle cx="186.35" cy="274.4" r="17.17" style="fill:#f5f5f5;stroke:#1d1d1b;stroke-linejoin:round"/><circle cx="229.83" cy="280.99" r="17.17" style="fill:#f5f5f5;stroke:#1d1d1b;stroke-linejoin:round"/><circle cx="199.62" cy="292.46" r="6.9" style="fill:#f5f5f5;stroke:#1d1d1b;stroke-linejoin:round"/><circle cx="235.41" cy="287.93" r="0.14" style="fill:#f5f5f5;stroke:#1d1d1b;stroke-linejoin:round"/><circle cx="239.85" cy="276.4" r="0.14" style="fill:#f5f5f5;stroke:#1d1d1b;stroke-linejoin:round"/><circle cx="225.4" cy="282.5" r="0.14" style="fill:#f5f5f5;stroke:#1d1d1b;stroke-linejoin:round"/><path d="M169.18,273.72s-1.35,9.62,13.23,10.82S202.89,279,202.89,279" style="fill:#f5f5f5;stroke:#1d1d1b;stroke-linejoin:round"/><path d="M183.65,257.44s-5.18,3.37-5.91,13.66c-1,14.17,5.91,20.46,5.91,20.46" style="fill:none;stroke:#1d1d1b;stroke-linejoin:round"/><path d="M461.64,185c0.62,1.46-9.65,4.84-20.49,9.47s-20.73,10.5-21.35,9,11.1-7.56,21.94-12.19S461,183.58,461.64,185Z" style="fill:#f5f5f5;stroke:#1a171b;stroke-linecap:round;stroke-linejoin:round"/><path d="M462.61,184.68c0.59,1.47,11.38-3.33,22.32-7.73s21.12-7.11,20.53-8.58-12.39,2-23.33,6.38S462,183.21,462.61,184.68Z" style="fill:#f5f5f5;stroke:#1a171b;stroke-linecap:round;stroke-linejoin:round"/><path d="M724,143.1a11.34,11.34,0,0,1-4.33-1.38c-0.48-.24-4.68-2.42-3.93-3.9a1.16,1.16,0,0,1,1.14-.53,11.34,11.34,0,0,1,4.33,1.38c0.48,0.24,4.68,2.42,3.93,3.9A1.16,1.16,0,0,1,724,143.1Z" style="fill:#f5f5f5"/><path d="M716.9,137.79a10.87,10.87,0,0,1,4.1,1.32c2.35,1.19,4,2.63,3.71,3.23a0.74,0.74,0,0,1-.7.26,10.87,10.87,0,0,1-4.1-1.32c-2.35-1.19-4-2.63-3.71-3.23a0.74,0.74,0,0,1,.7-0.26m0-1h0a1.61,1.61,0,0,0-1.59.81c-0.9,1.78,2.6,3.79,4.15,4.57A11.63,11.63,0,0,0,724,143.6a1.61,1.61,0,0,0,1.59-.81c0.9-1.78-2.6-3.79-4.15-4.57a11.63,11.63,0,0,0-4.55-1.43h0Z" style="fill:#1d1d1b"/><path d="M345,85.39s-9.4,6.75-5.69,14.11,10.81,1.38,13.39,7.79-6,13.73-4.75,17" style="fill:none;stroke:#1d1d1b;stroke-linecap:round;stroke-linejoin:round"/><path d="M364.52,87.42s-10.89,4.07-9.34,12.67,10,4.62,10.74,11.92-9.49,12.2-9.23,15.86" style="fill:none;stroke:#1d1d1b;stroke-linecap:round;stroke-linejoin:round"/><path d="M184.14,447c2.81,2.7,12.44-.4,12.19-6.32" style="fill:#f5f5f5;stroke:#1a171b;stroke-linecap:round;stroke-linejoin:round"/><line x1="244.23" y1="126.33" x2="324.99" y2="155.52" style="fill:#f5f5f5;stroke:#1a171b;stroke-linecap:round;stroke-linejoin:round"/><circle cx="624.94" cy="329.09" r="0.06" style="fill:#f5f5f5;stroke:#1a171b;stroke-linecap:round;stroke-linejoin:round"/><circle cx="624.37" cy="327.03" r="0.06" style="fill:#f5f5f5;stroke:#1a171b;stroke-linecap:round;stroke-linejoin:round"/><circle cx="624.44" cy="325.03" r="0.06" style="fill:#f5f5f5;stroke:#1a171b;stroke-linecap:round;stroke-linejoin:round"/><circle cx="625" cy="323.11" r="0.06" style="fill:#f5f5f5;stroke:#1a171b;stroke-linecap:round;stroke-linejoin:round"/><circle cx="626" cy="321.72" r="0.06" style="fill:#f5f5f5;stroke:#1a171b;stroke-linecap:round;stroke-linejoin:round"/><circle cx="627.16" cy="320.51" r="0.06" style="fill:#f5f5f5;stroke:#1a171b;stroke-linecap:round;stroke-linejoin:round"/><circle cx="628.84" cy="319.62" r="0.06" style="fill:#f5f5f5;stroke:#1a171b;stroke-linecap:round;stroke-linejoin:round"/><circle cx="630.75" cy="319.34" r="0.06" style="fill:#f5f5f5;stroke:#1a171b;stroke-linecap:round;stroke-linejoin:round"/><circle cx="632.76" cy="319.56" r="0.06" style="fill:#f5f5f5;stroke:#1a171b;stroke-linecap:round;stroke-linejoin:round"/><circle cx="626.12" cy="330.88" r="0.06" style="fill:#f5f5f5;stroke:#1a171b;stroke-linecap:round;stroke-linejoin:round"/><circle cx="628.1" cy="332.06" r="0.06" style="fill:#f5f5f5;stroke:#1a171b;stroke-linecap:round;stroke-linejoin:round"/><circle cx="630.28" cy="332.69" r="0.06" style="fill:#f5f5f5;stroke:#1a171b;stroke-linecap:round;stroke-linejoin:round"/><circle cx="629.5" cy="330.45" r="0.06" style="fill:#f5f5f5;stroke:#1a171b;stroke-linecap:round;stroke-linejoin:round"/><circle cx="628.04" cy="329.56" r="0.06" style="fill:#f5f5f5;stroke:#1a171b;stroke-linecap:round;stroke-linejoin:round"/><circle cx="627.03" cy="328.14" r="0.06" style="fill:#f5f5f5;stroke:#1a171b;stroke-linecap:round;stroke-linejoin:round"/><circle cx="626.49" cy="326.44" r="0.06" style="fill:#f5f5f5;stroke:#1a171b;stroke-linecap:round;stroke-linejoin:round"/><circle cx="626.81" cy="324.33" r="0.06" style="fill:#f5f5f5;stroke:#1a171b;stroke-linecap:round;stroke-linejoin:round"/><circle cx="627.97" cy="322.58" r="0.06" style="fill:#f5f5f5;stroke:#1a171b;stroke-linecap:round;stroke-linejoin:round"/><circle cx="629.75" cy="321.66" r="0.06" style="fill:#f5f5f5;stroke:#1a171b;stroke-linecap:round;stroke-linejoin:round"/><circle cx="631.72" cy="321.72" r="0.06" style="fill:#f5f5f5;stroke:#1a171b;stroke-linecap:round;stroke-linejoin:round"/><circle cx="633.59" cy="322.52" r="0.06" style="fill:#f5f5f5;stroke:#1a171b;stroke-linecap:round;stroke-linejoin:round"/><circle cx="634.86" cy="323.73" r="0.06" style="fill:#f5f5f5;stroke:#1a171b;stroke-linecap:round;stroke-linejoin:round"/><circle cx="635.44" cy="325.38" r="0.06" style="fill:#f5f5f5;stroke:#1a171b;stroke-linecap:round;stroke-linejoin:round"/><circle cx="635.11" cy="327.34" r="0.06" style="fill:#f5f5f5;stroke:#1a171b;stroke-linecap:round;stroke-linejoin:round"/><circle cx="634.09" cy="329.03" r="0.06" style="fill:#f5f5f5;stroke:#1a171b;stroke-linecap:round;stroke-linejoin:round"/><circle cx="632.98" cy="330.39" r="0.06" style="fill:#f5f5f5;stroke:#1a171b;stroke-linecap:round;stroke-linejoin:round"/><circle cx="631.22" cy="330.75" r="0.06" style="fill:#f5f5f5;stroke:#1a171b;stroke-linecap:round;stroke-linejoin:round"/><circle cx="632.53" cy="332.63" r="0.06" style="fill:#f5f5f5;stroke:#1a171b;stroke-linecap:round;stroke-linejoin:round"/><circle cx="634.22" cy="332" r="0.06" style="fill:#f5f5f5;stroke:#1a171b;stroke-linecap:round;stroke-linejoin:round"/><circle cx="635.78" cy="330.58" r="0.06" style="fill:#f5f5f5;stroke:#1a171b;stroke-linecap:round;stroke-linejoin:round"/><circle cx="636.87" cy="328.63" r="0.06" style="fill:#f5f5f5;stroke:#1a171b;stroke-linecap:round;stroke-linejoin:round"/><circle cx="637.47" cy="326.91" r="0.06" style="fill:#f5f5f5;stroke:#1a171b;stroke-linecap:round;stroke-linejoin:round"/><circle cx="637.34" cy="324.97" r="0.06" style="fill:#f5f5f5;stroke:#1a171b;stroke-linecap:round;stroke-linejoin:round"/><circle cx="636.81" cy="323.05" r="0.06" style="fill:#f5f5f5;stroke:#1a171b;stroke-linecap:round;stroke-linejoin:round"/><circle cx="635.5" cy="321.66" r="0.06" style="fill:#f5f5f5;stroke:#1a171b;stroke-linecap:round;stroke-linejoin:round"/><line x1="338.97" y1="232.84" x2="364.88" y2="253" style="fill:#f5f5f5;stroke:#1a171b;stroke-linecap:round;stroke-linejoin:round"/><rect x="328.32" y="244.68" width="24.75" height="24.87" rx="6.33" ry="6.33" transform="translate(-69.25 375.98) rotate(-53.21)" style="fill:#f5f5f5;stroke:#1a171b;stroke-linecap:round;stroke-linejoin:round"/><polygon points="331.12 274.93 325.31 274.59 329.32 269.39 331.12 274.93" style="fill:#f5f5f5;stroke:#1a171b;stroke-linecap:round;stroke-linejoin:round"/><rect x="319.74" y="265.66" width="4.2" height="4.2" transform="translate(-86.85 358.59) rotate(-52.29)" style="fill:#f5f5f5;stroke:#1a171b;stroke-linecap:round;stroke-linejoin:round"/><path d="M334,279.75a0.5,0.5,0,0,1-.31-0.1l-0.69-.54a0.5,0.5,0,0,1-.09-0.7l2-2.59a0.5,0.5,0,0,1,.33-0.19h0.06a0.5,0.5,0,0,1,.31.1l0.69,0.54a0.5,0.5,0,0,1,.09.7l-2,2.59a0.5,0.5,0,0,1-.33.19H334Z" style="fill:#f5f5f5"/><path d="M335.33,276.12l0.69,0.54-2,2.59-0.69-.54,2-2.59m0-1H335.2a1,1,0,0,0-.66.38l-2,2.59a1,1,0,0,0,.18,1.4l0.69,0.54a1,1,0,0,0,.61.21h0.13a1,1,0,0,0,.66-0.38l2-2.59a1,1,0,0,0-.18-1.4l-0.69-.54a1,1,0,0,0-.61-0.21h0Z" style="fill:#1a171b"/><path d="M336.49,281.66a0.5,0.5,0,0,1-.31-0.1l-0.69-.54a0.5,0.5,0,0,1-.09-0.7l2-2.59a0.5,0.5,0,0,1,.33-0.19h0.06a0.5,0.5,0,0,1,.31.1l0.69,0.54a0.5,0.5,0,0,1,.09.7l-2,2.59a0.5,0.5,0,0,1-.33.19h-0.06Z" style="fill:#f5f5f5"/><path d="M337.8,278l0.69,0.54-2,2.59-0.69-.54,2-2.59m0-1h-0.13a1,1,0,0,0-.66.38L335,280a1,1,0,0,0,.18,1.4l0.69,0.54a1,1,0,0,0,1.4-.18l2-2.59a1,1,0,0,0-.18-1.4l-0.69-.54a1,1,0,0,0-.61-0.21h0Z" style="fill:#1a171b"/><ellipse cx="687.3" cy="274.95" rx="1.36" ry="10.16" transform="translate(-50.97 220.77) rotate(-17.61)" style="fill:#f5f5f5;stroke:#1d1d1b;stroke-linejoin:round"/><path d="M689.34,282.28c0,1.75-3.31,2.92-6.15,2.19s-6.42-11.81-5.36-15.07,4.91-3.07,6.15-2.19S689.3,280.53,689.34,282.28Z" style="fill:#f5f5f5;stroke:#1d1d1b;stroke-linejoin:round"/><line x1="646.75" y1="289.54" x2="677.04" y2="281.29" style="fill:#f5f5f5;stroke:#1d1d1b;stroke-linecap:round;stroke-linejoin:round"/><line x1="645.67" y1="287.37" x2="674.63" y2="274.95" style="fill:#f5f5f5;stroke:#1d1d1b;stroke-linecap:round;stroke-linejoin:round"/><line x1="646.21" y1="288.38" x2="676.29" y2="278.13" style="fill:#f5f5f5;stroke:#1d1d1b;stroke-linecap:round;stroke-linejoin:round"/><path d="M410.88,156.75s15-13.4,25.75-12.36" style="fill:#f5f5f5;stroke:#1d1d1b;stroke-linecap:round;stroke-linejoin:round"/><path d="M413.5,160.78s15-13.4,25.75-12.36" style="fill:#f5f5f5;stroke:#1d1d1b;stroke-linecap:round;stroke-linejoin:round"/><path d="M415,165s15-13.4,25.75-12.36" style="fill:#f5f5f5;stroke:#1d1d1b;stroke-linecap:round;stroke-linejoin:round"/><path d="M416.63,169.17s15-13.4,25.75-12.36" style="fill:#f5f5f5;stroke:#1d1d1b;stroke-linecap:round;stroke-linejoin:round"/><path d="M418.87,173.2s15-13.4,25.75-12.36" style="fill:#f5f5f5;stroke:#1d1d1b;stroke-linecap:round;stroke-linejoin:round"/><path d="M420.95,177s15-13.4,25.75-12.36" style="fill:#f5f5f5;stroke:#1d1d1b;stroke-linecap:round;stroke-linejoin:round"/><path d="M422.73,180.9s15-13.4,25.75-12.36" style="fill:#f5f5f5;stroke:#1d1d1b;stroke-linecap:round;stroke-linejoin:round"/><path d="M424.55,185.77s15-13.4,25.75-12.36" style="fill:#f5f5f5;stroke:#1d1d1b;stroke-linecap:round;stroke-linejoin:round"/><path d="M478.61,128.79s-20.11,1.16-27,9.46" style="fill:#f5f5f5;stroke:#1d1d1b;stroke-linecap:round;stroke-linejoin:round"/><path d="M479.6,133.5s-20.11,1.16-27,9.46" style="fill:#f5f5f5;stroke:#1d1d1b;stroke-linecap:round;stroke-linejoin:round"/><path d="M481.52,137.49s-20.11,1.16-27,9.46" style="fill:#f5f5f5;stroke:#1d1d1b;stroke-linecap:round;stroke-linejoin:round"/><path d="M483.32,141.65s-20.11,1.16-27,9.46" style="fill:#f5f5f5;stroke:#1d1d1b;stroke-linecap:round;stroke-linejoin:round"/><path d="M484.59,146.08s-20.11,1.16-27,9.46" style="fill:#f5f5f5;stroke:#1d1d1b;stroke-linecap:round;stroke-linejoin:round"/><path d="M485.83,150.25s-20.11,1.16-27,9.46" style="fill:#f5f5f5;stroke:#1d1d1b;stroke-linecap:round;stroke-linejoin:round"/><path d="M487.3,154.25s-20.11,1.16-27,9.46" style="fill:#f5f5f5;stroke:#1d1d1b;stroke-linecap:round;stroke-linejoin:round"/><path d="M489.46,159s-20.11,1.16-27,9.46" style="fill:#f5f5f5;stroke:#1d1d1b;stroke-linecap:round;stroke-linejoin:round"/></svg>