<svg xmlns="http://www.w3.org/2000/svg" width="841.9" height="595.3" viewBox="0 0 841.9 595.3"><title>laerm</title><rect x="40" y="73.1" width="13.4" height="13.4" style="fill:#6f6;stroke:#000;stroke-linejoin:round;stroke-width:0.5px"/><rect x="40" y="59.7" width="13.4" height="13.4" style="fill:#4dbf4d;stroke:#000;stroke-linejoin:round;stroke-width:0.5px"/><rect x="40" y="86.5" width="13.4" height="13.4" style="fill:#ff3;stroke:#000;stroke-linejoin:round;stroke-width:0.5px"/><rect x="40" y="99.8" width="13.4" height="13.4" style="fill:#fc3;stroke:#000;stroke-linejoin:round;stroke-width:0.5px"/><rect x="40" y="140" width="13.4" height="13.4" style="fill:#c0f;stroke:#000;stroke-linejoin:round;stroke-width:0.5px"/><rect x="40" y="113.2" width="13.4" height="13.4" style="fill:#f90;stroke:#000;stroke-linejoin:round;stroke-width:0.5px"/><rect x="40" y="126.6" width="13.4" height="13.4" style="fill:red;stroke:#000;stroke-linejoin:round;stroke-width:0.5px"/><g style="isolation:isolate"><path d="M57.51,134.76v-0.62l2.25-.84-2.25-.86v-0.66L60.4,133v0.72Z"/><path d="M63.54,135.51l2.25-4.9H63.06V130h3.47v0.53l-2.25,5H63.54Z"/><path d="M67.38,130H70v0.61H67.92l-0.16,1.77a1.65,1.65,0,0,1,1.08-.37,1.45,1.45,0,0,1,1.5,1.68,1.76,1.76,0,0,1-1.84,1.91,1.5,1.5,0,0,1-1.64-1.29l0.65-.16a0.91,0.91,0,0,0,1,.85,1.12,1.12,0,0,0,1.11-1.29,1,1,0,0,0-1-1.11,1.42,1.42,0,0,0-1,.42l-0.47-.21Z"/><path d="M76.18,135.51H75.6l-0.05-.42h0a1.83,1.83,0,0,1-1.29.52c-0.89,0-1.49-.56-1.49-2s0.78-2.1,1.65-2.1a1.72,1.72,0,0,1,1.1.37v-2.12h0.68v5.75Zm-0.69-3.06a1.71,1.71,0,0,0-1-.34c-0.75,0-1,.6-1,1.51s0.3,1.41,1,1.41a1.58,1.58,0,0,0,1-.48v-2.09Z"/><path d="M77.5,135.51V130h1.9c1.3,0,1.66.59,1.66,1.35a1.26,1.26,0,0,1-1.1,1.29h0A1.3,1.3,0,0,1,81.27,134c0,1.13-.85,1.49-2,1.49H77.5Zm1.49-3.1a1.11,1.11,0,0,0,1.36-1c0-.68-0.4-0.87-1.15-0.87h-1v1.83H79Zm0.15,2.51c0.8,0,1.4-.12,1.4-1a1,1,0,0,0-1.25-1h-1.1v1.93h0.94Z"/></g><g style="isolation:isolate"><path d="M57.51,121.39v-0.62l2.25-.84-2.25-.86v-0.66l2.89,1.17v0.72Z"/><path d="M63.54,122.13l2.25-4.9H63.06v-0.61h3.47v0.53l-2.25,5H63.54Z"/><path d="M67,119.38c0-1.63.41-2.86,1.89-2.86s1.77,1.23,1.77,2.77c0,1.72-.35,2.93-1.85,2.93S67,121,67,119.38Zm3,0c0-1.36-.16-2.24-1.1-2.24s-1.17.88-1.17,2.3,0.16,2.25,1.14,2.25S69.93,120.73,69.93,119.35Z"/><path d="M76.37,122.13H75.79l-0.05-.42h0a1.83,1.83,0,0,1-1.29.52c-0.89,0-1.49-.56-1.49-2s0.78-2.1,1.65-2.1a1.72,1.72,0,0,1,1.1.37v-2.12h0.68v5.75Zm-0.69-3.06a1.71,1.71,0,0,0-1-.34c-0.75,0-1,.6-1,1.51s0.3,1.41,1,1.41a1.58,1.58,0,0,0,1-.48v-2.09Z"/><path d="M77.69,122.13v-5.51h1.9c1.3,0,1.66.59,1.66,1.35a1.26,1.26,0,0,1-1.1,1.29h0a1.3,1.3,0,0,1,1.32,1.36c0,1.13-.85,1.49-2,1.49H77.69Zm1.49-3.1a1.11,1.11,0,0,0,1.36-1c0-.68-0.4-0.87-1.15-0.87h-1V119h0.8Zm0.15,2.51c0.8,0,1.4-.12,1.4-1a1,1,0,0,0-1.25-1h-1.1v1.93h0.94Z"/></g><g style="isolation:isolate"><path d="M57.51,108v-0.62l2.25-.84-2.25-.86V105l2.89,1.17v0.72Z"/><path d="M66,104.49a0.78,0.78,0,0,0-.83-0.77c-1,0-1.28,1.27-1.29,2.27a1.93,1.93,0,0,1,1.36-.59A1.4,1.4,0,0,1,66.74,107,1.66,1.66,0,0,1,65,108.85c-1.44,0-1.77-1.23-1.77-2.67,0-1.23.37-3,2-3a1.26,1.26,0,0,1,1.39,1.17Zm-1,3.8A1,1,0,0,0,66,107a0.86,0.86,0,0,0-.9-1.05,1.77,1.77,0,0,0-1.18.59C64,107.41,64.17,108.29,65,108.29Z"/><path d="M67.85,103.24h2.63v0.61H68.39l-0.16,1.77a1.65,1.65,0,0,1,1.08-.37,1.45,1.45,0,0,1,1.5,1.68A1.76,1.76,0,0,1,69,108.85a1.5,1.5,0,0,1-1.64-1.29L68,107.4a0.91,0.91,0,0,0,1,.85A1.12,1.12,0,0,0,70.09,107a1,1,0,0,0-1-1.11,1.42,1.42,0,0,0-1,.42l-0.47-.21Z"/><path d="M76.65,108.76H76.07L76,108.34h0a1.83,1.83,0,0,1-1.29.52c-0.89,0-1.49-.56-1.49-2s0.78-2.1,1.65-2.1a1.72,1.72,0,0,1,1.1.37V103h0.68v5.75ZM76,105.7a1.71,1.71,0,0,0-1-.34c-0.75,0-1,.6-1,1.51s0.3,1.41,1,1.41a1.58,1.58,0,0,0,1-.48V105.7Z"/><path d="M78,108.76v-5.51h1.9c1.3,0,1.66.59,1.66,1.35a1.26,1.26,0,0,1-1.1,1.29h0a1.3,1.3,0,0,1,1.32,1.36c0,1.13-.84,1.49-2,1.49H78Zm1.49-3.1a1.11,1.11,0,0,0,1.36-1c0-.68-0.4-0.87-1.15-0.87h-1v1.83h0.8Zm0.15,2.51c0.8,0,1.4-.12,1.4-1a1,1,0,0,0-1.25-1h-1.1v1.93H79.6Z"/></g><g style="isolation:isolate"><path d="M57.51,94.63V94l2.25-.84-2.25-.86V91.66l2.89,1.17v0.72Z"/><path d="M66,91.11a0.78,0.78,0,0,0-.83-0.77c-1,0-1.28,1.27-1.29,2.27A1.93,1.93,0,0,1,65.28,92a1.4,1.4,0,0,1,1.46,1.58A1.66,1.66,0,0,1,65,95.47c-1.44,0-1.77-1.23-1.77-2.67,0-1.23.37-3,2-3a1.26,1.26,0,0,1,1.39,1.17Zm-1,3.8a1,1,0,0,0,1-1.25,0.86,0.86,0,0,0-.9-1.05A1.77,1.77,0,0,0,64,93.2C64,94,64.17,94.91,65,94.91Z"/><path d="M67.41,92.63c0-1.63.41-2.86,1.89-2.86s1.77,1.23,1.77,2.77c0,1.72-.35,2.93-1.85,2.93S67.41,94.27,67.41,92.63Zm3,0c0-1.36-.16-2.24-1.1-2.24s-1.17.88-1.17,2.3,0.16,2.25,1.14,2.25S70.37,94,70.37,92.59Z"/><path d="M76.81,95.38H76.23L76.18,95h0a1.83,1.83,0,0,1-1.29.52c-0.89,0-1.49-.56-1.49-2s0.78-2.1,1.65-2.1a1.72,1.72,0,0,1,1.1.37V89.63h0.68v5.75Zm-0.69-3.06a1.71,1.71,0,0,0-1-.34c-0.75,0-1,.6-1,1.51s0.3,1.41,1,1.41a1.58,1.58,0,0,0,1-.48V92.32Z"/><path d="M78.13,95.38V89.87H80c1.3,0,1.66.59,1.66,1.35a1.26,1.26,0,0,1-1.1,1.29h0a1.3,1.3,0,0,1,1.32,1.36c0,1.13-.85,1.49-2,1.49H78.13Zm1.49-3.1a1.11,1.11,0,0,0,1.36-1c0-.68-0.4-0.87-1.15-0.87h-1v1.83h0.8Zm0.15,2.51c0.8,0,1.4-.12,1.4-1a1,1,0,0,0-1.25-1h-1.1v1.93h0.94Z"/></g><g style="isolation:isolate"><path d="M57.51,81.26V80.64l2.25-.84-2.25-.86V78.28l2.89,1.17v0.72Z"/><path d="M63.54,76.49h2.63V77.1H64.08l-0.16,1.77A1.65,1.65,0,0,1,65,78.5a1.45,1.45,0,0,1,1.5,1.68,1.76,1.76,0,0,1-1.84,1.91A1.5,1.5,0,0,1,63,80.81l0.65-.16a0.91,0.91,0,0,0,1,.85,1.12,1.12,0,0,0,1.11-1.29,1,1,0,0,0-1-1.11,1.42,1.42,0,0,0-1,.42l-0.47-.21Z"/><path d="M67.66,76.49H70.3V77.1H68.21L68,78.87a1.65,1.65,0,0,1,1.08-.37,1.45,1.45,0,0,1,1.5,1.68,1.76,1.76,0,0,1-1.84,1.91,1.5,1.5,0,0,1-1.64-1.29l0.65-.16a0.91,0.91,0,0,0,1,.85,1.12,1.12,0,0,0,1.11-1.29,1,1,0,0,0-1-1.11,1.42,1.42,0,0,0-1,.42l-0.47-.21Z"/><path d="M76.47,82H75.89l-0.05-.42h0a1.83,1.83,0,0,1-1.29.52c-0.89,0-1.49-.56-1.49-2S73.82,78,74.69,78a1.72,1.72,0,0,1,1.1.37V76.25h0.68V82Zm-0.69-3.06a1.71,1.71,0,0,0-1-.34c-0.75,0-1,.6-1,1.51s0.3,1.41,1,1.41a1.58,1.58,0,0,0,1-.48V78.94Z"/><path d="M77.78,82V76.49h1.9c1.3,0,1.66.59,1.66,1.35a1.26,1.26,0,0,1-1.1,1.29h0a1.3,1.3,0,0,1,1.32,1.36c0,1.13-.85,1.49-2,1.49H77.78Zm1.49-3.1a1.11,1.11,0,0,0,1.36-1c0-.68-0.4-0.87-1.15-0.87h-1V78.9h0.8Zm0.15,2.51c0.8,0,1.4-.12,1.4-1a1,1,0,0,0-1.25-1h-1.1v1.93h0.94Z"/></g><g style="isolation:isolate"><path d="M57.51,67.88V67.26l2.25-.84-2.25-.86V64.9l2.89,1.17v0.72Z"/><path d="M63.54,63.11h2.63v0.61H64.08L63.92,65.5A1.65,1.65,0,0,1,65,65.12a1.45,1.45,0,0,1,1.5,1.68,1.76,1.76,0,0,1-1.84,1.91A1.5,1.5,0,0,1,63,67.43l0.65-.16a0.91,0.91,0,0,0,1,.85,1.12,1.12,0,0,0,1.11-1.29,1,1,0,0,0-1-1.11,1.42,1.42,0,0,0-1,.42l-0.47-.21Z"/><path d="M67.22,65.88c0-1.63.41-2.86,1.89-2.86s1.77,1.23,1.77,2.77c0,1.72-.35,2.93-1.85,2.93S67.22,67.52,67.22,65.88Zm3,0c0-1.36-.16-2.24-1.1-2.24s-1.17.88-1.17,2.3,0.16,2.25,1.14,2.25S70.18,67.23,70.18,65.84Z"/><path d="M76.63,68.63H76L76,68.21h0a1.83,1.83,0,0,1-1.29.52c-0.89,0-1.49-.56-1.49-2s0.78-2.1,1.65-2.1a1.72,1.72,0,0,1,1.1.37V62.88h0.68v5.75Zm-0.69-3.06a1.71,1.71,0,0,0-1-.34c-0.75,0-1,.6-1,1.51s0.3,1.41,1,1.41a1.58,1.58,0,0,0,1-.48V65.57Z"/><path d="M77.94,68.63V63.11h1.9c1.3,0,1.66.59,1.66,1.35a1.26,1.26,0,0,1-1.1,1.29h0a1.3,1.3,0,0,1,1.32,1.36c0,1.13-.85,1.49-2,1.49H77.94Zm1.49-3.1a1.11,1.11,0,0,0,1.36-1c0-.68-0.4-0.87-1.15-0.87h-1v1.83h0.8ZM79.58,68c0.8,0,1.4-.12,1.4-1a1,1,0,0,0-1.25-1h-1.1V68h0.94Z"/></g><g style="isolation:isolate"><path d="M57.51,148.14v-0.62l2.25-.84-2.25-.86v-0.66l2.89,1.17V147Z"/><path d="M66.64,147.46A1.61,1.61,0,0,1,64.82,149c-1.23,0-1.75-.63-1.75-1.42a1.63,1.63,0,0,1,1.16-1.5,1.44,1.44,0,0,1,.73-2.79,1.34,1.34,0,0,1,1.59,1.26A1.61,1.61,0,0,1,65.49,146,1.53,1.53,0,0,1,66.64,147.46Zm-2.87.05a0.87,0.87,0,0,0,1.07.88,0.92,0.92,0,0,0,1.08-.93,1.38,1.38,0,0,0-1.17-1.11A1.32,1.32,0,0,0,63.77,147.52Zm2.07-2.94a0.74,0.74,0,0,0-.93-0.73,0.81,0.81,0,0,0-1,.78,1.35,1.35,0,0,0,1,1.1A1.4,1.4,0,0,0,65.84,144.58Z"/><path d="M67.21,146.14c0-1.63.41-2.86,1.89-2.86s1.77,1.23,1.77,2.77c0,1.72-.35,2.93-1.85,2.93S67.21,147.77,67.21,146.14Zm3,0c0-1.36-.16-2.24-1.1-2.24s-1.17.88-1.17,2.3,0.16,2.25,1.14,2.25S70.18,147.48,70.18,146.1Z"/><path d="M76.62,148.89H76L76,148.47h0a1.83,1.83,0,0,1-1.29.52c-0.89,0-1.49-.56-1.49-2s0.78-2.1,1.65-2.1a1.72,1.72,0,0,1,1.1.37v-2.12h0.68v5.75Zm-0.69-3.06a1.71,1.71,0,0,0-1-.34c-0.75,0-1,.6-1,1.51s0.3,1.41,1,1.41a1.58,1.58,0,0,0,1-.48v-2.09Z"/><path d="M77.94,148.89v-5.51h1.9c1.3,0,1.66.59,1.66,1.35A1.26,1.26,0,0,1,80.4,146h0a1.3,1.3,0,0,1,1.32,1.36c0,1.13-.84,1.49-2,1.49H77.94Zm1.49-3.1a1.11,1.11,0,0,0,1.36-1c0-.68-0.4-0.87-1.15-0.87h-1v1.83h0.8Zm0.15,2.51c0.8,0,1.4-.12,1.4-1a1,1,0,0,0-1.25-1h-1.1v1.93h0.94Z"/></g><g style="opacity:0.4"><polyline points="558.8 212 579.5 208.3 606.1 217.3 675.4 230.5 701.6 241.6 727.9 244 729 251.4 698.2 318.7 708 328.8 723.7 332.5 726.4 295 740.5 254.4 738.1 243.9 740.1 238.6 738.6 229.8 675.4 212 657.8 213.9 617.1 196.8 601 180.2 592 174.9 584 162.6 572.8 148.4 558.5 144.4 545.7 140.7 501 126.5 469.4 127.6 398.2 103.3 394.4 100.5 387.7 116.2 370.9 125 339.7 125.5 249.4 96.4 240.4 41.1 229.6 70.2 201.5 149 148.1 295 153 302.2 157 306.7 166 309.9 173.3 309.9 182.2 305.5 190.8 293.9 197.4 286.9 204 251.9 202.6 244.3 186.3 232.5 215.1 212.2 235.8 188.2 233.4 167.9 247 167.9 255.8 176.7 287.8 173 315.8 186.4 339.7 199.3 364.5 198.8 378.1 206.7 427.6 199.3 445.2 212.2 486.8 210.4 545.7 197.2" style="fill:#ff3;stroke:#000;stroke-linejoin:round"/><line x1="545.7" y1="260.5" x2="558.8" y2="248.9" style="fill:none;stroke:#000;stroke-linejoin:round"/><polyline points="136.1 376 150.1 365.6 159.6 365.1 169 323.6 156.6 317.6 149.1 313.3 148.1 295 84.2 470.7 99.2 467.2 118.4 437.6" style="fill:#4dbf4d;stroke:#000;stroke-linejoin:round"/><polygon points="530.3 471.2 521.7 495.2 505 478.7 451.7 483.2 433 437.8 362.7 445.2 348.7 443.9 326.1 441.6 313.5 440.4 285.6 444.9 261.5 460.7 253.1 475.5 123.1 471.1 116.9 474.9 84.2 470.7 103.9 468.2 113.4 459.6 119.3 454.3 141.8 441.9 204.7 449.6 224.9 448.9 236.9 451.9 245.5 448.2 262.8 435.2 301.8 416.6 335.6 419.6 379.6 409.3 414.2 413.4 445.2 416.6 462.2 428.6 485.1 436.1 492 445.2 501.6 459.3 518.9 464.7 530.3 471.2" style="fill:#fc3;stroke:#000;stroke-linejoin:round"/><polygon points="575 454.2 549 454.2 537.6 454.2 521.9 497.6 522.4 480.5 519.2 474.4 515.9 469.8 511.3 466.4 501.6 459.3 492 445.2 485.1 436.1 462.2 428.6 445.2 416.6 379.6 409.3 335.6 419.6 301.8 416.6 262.8 435.2 245.5 448.2 236.9 451.9 224.9 448.9 204.7 449.6 141.8 441.9 119.3 454.3 101.3 470.6 84.2 470.7 101.7 468.2 114.7 451.7 121.7 446.1 123.5 442.4 135 433 143 434.6 152.4 436.5 243.1 438.6 261.2 418.3 278.3 415.8 293.3 410.1 322 405.5 337.8 407.2 367.2 402.9 409.6 401.9 482.7 416.6 544.4 442.1 575 454.2" style="fill:#ff3;stroke:#000;stroke-linejoin:round"/><polygon points="702.6 454.2 697.3 427.5 685.8 409.6 686.8 400.6 693.2 395.7 698.8 391.4 707.7 387.7 716.7 379.6 702.6 454.2" style="fill:#4dbf4d;stroke:#000;stroke-linejoin:round"/><polyline points="558.8 212 545.7 197 486.8 210.2 445.3 212 427.7 199.1 378.1 206.5 364.6 198.6 339.8 199.1 315.8 186.2 287.8 172.8 255.9 176.5 247.1 167.7 233.5 167.7 235.9 188 215.1 212 186.3 232.3 193.5 237.6 202.6 244.3 204 251.9 203 258.8 199 278.8 197.4 286.9 190.8 293.9 182.2 305.5 173.3 309.9 166 309.9 157 306.7 148.1 295 148.1 295 148.1 306.5 149.1 313.3 152.3 315.2 156.6 317.6 163.2 320.8 167.5 329.8 159.6 365.1 150.1 365.6 136.1 376 126.1 403.8 118.4 437.6 99.2 467.2 95.2 464.2 101.7 468.2 114.7 451.7 121.7 446.1 123.5 442.4 135 433 143 434.6 148.2 435.6 152.4 436.5 243.1 438.6 261.2 418.3 278.3 415.8 293.3 410.1 322 405.5 337.8 407.2 367.2 402.9 409.6 401.9 482.7 416.6 544.4 442.1 575 454.2 702.6 454.2 699.6 442 697.3 427.5 693.5 416.7 685.8 409.6 686.8 400.6 698.8 391.4 707.7 387.7 716.7 379.6 725.3 336.5 727 327.9 708 328.8 698.2 318.7 709.8 305.4 723.4 281.4 727.9 277.6 729.2 267.6 732.2 259.5 729 251.4 727.9 244 701.6 241.6 675.4 230.5 606.1 217.3 579.5 208.3 558.8 212" style="fill:#6f6;stroke:#000;stroke-linejoin:round"/><polygon points="606.7 308.5 594.6 313.6 584.6 317.9 579.3 334.3 584.4 348.3 602.2 359.9 621 370.3 626.6 368.3 635.8 365.3 641.4 375.7 650.4 376.9 663.2 374.1 675.8 366.6 685.8 357.6 685.8 334.8 680.7 327.5 673.4 315.6 664.8 312.9 651.2 310.1 639.1 314.1 624.4 308.5 606.7 308.5" style="fill:#4dbf4d;stroke:#000;stroke-linejoin:round"/><polygon points="474.8 135 469 136.2 464 138.8 463.7 146 479.6 158.9 512.8 178.7 526.9 182.8 538.5 180.4 546.1 175.6 552.1 169.3 538.5 151.8 531.4 148.7 501.3 139.3 474.8 135" style="fill:#6f6;stroke:#000;stroke-linejoin:round"/><polygon points="510.5 161.8 513.9 171.7 524.6 176.9 536.2 175.1 541.5 170.6 539 162.8 534.6 157.4 529.8 153.9 519.3 153.6 513.7 158 510.5 161.8" style="fill:#4dbf4d;stroke:#000;stroke-linejoin:round"/><polyline points="584 162.6 627.1 173.5 719.4 196.8 757.9 182.7 748.3 232.5 744.7 245.3 740 262.9 727 327.9 709.8 325.6 703.5 319.9 712.5 306.7 726 284.1 730.6 278.7 732.4 273.1 732.5 267.3 736.7 254.2 738.1 243.9 740.1 238.6 738.6 229.8 675.4 212 657.8 213.9 620.3 198.9 591.2 187.5 554.5 168.9 549.7 160.8 539.3 146.7 531.5 143.3 506.5 136.9 474.9 132 464.9 134 387.7 116 370.9 124.8 339.8 125.3 314.9 117.3 289.3 109.2 258.5 99.3 249.4 96.4 240.5 64.5 236.2 52.4 236.9 50.5 240.4 41.1 240.4 49.4 262.8 73.7 288.6 89.3 316.7 89.3 339 103.3 355 108.2 370.9 106.3 394.4 100.5 444.7 120.1 492.1 128.5 501 126.5 534.6 136.9 546.8 138.8 572.8 148.4 584 162.6" style="fill:#fc3;stroke:#000;stroke-linejoin:round"/><polygon points="394.4 100.5 370.9 106.3 355 108.2 339 103.3 316.7 89.3 288.6 89.3 262.8 73.7 243.7 51.9 240.4 41.1 239.5 46.1 240.4 50.5 240.8 54.4 245.2 60 262.8 82.2 290.9 98.1 315.3 99 338.4 108.4 354.5 112.5 369.4 113.1 384.1 108.8 389.2 104.7 425.3 119.7 434.2 123.8 463.4 130.8 472.9 129.5 492.5 132 500.8 129 533 140.2 545.7 142.6 552.2 145.1 553.9 149.7 553.9 153 557.6 164.3 564 167.7 569 170.2 574.6 171.3 584 166 592.6 171.3 717.1 201.8 745.6 198.4 751.2 194.1 757.9 182.7 756.4 182.6 725.1 178 394.4 100.5" style="fill:#f90;stroke:#000;stroke-linejoin:round"/><polygon points="240.4 41.1 240.4 41.1 243.7 51.9 246.9 58.9 249 60.8 262.8 73.7 288.6 89.3 316.7 89.3 339 103.3 355 108.2 370.9 106.3 394.4 100.5 398.2 103.3 444.7 120.1 469.4 127.6 492.1 128.5 501 126.5 534.6 136.9 546.8 138.8 554.6 143.6 558.7 148.4 557 153.3 562.2 163.9 565.6 165.1 569.8 168.4 573.7 168.9 584 162.6 594 167.7 719.4 196.8 741.8 194 745.5 193.6 757.9 182.7 756.4 182.6 710.7 178.6 656.3 168.3 602.9 150.3 592.8 147 583.8 141.5 400 84.3 240.4 41.1" style="fill:red;stroke:#000;stroke-linejoin:round"/><polygon points="103.6 473.2 505.7 542.4 521.9 497.6 516.8 486 510.7 481.7 505 478.7 494.2 479.6 479.8 480.8 463.6 482.2 454.5 479.8 448.9 474.6 448.9 463 446.2 454.7 438.1 441.4 433 437.8 426.1 434.6 411.5 434.9 396.6 438 380.7 439.7 362.7 445.2 313.5 440.4 285.6 444.9 261.5 460.7 251.2 472.1 241.6 473.3 215.8 464.7 185.3 462.5 148.9 455.6 121.1 457.1 112.7 464.7 103.6 473.2" style="fill:#f90;stroke:#000;stroke-linejoin:round"/><polygon points="243.6 32.1 240.4 41.1 250 47.4 257.7 50.4 266.5 53.9 289.3 64 303 68.2 317.1 67 330.3 75.1 337.8 80.4 352.1 84.5 368.1 84.5 385.8 84.5 396.1 84.5 403.9 89.3 416.7 95.6 433.2 101.1 460.3 109.3 487.3 115.2 501.5 117.5 515 121.3 535.8 128.2 552.1 132 563.5 138.4 568.7 144.4 577.2 148.3 581.6 148.2 587.9 145.9 596.4 148.3 613.3 153.6 629.8 161.1 656.3 168.3 673.9 171.8 696.1 176.9 710.7 178.6 719.5 182.8 737.4 187.1 756.4 182.6 756.4 182.6 650.3 159.3 565.7 134 524.8 121.6 369.3 71.3 243.6 32.1" style="fill:#c0f;stroke:#000;stroke-linejoin:round"/><polygon points="259.7 309.9 259.7 369.8 543.4 369.8 543.6 266 384.7 266 384.7 309.9 259.7 309.9" style="fill:#4dbf4d;stroke:#000;stroke-linejoin:round"/></g><g style="isolation:isolate"><g style="isolation:isolate"><path d="M44.42,43.36l-2.51-4.6v4.6H40.64V36.85H42.3l2.47,4.62V36.85H46v6.52h-1.6Z"/><path d="M47,41a2.21,2.21,0,0,1,2.41-2.47,2.07,2.07,0,0,1,2.26,2.37c0,1.53-.7,2.53-2.39,2.53S47,42.45,47,41ZM50.24,41c0-1-.28-1.39-0.88-1.39s-1,.39-1,1.4,0.26,1.46.93,1.46S50.24,42.09,50.24,41Z"/><path d="M53.19,38.06A0.82,0.82,0,1,1,54,37.23,0.75,0.75,0,0,1,53.19,38.06Zm0.68,5.3H52.5V38.67h1.36v4.69Z"/><path d="M58.56,39.82l-1.12.35a0.75,0.75,0,0,0-.81-0.64c-0.39,0-.59.14-0.59,0.41s0.4,0.41,1,.51c0.82,0.14,1.65.32,1.65,1.43s-0.91,1.58-2.06,1.58a1.75,1.75,0,0,1-2-1.29l1.11-.36a0.86,0.86,0,0,0,.94.71c0.46,0,.68-0.15.68-0.44s-0.32-.41-0.87-0.5c-0.82-.15-1.69-0.34-1.69-1.49s0.91-1.53,2-1.53A1.71,1.71,0,0,1,58.56,39.82Z"/><path d="M59.19,41a2.2,2.2,0,0,1,2.3-2.46,1.88,1.88,0,0,1,2,2.17c0,0.15,0,.45,0,0.61H60.62a0.89,0.89,0,0,0,.95,1.06,0.72,0.72,0,0,0,.77-0.67L63.47,42a1.82,1.82,0,0,1-2,1.44A2.15,2.15,0,0,1,59.19,41Zm2.91-.54c0-.67-0.24-0.94-0.68-0.94a0.8,0.8,0,0,0-.77.94H62.1Z"/><path d="M67.42,42.19h2.79v1.17H66V36.85h1.39v5.35Z"/><path d="M70.7,41A2.2,2.2,0,0,1,73,38.58a1.88,1.88,0,0,1,2,2.17c0,0.15,0,.45,0,0.61H72.13a0.89,0.89,0,0,0,.95,1.06,0.72,0.72,0,0,0,.77-0.67L75,42a1.82,1.82,0,0,1-2,1.44A2.15,2.15,0,0,1,70.7,41Zm2.91-.54c0-.67-0.24-0.94-0.68-0.94a0.8,0.8,0,0,0-.77.94h1.46Z"/><path d="M76.8,43.36l-1.66-4.69h1.47l1,3.38h0l1-3.38H80l-1.66,4.69H76.8Z"/><path d="M80.18,41a2.2,2.2,0,0,1,2.3-2.46,1.88,1.88,0,0,1,2,2.17c0,0.15,0,.45,0,0.61H81.61a0.89,0.89,0,0,0,.95,1.06,0.72,0.72,0,0,0,.77-0.67L84.46,42a1.82,1.82,0,0,1-2,1.44A2.15,2.15,0,0,1,80.18,41Zm2.91-.54c0-.67-0.24-0.94-0.68-0.94a0.8,0.8,0,0,0-.77.94h1.46Z"/><path d="M86.69,43.36H85.33v-6.8h1.36v6.8Z"/></g><g style="isolation:isolate"><path d="M41.2,48.86A0.82,0.82,0,1,1,42,48,0.75,0.75,0,0,1,41.2,48.86Zm0.67,5.3H40.51V49.47h1.36v4.69Z"/><path d="M47.16,54.16H45.8v-3a0.58,0.58,0,0,0-.62-0.72,1.51,1.51,0,0,0-.92.37v3.32H42.9V49.47h1.21l0.07,0.47a2.2,2.2,0,0,1,1.49-.57A1.33,1.33,0,0,1,47.16,51v3.21Z"/><path d="M54,54.16H52.87l-0.08-.46h0a1.76,1.76,0,0,1-1.39.58c-1.1,0-1.85-.68-1.85-2.36,0-1.88,1-2.54,2-2.54a1.61,1.61,0,0,1,1.19.4v-2.4H54v6.8Zm-1.35-3.45a1.29,1.29,0,0,0-.76-0.26c-0.68,0-.95.6-0.95,1.41s0.26,1.33.9,1.33a1.23,1.23,0,0,0,.8-0.33V50.72Z"/><path d="M55.18,54.16V47.65h2.58c1.54,0,2,.7,2,1.59a1.52,1.52,0,0,1-1.23,1.52v0A1.49,1.49,0,0,1,60,52.37c0,1.33-1,1.79-2.46,1.79H55.18Zm1.9-3.83c0.65,0,1.3-.12,1.3-0.87s-0.47-.75-1.09-0.75H56.57v1.62h0.51Zm0.2,2.75c0.76,0,1.26-.13,1.26-0.85s-0.5-.85-1.13-0.85H56.57v1.7h0.71Z"/><path d="M62,55.54a6.85,6.85,0,0,1-1.32-3.9,6.7,6.7,0,0,1,1.43-4h1.4a6.69,6.69,0,0,0-1.39,4,7.08,7.08,0,0,0,1.3,3.92H62Z"/><path d="M67.51,47.65l2.3,6.52H68.29l-0.54-1.58H65.58l-0.5,1.58H63.64l2.13-6.52h1.73ZM66.65,49h0l-0.8,2.52h1.65Z"/><path d="M71.32,47.65a6.85,6.85,0,0,1,1.32,3.9,6.7,6.7,0,0,1-1.43,4h-1.4a6.69,6.69,0,0,0,1.39-4,7.08,7.08,0,0,0-1.3-3.92h1.42Z"/></g></g></svg>