<svg xmlns="http://www.w3.org/2000/svg" xmlns:xlink="http://www.w3.org/1999/xlink" width="297mm" height="210mm" viewBox="0 0 841.89 595.28"><defs><clipPath id="a"><rect x="175.81" y="15.88" width="509.02" height="575.83" transform="translate(-42.71 535.55) rotate(-61.32)" style="fill:none"/></clipPath><clipPath id="c"><rect x="212.53" y="115" width="12.61" height="19.72" transform="translate(4.29 256.94) rotate(-61.32)" style="fill:none"/></clipPath><clipPath id="d"><rect x="274.72" y="54.51" width="18.52" height="26.37" transform="translate(88.32 284.36) rotate(-61.32)" style="fill:none"/></clipPath><clipPath id="e"><rect x="221.71" y="90.39" width="18.38" height="24.81" transform="translate(29.91 256.05) rotate(-61.32)" style="fill:none"/></clipPath><clipPath id="f"><rect x="233.3" y="46.29" width="22.19" height="29.29" transform="translate(73.66 246.11) rotate(-61.32)" style="fill:none"/></clipPath><clipPath id="g"><rect x="300.2" y="62.36" width="12.61" height="19.72" transform="translate(96.07 306.48) rotate(-61.32)" style="fill:none"/></clipPath><clipPath id="h"><rect x="328.54" y="71.47" width="17.71" height="24.81" transform="translate(101.9 339.64) rotate(-61.32)" style="fill:none"/></clipPath><clipPath id="i"><rect x="380.16" y="90.05" width="12.61" height="19.72" transform="translate(113.36 391.03) rotate(-61.32)" style="fill:none"/></clipPath><clipPath id="j"><rect x="412.51" y="99.54" width="18.4" height="24.81" transform="translate(121.14 428.21) rotate(-61.32)" style="fill:none"/></clipPath><clipPath id="k"><rect x="508.9" y="132.04" width="12.61" height="19.72" transform="translate(143.48 525.82) rotate(-61.32)" style="fill:none"/></clipPath><clipPath id="l"><rect x="390.44" y="140.47" width="100.1" height="107.2" transform="translate(58.84 487.4) rotate(-61.32)" style="fill:none"/></clipPath><clipPath id="m"><rect x="254.25" y="116.77" width="133.76" height="140.86" transform="translate(2.79 379.11) rotate(-61.32)" style="fill:none"/></clipPath><clipPath id="n"><rect x="647.63" y="262.99" width="100.1" height="107.2" transform="translate(85.13 776.77) rotate(-61.32)" style="fill:none"/></clipPath><clipPath id="o"><rect x="717.13" y="178.3" width="47.95" height="54.11" transform="translate(205.31 757.02) rotate(-61.32)" style="fill:none"/></clipPath><clipPath id="p"><rect x="704.51" y="214.53" width="47.95" height="54.11" transform="translate(166.96 764.79) rotate(-61.32)" style="fill:none"/></clipPath><clipPath id="q"><rect x="451.67" y="455.19" width="36.11" height="42.56" transform="translate(-173.71 659.94) rotate(-61.32)" style="fill:none"/></clipPath><clipPath id="r"><rect x="323.35" y="457.42" width="53.38" height="60.48" transform="translate(-245.77 560.75) rotate(-61.32)" style="fill:none"/></clipPath><clipPath id="s"><rect x="373.78" y="449.47" width="70.55" height="78.83" transform="translate(-216.15 613.16) rotate(-61.32)" style="fill:none"/></clipPath></defs><title>muell</title><g style="clip-path:url(#a)"><g style="clip-path:url(#a)"><g style="opacity:0.399993985891342"><g style="clip-path:url(#c)"><path d="M216.15,129.76a3.47,3.47,0,1,0-1.38-4.71,3.47,3.47,0,0,0,1.38,4.71" style="fill:#e5007e"/></g></g><g style="opacity:0.5"><g style="clip-path:url(#d)"><path d="M279.88,75.2A6.43,6.43,0,1,0,277,66.3a6.61,6.61,0,0,0,2.88,8.89" style="fill:#e5007e"/></g></g><g style="opacity:0.399993985891342"><g style="clip-path:url(#e)"><path d="M226.83,110.24a6.36,6.36,0,1,0-2.23-8.46,6.19,6.19,0,0,0,2.23,8.46" style="fill:#e5007e"/></g></g><g style="opacity:0.5"><g style="clip-path:url(#f)"><path d="M239.41,70a8.25,8.25,0,1,0-3.28-11.2A8.25,8.25,0,0,0,239.41,70" style="fill:#e5007e"/></g></g><g style="opacity:0.399993985891342"><g style="clip-path:url(#g)"><path d="M303.82,77.13a3.47,3.47,0,1,0-1.38-4.71,3.47,3.47,0,0,0,1.38,4.71" style="fill:#e5007e"/></g></g><g style="opacity:0.399993985891342"><g style="clip-path:url(#h)"><path d="M333.49,91a6,6,0,1,0-2.39-8.16A6,6,0,0,0,333.49,91" style="fill:#e5007e"/></g></g><g style="opacity:0.399993985891342"><g style="clip-path:url(#i)"><path d="M383.78,104.82a3.47,3.47,0,1,0-1.38-4.71,3.47,3.47,0,0,0,1.38,4.71" style="fill:#e5007e"/></g></g><g style="opacity:0.399993985891342"><g style="clip-path:url(#j)"><path d="M417.64,119.39a6.37,6.37,0,1,1,8.33-2.7,6.19,6.19,0,0,1-8.33,2.7" style="fill:#e5007e"/></g></g><g style="opacity:0.399993985891342"><g style="clip-path:url(#k)"><path d="M512.52,146.81a3.47,3.47,0,1,0-1.38-4.71,3.47,3.47,0,0,0,1.38,4.71" style="fill:#e5007e"/></g></g><g style="opacity:0.300002992153168"><g style="clip-path:url(#l)"><path d="M416.81,237.36A47.21,47.21,0,1,0,398,173.29a47.21,47.21,0,0,0,18.76,64.07" style="fill:#e5007e"/></g></g><g style="opacity:0.300002992153168"><g style="clip-path:url(#m)"><path d="M285.37,241.63a64,64,0,1,0-25.45-86.92,64,64,0,0,0,25.45,86.92" style="fill:#e5007e"/></g></g><g style="opacity:0.300002992153168"><g style="clip-path:url(#n)"><path d="M674,359.88a47.21,47.21,0,1,0-18.76-64.07A47.21,47.21,0,0,0,674,359.88" style="fill:#e5007e"/></g></g><g style="opacity:0.199996992945671"><g style="clip-path:url(#o)"><path d="M729.95,225.77a21.14,21.14,0,1,0-8-28.46,20.9,20.9,0,0,0,8,28.46" style="fill:#e5007e"/></g></g><g style="opacity:0.300002992153168"><g style="clip-path:url(#p)"><path d="M717.32,262a21.14,21.14,0,1,0-8-28.46,20.9,20.9,0,0,0,8,28.46" style="fill:#e5007e"/></g></g><g style="opacity:0.199996992945671"><g style="clip-path:url(#q)"><path d="M461.41,491.69a15.22,15.22,0,1,0-5.76-20.49,15.05,15.05,0,0,0,5.76,20.49" style="fill:#e5007e"/></g></g><g style="opacity:0.300002992153168"><g style="clip-path:url(#r)"><path d="M337.57,510.45a23.85,23.85,0,1,0-9.48-32.37,23.85,23.85,0,0,0,9.48,32.37" style="fill:#e5007e"/></g></g><g style="opacity:0.300002992153168"><g style="clip-path:url(#s)"><path d="M392.47,519.2c16,8.75,35.94,3.11,44.54-12.61s2.59-35.55-13.41-44.3-35.94-3.11-44.54,12.61-2.59,35.55,13.41,44.3" style="fill:#e5007e"/></g></g></g></g><path d="M149.9,470.56a67.33,67.33,0,1,0-26.76-91.38,67.33,67.33,0,0,0,26.76,91.38" style="fill:#e5007e;opacity:0.30000000000000004"/><path d="M175.47,359.92A47.67,47.67,0,1,0,156.17,295a47.87,47.87,0,0,0,19.3,64.89" style="fill:#e5007e;opacity:0.4"/></svg>