<svg xmlns="http://www.w3.org/2000/svg" width="297mm" height="210mm" viewBox="0 0 841.89 595.28"><title>zonen</title><polygon points="160.62 260.77 239.7 42.94 546.41 140.85 546.79 140.95 559.3 144.53 559.67 144.64 562.14 145.3 576.75 149.22 581.41 150.47 583.53 151.03 590 152.78 611.66 158.56 639.63 166.09 649.97 168.88 664.38 172.72 686.38 178.66 696.41 181.34 717.19 185.31 729.53 187.69 755.75 192.75 750.28 221.09 748.06 232.53 739.72 262.75 559.66 262.27 559.66 260.77 160.62 260.77" style="fill:#37b097;opacity:0.30000000000000004"/><rect x="334" y="174" width="29.88" height="9.89" style="fill:#37b097"/><polygon points="130.36 344.13 84.48 470.52 249.25 498.58 253.44 473.99 254.05 462.56 259.63 393.91 259.64 344.13 130.36 344.13" style="fill:#34495d;opacity:0.30000000000000004"/><polygon points="130.36 344.13 160.5 261.13 259.63 261.15 259.64 344.13 130.36 344.13" style="fill:#905b9d;opacity:0.30000000000000004"/><polygon points="559.66 377.27 716.96 377.27 739.66 263.13 559.75 262.65 559.66 377.27" style="fill:#e74d3d;opacity:0.30000000000000004"/><path d="M717,377.27h-0.79l0,0.25a0.24,0.24,0,0,1-.06.08,0.27,0.27,0,0,1-.11,0H559.66v76.41H702.48Z" style="fill:#3f96ce;opacity:0.30000000000000004"/><path d="M260,376.83v17.08a0.21,0.21,0,0,1-.19.19,0.21,0.21,0,0,1-.2-0.19L254,462.56,253.44,474h0l0.13,0a0.19,0.19,0,0,1,.16.06,0.17,0.17,0,0,1,.05.14v0.07l-4.16,24.41,24.8,4.23,231.21,39.36,31.88-88.17,0.13,0h22V377.64l-13-.81H260Z" style="fill:#f0c40d;opacity:0.30000000000000004"/><path d="M341.54,181.89l-0.94-4h0l-0.93,4H338l-1.25-5.79h1.29l0.82,4.46h0l1-4.46h1.32l1.06,4.49h0l0.75-4.49h1.24l-1.24,5.79h-1.58Z" style="fill:#fff"/><path d="M346.24,181.89H345V176.1h1.23v5.79Z" style="fill:#fff"/><path d="M348.66,180.85h2.58v1h-3.81V176.1h3.67v1h-2.44v1.36H351v1h-2.29v1.35Z" style="fill:#fff"/><path d="M353,177.56c0,1.21,3,.46,3,2.59,0,1.31-1.06,1.83-2.21,1.83a1.92,1.92,0,0,1-2.24-1.84l1.12-.17a1,1,0,0,0,1.15,1,0.78,0.78,0,0,0,1-.71c0-1.21-3-.37-3-2.56a1.85,1.85,0,0,1,2.11-1.74c1,0,2,.32,2.06,1.69l-1.13.13a0.83,0.83,0,0,0-1-.87C353.27,176.94,353,177.19,353,177.56Z" style="fill:#fff"/><path d="M358.06,180.85h2.58v1h-3.81V176.1h3.67v1h-2.44v1.36h2.29v1h-2.29v1.35Z" style="fill:#fff"/><rect x="161.41" y="281.59" width="82.06" height="9.89" style="fill:#905b9d"/><path d="M164.21,289.48v-5.79h2.29c1.37,0,1.75.62,1.75,1.42a1.35,1.35,0,0,1-1.1,1.35v0a1.32,1.32,0,0,1,1.34,1.42c0,1.18-.93,1.59-2.18,1.59h-2.11Zm1.69-3.4c0.58,0,1.15-.1,1.15-0.78s-0.42-.66-1-0.66h-0.64v1.44h0.46Zm0.18,2.45c0.67,0,1.12-.12,1.12-0.75s-0.45-.76-1-0.76h-0.75v1.51h0.63Z" style="fill:#fff"/><path d="M169,286.6a2.72,2.72,0,0,1,2.82-3c1.88,0,2.66,1.3,2.66,2.91,0,1.88-.9,3.08-2.78,3.08S169,288.33,169,286.6Zm4.21,0c0-1.34-.52-1.94-1.41-1.94s-1.53.62-1.53,2,0.56,2,1.47,2S173.22,288,173.22,286.56Z" style="fill:#fff"/><path d="M178.69,287.21v-3.53h1.23v3.7c0,1.54-.89,2.18-2.33,2.18-1.6,0-2.28-.7-2.28-2.21v-3.67h1.24v3.5c0,0.9.23,1.35,1.09,1.35S178.69,288.16,178.69,287.21Z" style="fill:#fff"/><path d="M182.28,288.44h2.48v1H181v-5.79h1.23v4.75Z" style="fill:#fff"/><path d="M186.82,288.44h2.58v1h-3.81v-5.79h3.67v1h-2.44v1.36h2.29v1h-2.29v1.35Z" style="fill:#fff"/><path d="M193.61,289.48l-2.23-4.09v4.09h-1.13v-5.79h1.47l2.19,4.1v-4.1H195v5.79h-1.42Z" style="fill:#fff"/><path d="M197.16,285.15c0,1.21,3,.46,3,2.59,0,1.31-1.06,1.83-2.21,1.83a1.92,1.92,0,0,1-2.24-1.84l1.12-.17a1,1,0,0,0,1.15,1,0.78,0.78,0,0,0,1-.71c0-1.21-3-.37-3-2.56a1.85,1.85,0,0,1,2.11-1.74c1,0,2,.32,2.06,1.69l-1.13.13a0.83,0.83,0,0,0-1-.87C197.43,284.53,197.16,284.78,197.16,285.15Z" style="fill:#fff"/><path d="M202.21,289.48H201v-5.79h2.19a1.68,1.68,0,0,1,1.93,1.81c0,1.39-.76,2.11-2.26,2.11h-0.63v1.87Zm0.5-2.86a0.94,0.94,0,0,0,1.14-1,0.84,0.84,0,0,0-1-.9h-0.59v1.94h0.5Z" style="fill:#fff"/><path d="M207.18,289.48h-1.23v-5.79h1.23v5.79Z" style="fill:#fff"/><path d="M209.6,288.44h2.58v1h-3.81v-5.79H212v1H209.6v1.36h2.29v1H209.6v1.35Z" style="fill:#fff"/><path d="M214.26,288.44h2.48v1H213v-5.79h1.23v4.75Z" style="fill:#fff"/><path d="M218.8,289.48h-1.22v-5.79h2.19a1.68,1.68,0,0,1,1.93,1.81c0,1.39-.76,2.11-2.26,2.11H218.8v1.87Zm0.5-2.86a0.94,0.94,0,0,0,1.14-1,0.84,0.84,0,0,0-1-.9H218.8v1.94h0.5Z" style="fill:#fff"/><path d="M223.77,288.44h2.48v1h-3.71v-5.79h1.23v4.75Z" style="fill:#fff"/><path d="M230,283.69l2,5.79h-1.35l-0.48-1.41h-1.93l-0.45,1.41h-1.27l1.89-5.79H230Zm-0.76,1.16h0l-0.71,2.24H230Z" style="fill:#fff"/><path d="M233.26,289.48v-4.75h-1.7v-1h4.63v1H234.5v4.75h-1.24Z" style="fill:#fff"/><path d="M237.95,288.44h2.81v1h-4.29v-0.9l2.74-3.85h-2.67v-1h4.1v0.92Z" style="fill:#fff"/><rect x="138.41" y="416.41" width="82.06" height="9.89" style="fill:#34495d"/><path d="M143.76,421l2.25-2.48h1.31l-2.12,2.41,2.09,3.38h-1.44l-1.53-2.42-0.56.61v1.82h-1.22v-5.79h1.22V421Z" style="fill:#fff"/><path d="M149.15,424.3h-1.23v-5.79h1.23v5.79Z" style="fill:#fff"/><path d="M153.69,424.3l-2.23-4.09v4.09h-1.13v-5.79h1.47l2.19,4.1v-4.1h1.12v5.79h-1.42Z" style="fill:#fff"/><path d="M156.29,424.3v-5.79h2a2.53,2.53,0,0,1,2.87,2.81,2.71,2.71,0,0,1-3,3h-1.89Zm1.84-1c1.33,0,1.8-.73,1.8-1.93,0-1.44-.56-1.88-1.71-1.88h-0.7v3.81h0.61Z" style="fill:#fff"/><path d="M163.32,423.26h2.58v1h-3.81v-5.79h3.67v1h-2.44v1.36h2.29v1h-2.29v1.35Z" style="fill:#fff"/><path d="M171.24,424.3h-1.33l-1.14-2.2H168v2.2h-1.22v-5.79H169c1.44,0,1.92.78,1.92,1.63a1.69,1.69,0,0,1-1,1.66Zm-2.63-3.17a0.87,0.87,0,0,0,1-.87c0-.55-0.34-0.76-1-0.76H168v1.63h0.63Z" style="fill:#fff"/><path d="M172.83,420c0,1.21,3,.46,3,2.59,0,1.31-1.06,1.83-2.21,1.83a1.92,1.92,0,0,1-2.24-1.84l1.12-.17a1,1,0,0,0,1.15,1,0.78,0.78,0,0,0,1-.71c0-1.21-3-.37-3-2.56a1.85,1.85,0,0,1,2.11-1.74c1,0,2,.32,2.06,1.69l-1.13.13a0.83,0.83,0,0,0-1-.87C173.1,419.35,172.83,419.6,172.83,420Z" style="fill:#fff"/><path d="M177.88,424.3h-1.22v-5.79h2.19a1.68,1.68,0,0,1,1.93,1.81c0,1.39-.76,2.11-2.26,2.11h-0.63v1.87Zm0.5-2.86a0.94,0.94,0,0,0,1.14-1,0.84,0.84,0,0,0-1-.9h-0.59v1.94h0.5Z" style="fill:#fff"/><path d="M182.85,424.3h-1.23v-5.79h1.23v5.79Z" style="fill:#fff"/><path d="M185.27,423.26h2.58v1H184v-5.79h3.67v1h-2.44v1.36h2.29v1h-2.29v1.35Z" style="fill:#fff"/><path d="M189.93,423.26h2.48v1H188.7v-5.79h1.23v4.75Z" style="fill:#fff"/><path d="M194.47,424.3h-1.22v-5.79h2.19a1.68,1.68,0,0,1,1.93,1.81c0,1.39-.76,2.11-2.26,2.11h-0.63v1.87Zm0.5-2.86a0.94,0.94,0,0,0,1.14-1,0.84,0.84,0,0,0-1-.9h-0.59v1.94H195Z" style="fill:#fff"/><path d="M199.44,423.26h2.48v1h-3.71v-5.79h1.23v4.75Z" style="fill:#fff"/><path d="M205.71,418.51l2,5.79H206.4l-0.48-1.41H204l-0.45,1.41h-1.27l1.89-5.79h1.54Zm-0.76,1.16h0l-0.71,2.24h1.46Z" style="fill:#fff"/><path d="M208.93,424.3v-4.75h-1.7v-1h4.63v1h-1.69v4.75h-1.24Z" style="fill:#fff"/><path d="M213.62,423.26h2.81v1h-4.29v-0.9l2.74-3.85h-2.67v-1h4.1v0.92Z" style="fill:#fff"/><rect x="608.71" y="416.41" width="50.27" height="9.89" style="fill:#3f96ce"/><path d="M614.84,423.58a1.8,1.8,0,0,1-1.65.81c-1.74,0-2.46-1.21-2.46-2.89,0-1.87,1-3.09,2.81-3.09a2,2,0,0,1,2.29,2l-1.15.11a1.07,1.07,0,0,0-1.16-1.12c-1,0-1.5.73-1.5,2s0.45,2,1.46,2a1,1,0,0,0,1.18-1v-0.21H613.6v-0.9h2.27v3H615Z" style="fill:#fff"/><path d="M621.42,424.3h-1.33l-1.14-2.2h-0.79v2.2h-1.22v-5.79h2.25c1.44,0,1.92.78,1.92,1.63a1.69,1.69,0,0,1-1,1.66Zm-2.63-3.17a0.87,0.87,0,0,0,1-.87c0-.55-0.34-0.76-1-0.76h-0.68v1.63h0.63Z" style="fill:#fff"/><path d="M623.3,424.3h-1.23v-5.79h1.23v5.79Z" style="fill:#fff"/><path d="M625.72,423.26h2.48v1h-3.71v-5.79h1.23v4.75Z" style="fill:#fff"/><path d="M630.26,423.26h2.48v1H629v-5.79h1.23v4.75Z" style="fill:#fff"/><path d="M634.8,424.3h-1.22v-5.79h2.19a1.68,1.68,0,0,1,1.93,1.81c0,1.39-.76,2.11-2.26,2.11H634.8v1.87Zm0.5-2.86a0.94,0.94,0,0,0,1.14-1,0.84,0.84,0,0,0-1-.9H634.8v1.94h0.5Z" style="fill:#fff"/><path d="M639.77,423.26h2.48v1h-3.71v-5.79h1.23v4.75Z" style="fill:#fff"/><path d="M646,418.51l2,5.79h-1.35l-0.48-1.41h-1.93l-0.45,1.41h-1.27l1.89-5.79H646Zm-0.76,1.16h0l-0.71,2.24H646Z" style="fill:#fff"/><path d="M649.26,424.3v-4.75h-1.7v-1h4.63v1H650.5v4.75h-1.24Z" style="fill:#fff"/><path d="M653.95,423.26h2.81v1h-4.29v-0.9l2.74-3.85h-2.67v-1h4.1v0.92Z" style="fill:#fff"/><rect x="598.88" y="319.73" width="69.93" height="9.89" style="fill:#e74d3d"/><path d="M605.66,326.91a1.8,1.8,0,0,1-1.66.81c-1.74,0-2.46-1.21-2.46-2.89,0-1.87,1-3.09,2.81-3.09a2,2,0,0,1,2.29,2l-1.15.11a1.07,1.07,0,0,0-1.16-1.12c-1,0-1.5.73-1.5,2s0.45,2,1.46,2a1,1,0,0,0,1.18-1v-0.21h-1.06v-0.9h2.27v3h-0.9Z" style="fill:#fff"/><path d="M609,326.58h2.58v1h-3.81v-5.79h3.67v1H609v1.36h2.29v1H609v1.35Z" style="fill:#fff"/><path d="M618.55,327.62H617.4v-4.54h0L616,327.62h-1.11l-1.32-4.55h0v4.55h-1.13v-5.79h1.84l1.22,4.23h0l1.22-4.23h1.83v5.79Z" style="fill:#fff"/><path d="M623,325.36v-3.53h1.23v3.7c0,1.54-.89,2.18-2.33,2.18-1.6,0-2.28-.7-2.28-2.21v-3.67h1.24v3.5c0,0.9.23,1.35,1.09,1.35S623,326.3,623,325.36Zm-2-3.93a0.67,0.67,0,1,1,.7-0.66A0.65,0.65,0,0,1,621,321.42Zm1.88,0a0.67,0.67,0,1,1,.7-0.66A0.64,0.64,0,0,1,622.9,321.42Z" style="fill:#fff"/><path d="M626.34,323.29c0,1.21,3,.46,3,2.59,0,1.31-1.06,1.83-2.21,1.83a1.92,1.92,0,0,1-2.24-1.84l1.12-.17a1,1,0,0,0,1.15,1,0.78,0.78,0,0,0,1-.71c0-1.21-3-.37-3-2.56a1.85,1.85,0,0,1,2.11-1.74c1,0,2,.32,2.06,1.69l-1.13.13a0.83,0.83,0,0,0-1-.87C626.61,322.68,626.34,322.92,626.34,323.29Z" style="fill:#fff"/><path d="M631.39,326.58H634v1h-3.81v-5.79h3.67v1h-2.44v1.36h2.29v1h-2.29v1.35Z" style="fill:#fff"/><path d="M638.65,326.91a1.8,1.8,0,0,1-1.66.81c-1.74,0-2.46-1.21-2.46-2.89,0-1.87,1-3.09,2.81-3.09a2,2,0,0,1,2.29,2l-1.15.11a1.07,1.07,0,0,0-1.16-1.12c-1,0-1.5.73-1.5,2s0.45,2,1.46,2a1,1,0,0,0,1.18-1v-0.21h-1.06v-0.9h2.27v3h-0.9Z" style="fill:#fff"/><path d="M643.69,321.83l2,5.79h-1.35l-0.48-1.41H642l-0.45,1.41h-1.27l1.89-5.79h1.54ZM642.93,323h0l-0.71,2.24h1.46Z" style="fill:#fff"/><path d="M650.9,327.62h-1.33l-1.14-2.2h-0.79v2.2h-1.22v-5.79h2.25c1.44,0,1.92.78,1.92,1.63a1.69,1.69,0,0,1-1,1.66Zm-2.63-3.17a0.87,0.87,0,0,0,1-.87c0-.55-0.34-0.76-1-0.76h-0.68v1.63h0.63Z" style="fill:#fff"/><path d="M652.56,327.62v-4.75h-1.7v-1h4.63v1H653.8v4.75h-1.24Z" style="fill:#fff"/><path d="M657.38,326.58H660v1h-3.81v-5.79h3.67v1h-2.44v1.36h2.29v1h-2.29v1.35Z" style="fill:#fff"/><path d="M664.17,327.62l-2.23-4.09v4.09h-1.13v-5.79h1.47l2.19,4.1v-4.1h1.12v5.79h-1.42Z" style="fill:#fff"/><rect x="292.97" y="460.98" width="82.06" height="9.89" style="fill:#f0c40d"/><path d="M297.54,468.87h-1.22v-5.79h2.19a1.68,1.68,0,0,1,1.93,1.81c0,1.39-.76,2.11-2.26,2.11h-0.63v1.87ZM298,466a0.94,0.94,0,0,0,1.14-1,0.84,0.84,0,0,0-1-.9h-0.59V466H298Z" style="fill:#1a171b"/><path d="M302.52,467.83H305v1h-3.71v-5.79h1.23v4.75Z" style="fill:#1a171b"/><path d="M308.78,463.08l2,5.79h-1.35L309,467.46h-1.93l-0.45,1.41h-1.27l1.89-5.79h1.54ZM308,464.24h0l-0.71,2.24h1.46Z" style="fill:#1a171b"/><path d="M312,468.87v-4.75h-1.7v-1h4.63v1h-1.69v4.75H312Z" style="fill:#1a171b"/><path d="M316.69,467.83h2.81v1h-4.29V468l2.74-3.85h-2.67v-1h4.1V464Z" style="fill:#1a171b"/><path d="M324.67,463.08l2,5.79h-1.35l-0.48-1.41H323l-0.45,1.41h-1.27l1.89-5.79h1.54Zm-0.76,1.16h0l-0.71,2.24h1.46Z" style="fill:#1a171b"/><path d="M333.53,468.87h-1.15v-4.54h0L331,468.87h-1.11l-1.32-4.55h0v4.55h-1.13v-5.79h1.84l1.22,4.23h0l1.22-4.23h1.83v5.79Z" style="fill:#1a171b"/><path d="M337.33,467.83h2.58v1H336.1v-5.79h3.67v1h-2.44v1.36h2.29v1h-2.29v1.35Z" style="fill:#1a171b"/><path d="M342,468.87h-1.23v-5.79H342v5.79Z" style="fill:#1a171b"/><path d="M346.54,468.87l-2.23-4.09v4.09h-1.13v-5.79h1.47l2.19,4.1v-4.1H348v5.79h-1.42Z" style="fill:#1a171b"/><path d="M353,468.16a1.8,1.8,0,0,1-1.65.81c-1.74,0-2.46-1.21-2.46-2.89,0-1.87,1-3.09,2.81-3.09a2,2,0,0,1,2.29,2l-1.15.11a1.07,1.07,0,0,0-1.16-1.12c-1,0-1.5.73-1.5,2s0.45,2,1.46,2a1,1,0,0,0,1.18-1v-0.21h-1.06v-0.9H354v3h-0.9Z" style="fill:#1a171b"/><path d="M358,463.08l2,5.79H358.7l-0.48-1.41h-1.93l-0.45,1.41h-1.27l1.89-5.79H358Zm-0.76,1.16h0l-0.71,2.24H358Z" style="fill:#1a171b"/><path d="M364.08,468.87l-2.23-4.09v4.09h-1.13v-5.79h1.47l2.19,4.1v-4.1h1.12v5.79h-1.42Z" style="fill:#1a171b"/><path d="M370.51,468.16a1.8,1.8,0,0,1-1.66.81c-1.74,0-2.46-1.21-2.46-2.89,0-1.87,1-3.09,2.81-3.09a2,2,0,0,1,2.29,2l-1.15.11a1.07,1.07,0,0,0-1.16-1.12c-1,0-1.5.73-1.5,2s0.45,2,1.46,2a1,1,0,0,0,1.18-1v-0.21h-1.06v-0.9h2.27v3h-0.9Z" style="fill:#1a171b"/></svg>