<svg xmlns="http://www.w3.org/2000/svg" width="297mm" height="210mm" viewBox="0 0 841.89 595.28"><title>aktivitaeten</title><ellipse cx="151.39" cy="407.14" rx="15.62" ry="16.17" transform="translate(-39.76 17.08) rotate(-5.71)" style="fill:#f5f5f5;stroke:#1d1d1b;stroke-linejoin:round;stroke-width:2px"/><circle cx="152.98" cy="409.8" r="12.01" transform="translate(-40.01 17.25) rotate(-5.71)" style="fill:#f5f5f5;stroke:#1d1d1b;stroke-linejoin:round;stroke-width:2px"/><ellipse cx="165.94" cy="420.4" rx="22.95" ry="16.56" transform="translate(-256.11 258.71) rotate(-47.5)" style="fill:#f5f5f5;stroke:#1d1d1b;stroke-linejoin:round;stroke-width:2px"/><path d="M175,439.52c0.16,6.13,7,12.23,14.09,11.53A12.87,12.87,0,0,0,200.66,437c-0.71-7.07-7.77-11.7-14.09-11.53s-14.25-9-15.61-8.28a15.1,15.1,0,0,0-7.51,9.51C163.18,427.93,174.89,433.38,175,439.52Z" style="fill:#f5f5f5;stroke:#1d1d1b;stroke-linejoin:round;stroke-width:2px"/><ellipse cx="177.18" cy="410.63" rx="2.02" ry="2.61" transform="translate(-209.99 186.77) rotate(-36.62)" style="fill:#f5f5f5;stroke:#1d1d1b;stroke-linejoin:round;stroke-width:2px"/><ellipse cx="155.85" cy="430.27" rx="2.02" ry="2.61" transform="translate(-206.03 150.15) rotate(-32.35)" style="fill:#f5f5f5;stroke:#1d1d1b;stroke-linejoin:round;stroke-width:2px"/><path d="M676.51,251.77c-7.7,8.18-28.31-10-27.18-15.09,2.45-11.11,32.75-63.63,36.72-66.12s7.58-3.58,12.18-5.41,17.15-27,17.15-27l10.08,5.6s-13.82,24.88-13.53,29,1.21,8.41,1.3,12.9S686.41,241.24,676.51,251.77Z" style="fill:#f5f5f5;stroke:#1d1d1b;stroke-linejoin:round;stroke-width:2px"/><polygon points="692.93 226.92 665.19 203.75 678.26 181.34 708.67 196.98 692.93 226.92" style="fill:#f5f5f5;stroke:#1d1d1b;stroke-linejoin:round;stroke-width:2px"/><path d="M721.41,151.24c-2.81,1.49-9.55-4.4-10-5.54l3.94-7.57,10.18,5.65Z" style="fill:#f5f5f5;stroke:#1d1d1b;stroke-linejoin:round;stroke-width:2px"/><path d="M239.48,119.66c6.21-.12,104.47,7.7,104.47,7.7l-6.72,37.92-99-38.64C235.64,125.09,236.77,119.8,239.48,119.66Z" style="fill:#f5f5f5;stroke:#1d1d1b;stroke-linejoin:round;stroke-width:2px"/><ellipse cx="341.22" cy="146.57" rx="19.04" ry="10.13" transform="translate(126.31 449.43) rotate(-77.89)" style="fill:#f5f5f5;stroke:#1d1d1b;stroke-linejoin:round;stroke-width:2px"/><ellipse cx="344.87" cy="148.62" rx="16.6" ry="8.83" transform="translate(127.18 454.62) rotate(-77.89)" style="fill:#f5f5f5;stroke:#1d1d1b;stroke-linejoin:round;stroke-width:2px"/><ellipse cx="350.4" cy="146.62" rx="15.21" ry="8.09" transform="translate(133.51 458.45) rotate(-77.89)" style="fill:#f5f5f5;stroke:#1d1d1b;stroke-linejoin:round;stroke-width:2px"/><ellipse cx="350.97" cy="152.78" rx="16.6" ry="8.83" transform="translate(127.94 463.87) rotate(-77.89)" style="fill:#f5f5f5;stroke:#1d1d1b;stroke-linejoin:round;stroke-width:2px"/><ellipse cx="356.5" cy="150.78" rx="15.21" ry="8.09" transform="translate(134.27 467.7) rotate(-77.89)" style="fill:#f5f5f5;stroke:#1d1d1b;stroke-linejoin:round;stroke-width:2px"/><path d="M336,297.08c-2.42,3.12-6.6,3.92-9.34,1.8l-22.22-17.21c-2.74-2.12-3-6.37-.59-9.49l35.47-45.78c2.42-3.12,6.6-3.92,9.34-1.8l22.22,17.21c2.74,2.12,3,6.37.59,9.49Z" style="fill:#f5f5f5;stroke:#1d1d1b;stroke-linejoin:round;stroke-width:2px"/><rect x="313.44" y="244.53" width="49.16" height="33.13" transform="translate(-75.4 368.39) rotate(-52.23)" style="fill:#f5f5f5;stroke:#1d1d1b;stroke-linejoin:round;stroke-width:2px"/><circle cx="319.53" cy="285.18" r="3.01" transform="translate(-101.61 363.11) rotate(-52.23)" style="fill:#f5f5f5;stroke:#1d1d1b;stroke-linejoin:round;stroke-width:2px"/><line x1="352.8" y1="234.95" x2="359.52" y2="240.16" style="fill:#f5f5f5;stroke:#1d1d1b;stroke-linecap:round;stroke-linejoin:round;stroke-width:2px"/><line x1="363.22" y1="228.79" x2="367.94" y2="222.7" style="fill:#f5f5f5;stroke:#1d1d1b;stroke-linecap:round;stroke-linejoin:round;stroke-width:2px"/><line x1="356.52" y1="224.5" x2="355.49" y2="216.36" style="fill:#f5f5f5;stroke:#1d1d1b;stroke-linecap:round;stroke-linejoin:round;stroke-width:2px"/><line x1="369.48" y1="234.54" x2="377.93" y2="233.46" style="fill:#f5f5f5;stroke:#1d1d1b;stroke-linecap:round;stroke-linejoin:round;stroke-width:2px"/><line x1="311.38" y1="296.32" x2="306.66" y2="302.41" style="fill:#f5f5f5;stroke:#1d1d1b;stroke-linecap:round;stroke-linejoin:round;stroke-width:2px"/><line x1="318.08" y1="300.62" x2="319.11" y2="308.76" style="fill:#f5f5f5;stroke:#1d1d1b;stroke-linecap:round;stroke-linejoin:round;stroke-width:2px"/><line x1="305.13" y1="290.58" x2="296.68" y2="291.65" style="fill:#f5f5f5;stroke:#1d1d1b;stroke-linecap:round;stroke-linejoin:round;stroke-width:2px"/><polygon points="486.43 108.57 511.4 172.48 467.99 188.15 443.64 128.06 486.43 108.57" style="fill:#f5f5f5;stroke:#1d1d1b;stroke-linejoin:round;stroke-width:2px"/><polygon points="435.21 131.59 459.56 191.68 418.26 211.79 393.2 150.32 435.21 131.59" style="fill:#f5f5f5;stroke:#1d1d1b;stroke-linejoin:round;stroke-width:2px"/><rect x="447.11" y="127.64" width="9.27" height="64.84" transform="translate(-27.04 181.38) rotate(-22.06)" style="fill:#f5f5f5;stroke:#1d1d1b;stroke-linejoin:round;stroke-width:2px"/><path d="M440.77,133.1c-2.73-5.75,42.93-17.73,42.93-17.73L505.46,168S460.3,180,462.52,185.77C462.52,185.77,443.51,138.84,440.77,133.1Z" style="fill:#f5f5f5;stroke:#1d1d1b;stroke-linejoin:round;stroke-width:2px"/><path d="M440.7,133.13c-2.13-6-42.91,17.79-42.91,17.79l21.82,52.64s40.4-23.45,42.91-17.79C462.52,185.77,442.83,139.12,440.7,133.13Z" style="fill:#f5f5f5;stroke:#1d1d1b;stroke-linejoin:round;stroke-width:2px"/><line x1="612.24" y1="408.63" x2="676.78" y2="445.48" style="fill:#f5f5f5;stroke:#1d1d1b;stroke-linecap:round;stroke-linejoin:round;stroke-width:2px"/><line x1="602.21" y1="409.2" x2="666.75" y2="446.05" style="fill:#f5f5f5;stroke:#1d1d1b;stroke-linecap:round;stroke-linejoin:round;stroke-width:2px"/><line x1="592.18" y1="409.77" x2="656.72" y2="446.62" style="fill:#f5f5f5;stroke:#1d1d1b;stroke-linecap:round;stroke-linejoin:round;stroke-width:2px"/><line x1="582.15" y1="410.34" x2="646.69" y2="447.19" style="fill:#f5f5f5;stroke:#1d1d1b;stroke-linecap:round;stroke-linejoin:round;stroke-width:2px"/><line x1="572.12" y1="410.91" x2="636.66" y2="447.77" style="fill:#f5f5f5;stroke:#1d1d1b;stroke-linecap:round;stroke-linejoin:round;stroke-width:2px"/><line x1="562.09" y1="411.48" x2="626.63" y2="448.34" style="fill:#f5f5f5;stroke:#1d1d1b;stroke-linecap:round;stroke-linejoin:round;stroke-width:2px"/><line x1="552.06" y1="412.05" x2="616.59" y2="448.91" style="fill:#f5f5f5;stroke:#1d1d1b;stroke-linecap:round;stroke-linejoin:round;stroke-width:2px"/><line x1="542.03" y1="412.62" x2="606.56" y2="449.48" style="fill:#f5f5f5;stroke:#1d1d1b;stroke-linecap:round;stroke-linejoin:round;stroke-width:2px"/><line x1="622.27" y1="408.06" x2="686.81" y2="444.91" style="fill:#f5f5f5;stroke:#1d1d1b;stroke-linecap:round;stroke-linejoin:round;stroke-width:2px"/><path d="M651.78,426.75c-9.17,3.84-22.38,5.86-34.76,6.94a265.53,265.53,0,0,1-34.07.76c-9.67-.43-13.53-17.16-1-17.22s22.66,0.07,34.07-.76,23.35-4.23,34.76-6.94S661,422.91,651.78,426.75Z" style="fill:#f5f5f5;stroke:#1d1d1b;stroke-linejoin:round;stroke-width:2px"/><path d="M587.53,417.86a9.1,9.1,0,0,1,10.52,5.21" style="fill:#f5f5f5;stroke:#1d1d1b;stroke-linecap:round;stroke-linejoin:round;stroke-width:2px"/><path d="M596.16,417.37a9.1,9.1,0,0,1,10.52,5.21" style="fill:#f5f5f5;stroke:#1d1d1b;stroke-linecap:round;stroke-linejoin:round;stroke-width:2px"/><path d="M604,416.92a9.1,9.1,0,0,1,10.52,5.21" style="fill:#f5f5f5;stroke:#1d1d1b;stroke-linecap:round;stroke-linejoin:round;stroke-width:2px"/><path d="M620.83,416a9.1,9.1,0,0,1,10.52,5.21" style="fill:#f5f5f5;stroke:#1d1d1b;stroke-linecap:round;stroke-linejoin:round;stroke-width:2px"/><path d="M612.69,416.42a9.1,9.1,0,0,1,10.52,5.21" style="fill:#f5f5f5;stroke:#1d1d1b;stroke-linecap:round;stroke-linejoin:round;stroke-width:2px"/><path d="M629.65,414.55a9.1,9.1,0,0,1,10.52,5.21" style="fill:#f5f5f5;stroke:#1d1d1b;stroke-linecap:round;stroke-linejoin:round;stroke-width:2px"/><path d="M602.08,382.87s-10.93,3.36-9.48,10.18,10,3.56,10.59,9.34-9.63,9.81-9.41,12.71" style="fill:none;stroke:#1d1d1b;stroke-linecap:round;stroke-linejoin:round;stroke-width:2px"/><path d="M613.85,379s-10.93,3.36-9.48,10.18,10,3.56,10.59,9.34-9.63,9.81-9.41,12.71" style="fill:none;stroke:#1d1d1b;stroke-linecap:round;stroke-linejoin:round;stroke-width:2px"/><path d="M629,382.14s-10.93,3.36-9.48,10.18,10,3.56,10.59,9.34-9.63,9.81-9.41,12.71" style="fill:none;stroke:#1d1d1b;stroke-linecap:round;stroke-linejoin:round;stroke-width:2px"/><polyline points="623.22 362.07 627.78 324.46 632.98 324.46 628.41 362.07" style="fill:#f5f5f5;stroke:#1d1d1b;stroke-linejoin:round;stroke-width:2px"/><ellipse cx="631" cy="313.78" rx="4.57" ry="6.73" style="fill:#f5f5f5;stroke:#1d1d1b;stroke-linejoin:round;stroke-width:2px"/><ellipse cx="631" cy="338.25" rx="4.57" ry="6.73" style="fill:#f5f5f5;stroke:#1d1d1b;stroke-linejoin:round;stroke-width:2px"/><ellipse cx="639.65" cy="317.36" rx="6.73" ry="4.57" transform="translate(-37.06 545.25) rotate(-45)" style="fill:#f5f5f5;stroke:#1d1d1b;stroke-linejoin:round;stroke-width:2px"/><ellipse cx="622.34" cy="334.66" rx="6.73" ry="4.57" transform="translate(-54.36 538.08) rotate(-45)" style="fill:#f5f5f5;stroke:#1d1d1b;stroke-linejoin:round;stroke-width:2px"/><ellipse cx="643.23" cy="326.01" rx="6.73" ry="4.57" style="fill:#f5f5f5;stroke:#1d1d1b;stroke-linejoin:round;stroke-width:2px"/><ellipse cx="618.76" cy="326.01" rx="6.73" ry="4.57" style="fill:#f5f5f5;stroke:#1d1d1b;stroke-linejoin:round;stroke-width:2px"/><ellipse cx="639.65" cy="334.66" rx="4.57" ry="6.73" transform="translate(-49.29 550.32) rotate(-45)" style="fill:#f5f5f5;stroke:#1d1d1b;stroke-linejoin:round;stroke-width:2px"/><ellipse cx="622.34" cy="317.36" rx="4.57" ry="6.73" transform="translate(-42.13 533.02) rotate(-45)" style="fill:#f5f5f5;stroke:#1d1d1b;stroke-linejoin:round;stroke-width:2px"/><circle cx="631" cy="326.01" r="8.29" style="fill:#f5f5f5;stroke:#1d1d1b;stroke-linejoin:round;stroke-width:2px"/><path d="M745,283.37s-29.29-6.22-38.37-5.15a93.2,93.2,0,0,0-17,3.74L685,267.54s14.72-1.34,20.84-1.07S745,271.62,745,271.62" style="fill:#f5f5f5;stroke:#1d1d1b;stroke-linejoin:round;stroke-width:2px"/><polygon points="684.58 280.93 645.69 291 644.25 286.94 680.86 270.46 684.58 280.93" style="fill:#f5f5f5;stroke:#1d1d1b;stroke-linejoin:round;stroke-width:2px"/><ellipse cx="644.47" cy="289.27" rx="0.89" ry="2.69" transform="translate(-59.68 232.73) rotate(-19.58)" style="fill:#f5f5f5;stroke:#1d1d1b;stroke-linejoin:round;stroke-width:2px"/><path d="M689.26,282.31s-3.31,2.92-6.15,2.19-6.42-11.81-5.36-15.07,6.15-2.19,6.15-2.19Z" style="fill:#f5f5f5;stroke:#1d1d1b;stroke-linejoin:round;stroke-width:2px"/><rect x="685.96" y="264.46" width="2.91" height="20.31" transform="translate(-52.74 263.89) rotate(-20.95)" style="fill:#f5f5f5;stroke:#1d1d1b;stroke-linejoin:round;stroke-width:2px"/><path d="M650.32,310.15c0.6,3.27-1.63,4.61-3.64,4.61a3.74,3.74,0,0,1-3.64-4.61c0.72-2.66,3.15-6.83,3.64-6.83C647.36,303.32,649.72,306.88,650.32,310.15Z" style="fill:#f5f5f5;stroke:#1d1d1b;stroke-linejoin:round;stroke-width:2px"/><path d="M640.15,316.84c0.6,3.27-1.63,4.61-3.64,4.61a3.74,3.74,0,0,1-3.64-4.61c0.72-2.66,3.15-6.83,3.64-6.83C637.19,310,639.55,313.57,640.15,316.84Z" style="fill:#f5f5f5;stroke:#1d1d1b;stroke-linejoin:round;stroke-width:2px"/><path d="M642.84,300.19a2.91,2.91,0,0,1-3,3.77,3.06,3.06,0,0,1-3-3.77c0.59-2.17,2.58-5.59,3-5.59C640.41,294.6,642.34,297.52,642.84,300.19Z" style="fill:#f5f5f5;stroke:#1d1d1b;stroke-linejoin:round;stroke-width:2px"/><path d="M228.19,372.35c-3.92,8-28.91,9.26-34.82,0l2.32-36.17c8.14,5.38,30.17,0,30.17,0Z" style="fill:#f5f5f5;stroke:#1d1d1b;stroke-linejoin:round;stroke-width:2px"/><ellipse cx="210.93" cy="336.18" rx="14.94" ry="4.74" style="fill:#f5f5f5;stroke:#1d1d1b;stroke-linejoin:round;stroke-width:2px"/><path d="M222,332.62c-2.54,5.15-18.71,6-22.53,0l1.5-23.4c5.26,3.48,19.52,0,19.52,0Z" style="fill:#f5f5f5;stroke:#1d1d1b;stroke-linejoin:round;stroke-width:2px"/><ellipse cx="210.88" cy="309.22" rx="9.67" ry="3.06" style="fill:#f5f5f5;stroke:#1d1d1b;stroke-linejoin:round;stroke-width:2px"/><rect x="219.66" y="360.36" width="37.27" height="6.26" transform="translate(-184.88 264.31) rotate(-43.56)" style="fill:#f5f5f5;stroke:#1d1d1b;stroke-linejoin:round;stroke-width:2px"/><path d="M258.18,334.39l10.38,10.91s-9,11.57-11.86,11.28-10-7.33-10.38-10.91S258.18,334.39,258.18,334.39Z" style="fill:#f5f5f5;stroke:#1d1d1b;stroke-linejoin:round;stroke-width:2px"/><path d="M257.64,339l6.16,6.48s-3.43,6.41-6.75,6.41-5.82-3.78-6.16-6.48S257.64,339,257.64,339Z" style="fill:#f5f5f5;stroke:#1d1d1b;stroke-linejoin:round;stroke-width:2px"/><path d="M216.84,368c9.77-2.93,19,9.71,15.89,16.71S211.5,401,211.5,401L198.44,387.3S207.07,370.91,216.84,368Z" style="fill:#f5f5f5;stroke:#1d1d1b;stroke-linejoin:round;stroke-width:2px"/><path d="M216.84,368c9.77-2.93,19,9.71,15.89,16.71S211.5,401,211.5,401L198.44,387.3S207.07,370.91,216.84,368Z" style="fill:#f5f5f5;stroke:#1d1d1b;stroke-linejoin:round;stroke-width:2px"/><path d="M213,371.4c7.72-2.31,15,7.67,12.55,13.2s-16.78,12.9-16.78,12.9l-10.31-10.84S205.26,373.72,213,371.4Z" style="fill:#f5f5f5;stroke:#1d1d1b;stroke-linejoin:round;stroke-width:2px"/><polygon points="625.13 232.05 632.36 232.78 613.7 152.17 610.12 152.85 625.13 232.05" style="fill:#f5f5f5;stroke:#1a171b;stroke-linecap:round;stroke-linejoin:round;stroke-width:2px"/><polygon points="565.07 208.34 570.96 208.94 559.72 147.31 556.8 147.86 565.07 208.34" style="fill:#f5f5f5;stroke:#1a171b;stroke-linecap:round;stroke-linejoin:round;stroke-width:2px"/><polygon points="539.22 228.79 530.91 227.31 556.01 146.21 556.36 146.21 556.36 145.72 613.7 152.17 613.7 159.32 613.58 159.31 612.12 246.27 601.91 244.45 609.52 158.85 557.31 152.98 539.22 228.79" style="fill:#f5f5f5;stroke:#1a171b;stroke-linecap:round;stroke-linejoin:round;stroke-width:2px"/><polygon points="568.23 214.06 591.33 220.99 598.14 214.82 574.55 210.04 568.23 214.06" style="fill:#f5f5f5;stroke:#1a171b;stroke-linecap:round;stroke-linejoin:round;stroke-width:2px"/><line x1="596.07" y1="156.67" x2="595.29" y2="217.4" style="fill:#f5f5f5;stroke:#1a171b;stroke-linecap:round;stroke-linejoin:round;stroke-width:2px"/><line x1="577.11" y1="155.52" x2="572.3" y2="211.47" style="fill:#f5f5f5;stroke:#1a171b;stroke-linecap:round;stroke-linejoin:round;stroke-width:2px"/></svg>