<svg xmlns="http://www.w3.org/2000/svg" xmlns:xlink="http://www.w3.org/1999/xlink" width="297mm" height="210mm" viewBox="0 0 841.89 595.28"><defs><linearGradient id="a" x1="764.9" y1="569.54" x2="764.9" y2="337.42" gradientUnits="userSpaceOnUse"><stop offset="0" stop-color="#262050"/><stop offset="0" stop-color="#27265b"/><stop offset="0.02" stop-color="#293576"/><stop offset="0.03" stop-color="#2b3f89"/><stop offset="0.04" stop-color="#2c4594"/><stop offset="0.05" stop-color="#2c4798"/><stop offset="0.13" stop-color="#8fc8ee"/><stop offset="0.24" stop-color="#4daf49"/><stop offset="0.36" stop-color="#ffed00"/><stop offset="0.58" stop-color="#f1a137"/><stop offset="1" stop-color="#e13130"/></linearGradient></defs><title>alter</title><circle cx="277.01" cy="184.66" r="40.27" style="fill:#dfdb00;opacity:0.5"/><circle cx="210.09" cy="291.56" r="40.27" style="fill:#008a2e;opacity:0.5"/><circle cx="338.12" cy="177.84" r="40.27" style="fill:#009036;opacity:0.5"/><circle cx="462.5" cy="138.36" r="40.27" style="fill:#dfdb00;opacity:0.5"/><circle cx="375.78" cy="247.55" r="25.07" style="fill:#e7511e;opacity:0.5"/><circle cx="338.88" cy="247.55" r="25.07" style="fill:#e5352d;opacity:0.5"/><circle cx="625.43" cy="229.22" r="25.07" style="fill:#ffed00;opacity:0.5"/><circle cx="650.5" cy="229.22" r="25.07" style="fill:#0c3183;opacity:0.67"/><circle cx="179.21" cy="415.19" r="25.07" style="fill:#0c3183;opacity:0.5"/><circle cx="204.28" cy="415.19" r="25.07" style="fill:#ffed00;opacity:0.5"/><rect x="755.01" y="338.1" width="19.78" height="223.6" style="fill:url(#a)"/><path d="M782.62,346V340.8a4.6,4.6,0,0,1-1.48.29l-0.07-1.22a2.91,2.91,0,0,0,2-.79h1V346h-1.43Z"/><path d="M785.29,342.52c0-2.28.66-3.56,2.56-3.56s2.43,1.29,2.43,3.48c0,2.38-.62,3.66-2.53,3.66S785.29,344.81,785.29,342.52Zm3.46,0c0-1.72-.15-2.4-0.93-2.4s-1,.68-1,2.43,0.17,2.45,1,2.45S788.75,344.27,788.75,342.5Z"/><path d="M790.87,342.52c0-2.28.66-3.56,2.56-3.56s2.43,1.29,2.43,3.48c0,2.38-.62,3.66-2.53,3.66S790.87,344.81,790.87,342.52Zm3.46,0c0-1.72-.15-2.4-0.93-2.4s-1,.68-1,2.43,0.17,2.45,1,2.45S794.33,344.27,794.33,342.5Z"/><path d="M782.35,365.55a0.89,0.89,0,0,0,.91.92c0.84,0,1.21-1,1.23-2.18a2.31,2.31,0,0,1-1.5.5,1.77,1.77,0,0,1-1.86-2,2.19,2.19,0,0,1,2.39-2.34c1.85,0,2.34,1.5,2.34,3.39,0,1.69-.41,3.75-2.64,3.75a1.9,1.9,0,0,1-2.15-1.64Zm1.09-4a0.92,0.92,0,0,0-.85,1.14c0,0.69.24,1.06,0.82,1.06a1.53,1.53,0,0,0,1-.43C784.37,362.31,784.24,361.53,783.44,361.53Z"/><path d="M786.58,364c0-2.28.66-3.56,2.56-3.56s2.43,1.29,2.43,3.48c0,2.38-.62,3.66-2.53,3.66S786.58,366.27,786.58,364Zm3.46,0c0-1.72-.15-2.4-0.93-2.4s-1,.68-1,2.43,0.17,2.45,1,2.45S790,365.73,790,364Z"/><path d="M786,387c0,1.1-1,2-2.6,2s-2.42-.84-2.42-1.8a1.91,1.91,0,0,1,1.33-1.85,1.67,1.67,0,0,1-1.06-1.59c0-1.19,1-1.9,2.36-1.9s2.21,0.65,2.21,1.61A1.88,1.88,0,0,0,786,387Zm-3.62,0a0.85,0.85,0,0,0,1,.86,0.89,0.89,0,0,0,1-.85c0-.66-0.62-0.92-1.27-1.17A1.3,1.3,0,0,0,782.39,387.08Zm2.05-3.46a0.69,0.69,0,0,0-.86-0.69,0.72,0.72,0,0,0-.85.66A0.88,0.88,0,1,0,784.44,383.61Z"/><path d="M786.5,385.44c0-2.28.66-3.56,2.56-3.56s2.43,1.29,2.43,3.48c0,2.38-.62,3.66-2.53,3.66S786.5,387.73,786.5,385.44Zm3.46,0c0-1.72-.15-2.4-0.93-2.4s-1,.68-1,2.43,0.17,2.45,1,2.45S790,387.19,790,385.43Z"/><path d="M781.45,410.39l2.66-5.67h-3v-1.24h4.53v1.11L783,410.39h-1.53Z"/><path d="M786,406.91c0-2.28.66-3.56,2.56-3.56s2.43,1.29,2.43,3.48c0,2.38-.62,3.66-2.53,3.66S786,409.2,786,406.91Zm3.46,0c0-1.72-.15-2.4-0.93-2.4s-1,.68-1,2.43,0.17,2.45,1,2.45S789.47,408.65,789.47,406.89Z"/><path d="M784.64,426.77a0.77,0.77,0,0,0-.81-0.84c-0.86,0-1.21,1.14-1.22,2.19a2.29,2.29,0,0,1,1.49-.52,1.76,1.76,0,0,1,1.86,2,2.16,2.16,0,0,1-2.35,2.37c-1.91,0-2.38-1.5-2.38-3.39,0-1.61.51-3.75,2.72-3.75a1.81,1.81,0,0,1,2,1.6Zm-1,4.09a0.94,0.94,0,0,0,.85-1.16c0-.69-0.22-1-0.81-1a1.7,1.7,0,0,0-1,.43C782.71,430,782.85,430.86,783.65,430.86Z"/><path d="M786.59,428.37c0-2.28.66-3.56,2.56-3.56s2.43,1.29,2.43,3.48c0,2.38-.62,3.66-2.53,3.66S786.59,430.66,786.59,428.37Zm3.46,0c0-1.72-.15-2.4-0.93-2.4s-1,.68-1,2.43,0.17,2.45,1,2.45S790.05,430.11,790.05,428.35Z"/><path d="M781.65,446.4h3.63v1.24H782.7l-0.16,1.73a1.91,1.91,0,0,1,1.32-.46c1,0,1.83.6,1.83,2.11a2.26,2.26,0,0,1-2.47,2.4,2,2,0,0,1-2.25-1.77l1.25-.26a0.91,0.91,0,0,0,1,.9,1,1,0,0,0,1-1.21,0.87,0.87,0,0,0-.92-1.06,1.47,1.47,0,0,0-1,.46l-0.93-.39Z"/><path d="M786.42,449.83c0-2.28.66-3.56,2.56-3.56s2.43,1.29,2.43,3.48c0,2.38-.62,3.66-2.53,3.66S786.42,452.12,786.42,449.83Zm3.46,0c0-1.72-.15-2.4-0.93-2.4s-1,.68-1,2.43,0.17,2.45,1,2.45S789.88,451.58,789.88,449.81Z"/><path d="M784.13,474.76v-1.54H781v-1l2.74-4.34h1.75v4.2h0.77v1.16h-0.78v1.54h-1.39Zm0-2.71v-2.88l-1.82,2.88h1.82Z"/><path d="M786.77,471.29c0-2.28.66-3.56,2.56-3.56s2.43,1.29,2.43,3.48c0,2.38-.62,3.66-2.53,3.66S786.77,473.58,786.77,471.29Zm3.46,0c0-1.72-.15-2.4-0.93-2.4s-1,.68-1,2.43,0.17,2.45,1,2.45S790.23,473,790.23,471.27Z"/><path d="M782.26,494.32a0.87,0.87,0,0,0,1,.91,1,1,0,1,0-.14-2h-0.68v-1.09h0.45a1.06,1.06,0,0,0,1.25-1,0.67,0.67,0,0,0-.78-0.76,0.89,0.89,0,0,0-1,.86l-1.24-.25a2.1,2.1,0,0,1,2.33-1.72c1.33,0,2.07.62,2.07,1.68a1.73,1.73,0,0,1-1.3,1.63v0a1.62,1.62,0,0,1,1.44,1.73c0,1.28-1,2.07-2.44,2.07a2,2,0,0,1-2.26-1.78Z"/><path d="M786.37,492.75c0-2.28.66-3.56,2.56-3.56s2.43,1.29,2.43,3.48c0,2.38-.62,3.66-2.53,3.66S786.37,495,786.37,492.75Zm3.46,0c0-1.72-.15-2.4-0.93-2.4s-1,.68-1,2.43,0.17,2.45,1,2.45S789.83,494.5,789.83,492.74Z"/><path d="M785.5,512.44c0,1-.47,1.62-1.49,2.74l-1.13,1.24v0h2.72v1.24H781.2v-1.2l1.48-1.73c0.87-1,1.37-1.54,1.37-2.24a0.67,0.67,0,0,0-.77-0.72,0.94,0.94,0,0,0-.94,1l-1.3-.22a2.11,2.11,0,0,1,2.38-1.94C784.79,510.66,785.5,511.31,785.5,512.44Z"/><path d="M786.25,514.22c0-2.28.66-3.56,2.56-3.56s2.43,1.29,2.43,3.48c0,2.38-.62,3.66-2.53,3.66S786.25,516.51,786.25,514.22Zm3.46,0c0-1.72-.15-2.4-0.93-2.4s-1,.68-1,2.43,0.17,2.45,1,2.45S789.71,516,789.71,514.2Z"/><path d="M782.62,539.15V534a4.6,4.6,0,0,1-1.48.29L781.08,533a2.91,2.91,0,0,0,2-.79h1v6.9h-1.43Z"/><path d="M785.29,535.68c0-2.28.66-3.56,2.56-3.56s2.43,1.29,2.43,3.48c0,2.38-.62,3.66-2.53,3.66S785.29,538,785.29,535.68Zm3.46,0c0-1.72-.15-2.4-0.93-2.4s-1,.68-1,2.43,0.17,2.45,1,2.45S788.75,537.42,788.75,535.66Z"/><path d="M781.08,557.14c0-2.28.66-3.56,2.56-3.56s2.43,1.29,2.43,3.48c0,2.38-.62,3.66-2.53,3.66S781.08,559.43,781.08,557.14Zm3.46,0c0-1.72-.15-2.4-0.93-2.4s-1,.68-1,2.43,0.17,2.45,1,2.45S784.54,558.89,784.54,557.12Z"/></svg>