<svg xmlns="http://www.w3.org/2000/svg" width="297mm" height="210mm" viewBox="0 0 841.89 595.28"><title>background</title><polygon points="259.81 310.31 259.81 370.35 301.16 370.35 301.16 368.11 262.1 368.11 262.1 312.49 301.16 312.49 301.16 310.31 259.81 310.31" style="fill-rule:evenodd"/><rect x="311.86" y="368.11" width="26.26" height="2.24"/><rect x="311.86" y="310.31" width="26.26" height="2.17"/><polygon points="378.73 370.35 544.32 370.35 544.32 310.31 382.39 310.31 382.39 312.49 542.15 312.49 542.15 368.11 378.73 368.11 378.73 370.35" style="fill-rule:evenodd"/><rect x="348.8" y="368.11" width="29.93" height="2.24"/><rect x="348.8" y="310.31" width="29.47" height="2.17"/><circle cx="374.55" cy="423.55" r="24.25" style="fill:none;stroke:#000;stroke-linecap:round;stroke-linejoin:round;stroke-width:0.368504px"/><rect x="369.22" y="378.24" width="29.91" height="9.4" style="fill:none"/><circle cx="494.36" cy="383.33" r="4.7" style="fill:none;stroke:#000;stroke-linecap:round;stroke-linejoin:round;stroke-width:0.141732px"/><circle cx="422.28" cy="463.97" r="16.17" style="fill:none;stroke:#000;stroke-linecap:round;stroke-linejoin:round;stroke-width:0.141732px"/><circle cx="515.43" cy="418.16" r="18.73" style="fill:none;stroke:#000;stroke-linecap:round;stroke-linejoin:round;stroke-width:0.141732px"/><polygon points="385.15 330.47 367.91 330.47 367.91 367.14 541.11 367.14 541.11 313.34 406.81 313.34 385.15 313.34 385.15 330.47" style="fill:#e5e5e5;stroke:#000;stroke-linecap:round;stroke-linejoin:round;stroke-width:0.368504px"/><polygon points="402.4 297.84 402.4 266.3 543.46 266.3 543.46 309.34 402.4 309.34 385.13 309.34 385.13 297.84 402.4 297.84" style="fill:#e5e5e5;stroke:#000;stroke-linecap:round;stroke-linejoin:round;stroke-width:0.368504px"/><line x1="278.48" y1="383.58" x2="351.65" y2="383.58" style="fill:none;stroke:#000;stroke-linecap:round;stroke-linejoin:round;stroke-width:0.368504px"/><line x1="259.81" y1="376.64" x2="544.32" y2="376.64" style="fill:none;stroke:#000;stroke-linecap:round;stroke-linejoin:round;stroke-width:0.368504px"/><line x1="259.81" y1="376.64" x2="259.81" y2="370.35" style="fill:none;stroke:#000;stroke-linecap:round;stroke-linejoin:round;stroke-width:0.368504px"/><line x1="351.65" y1="383.58" x2="351.65" y2="376.64" style="fill:none;stroke:#000;stroke-linecap:round;stroke-linejoin:round;stroke-width:0.368504px"/><line x1="544.32" y1="376.64" x2="544.32" y2="370.35" style="fill:none;stroke:#000;stroke-linecap:round;stroke-linejoin:round;stroke-width:0.368504px"/><line x1="259.81" y1="310.31" x2="259.81" y2="260.96" style="fill:none;stroke:#000;stroke-linecap:round;stroke-linejoin:round;stroke-width:0.368504px"/><line x1="544.32" y1="310.31" x2="544.32" y2="260.96" style="fill:none;stroke:#000;stroke-linecap:round;stroke-linejoin:round;stroke-width:0.368504px"/><line x1="259.81" y1="265.61" x2="544.32" y2="265.61" style="fill:none;stroke:#000;stroke-linecap:round;stroke-linejoin:round;stroke-width:0.368504px"/><line x1="259.81" y1="260.96" x2="544.32" y2="260.96" style="fill:none;stroke:#000;stroke-linecap:round;stroke-linejoin:round;stroke-width:0.368504px"/><line x1="323.68" y1="260.96" x2="323.68" y2="265.61" style="fill:none;stroke:#000;stroke-linecap:round;stroke-linejoin:round;stroke-width:0.368504px"/><line x1="349.53" y1="265.61" x2="349.53" y2="260.96" style="fill:none;stroke:#000;stroke-linecap:round;stroke-linejoin:round;stroke-width:0.368504px"/><line x1="291.68" y1="260.96" x2="291.68" y2="265.61" style="fill:none;stroke:#000;stroke-linecap:round;stroke-linejoin:round;stroke-width:0.368504px"/><line x1="317.28" y1="265.61" x2="317.28" y2="260.96" style="fill:none;stroke:#000;stroke-linecap:round;stroke-linejoin:round;stroke-width:0.368504px"/><line x1="285.18" y1="265.61" x2="285.18" y2="260.96" style="fill:none;stroke:#000;stroke-linecap:round;stroke-linejoin:round;stroke-width:0.368504px"/><line x1="355.81" y1="260.96" x2="355.81" y2="265.61" style="fill:none;stroke:#000;stroke-linecap:round;stroke-linejoin:round;stroke-width:0.368504px"/><line x1="254.25" y1="383.58" x2="254.25" y2="265.61" style="fill:none;stroke:#000;stroke-linecap:round;stroke-linejoin:round;stroke-width:0.368504px"/><line x1="559.48" y1="265.88" x2="737.38" y2="265.88" style="fill:none;stroke:#000;stroke-linecap:round;stroke-linejoin:round;stroke-width:0.368504px"/><line x1="559.48" y1="303.94" x2="730.07" y2="303.94" style="fill:none;stroke:#000;stroke-linecap:round;stroke-linejoin:round;stroke-width:0.368504px"/><line x1="559.48" y1="307.36" x2="651.16" y2="307.36" style="fill:none;stroke:#000;stroke-linecap:round;stroke-linejoin:round;stroke-width:0.368504px"/><line x1="559.48" y1="341.99" x2="651.16" y2="341.99" style="fill:none;stroke:#000;stroke-linecap:round;stroke-linejoin:round;stroke-width:0.368504px"/><line x1="559.48" y1="345.41" x2="665.96" y2="345.41" style="fill:none;stroke:#000;stroke-linecap:round;stroke-linejoin:round;stroke-width:0.368504px"/><line x1="559.48" y1="377.46" x2="715.96" y2="377.46" style="fill:none;stroke:#000;stroke-linecap:round;stroke-linejoin:round;stroke-width:0.368504px"/><line x1="559.48" y1="380.87" x2="716.46" y2="380.87" style="fill:none;stroke:#000;stroke-linecap:round;stroke-linejoin:round;stroke-width:0.368504px"/><line x1="651.16" y1="307.36" x2="651.16" y2="341.99" style="fill:none;stroke:#000;stroke-linecap:round;stroke-linejoin:round;stroke-width:0.368504px"/><line x1="686.26" y1="307.36" x2="686.26" y2="335.34" style="fill:none;stroke:#000;stroke-linecap:round;stroke-linejoin:round;stroke-width:0.368504px"/><line x1="686.26" y1="335.34" x2="670.74" y2="335.34" style="fill:none;stroke:#000;stroke-linecap:round;stroke-linejoin:round;stroke-width:0.368504px"/><line x1="670.74" y1="335.34" x2="671.73" y2="341.99" style="fill:none;stroke:#000;stroke-linecap:round;stroke-linejoin:round;stroke-width:0.368504px"/><line x1="665.96" y1="345.41" x2="670.74" y2="377.46" style="fill:none;stroke:#000;stroke-linecap:round;stroke-linejoin:round;stroke-width:0.368504px"/><line x1="686.26" y1="307.36" x2="729.42" y2="307.36" style="fill:none;stroke:#000;stroke-linecap:round;stroke-linejoin:round;stroke-width:0.368504px"/><line x1="671.73" y1="341.99" x2="722.77" y2="341.99" style="fill:none;stroke:#000;stroke-linecap:round;stroke-linejoin:round;stroke-width:0.368504px"/><line x1="672.24" y1="345.41" x2="722.11" y2="345.41" style="fill:none;stroke:#000;stroke-linecap:round;stroke-linejoin:round;stroke-width:0.368504px"/><line x1="672.24" y1="345.41" x2="677.02" y2="377.46" style="fill:none;stroke:#000;stroke-linecap:round;stroke-linejoin:round;stroke-width:0.368504px"/><line x1="737.38" y1="265.88" x2="730.07" y2="303.94" style="fill:none;stroke:#000;stroke-linecap:round;stroke-linejoin:round;stroke-width:0.368504px"/><line x1="729.42" y1="307.36" x2="722.77" y2="341.99" style="fill:none;stroke:#000;stroke-linecap:round;stroke-linejoin:round;stroke-width:0.368504px"/><line x1="722.11" y1="345.41" x2="715.96" y2="377.46" style="fill:none;stroke:#000;stroke-linecap:round;stroke-linejoin:round;stroke-width:0.368504px"/><line x1="546.61" y1="138.36" x2="559.48" y2="142.04" style="fill:none;stroke:#000;stroke-linecap:round;stroke-linejoin:round;stroke-width:0.368504px"/><line x1="546.61" y1="140.71" x2="559.48" y2="144.39" style="fill:none;stroke:#000;stroke-linecap:round;stroke-linejoin:round;stroke-width:0.368504px"/><line x1="466.33" y1="535.72" x2="465.97" y2="537.83" style="fill:none;stroke:#000;stroke-linecap:round;stroke-linejoin:round;stroke-width:0.368504px"/><line x1="254.25" y1="265.61" x2="158.67" y2="265.61" style="fill:none;stroke:#000;stroke-linecap:round;stroke-linejoin:round;stroke-width:0.368504px"/><line x1="269.11" y1="303.8" x2="259.81" y2="303.8" style="fill:none;stroke:#000;stroke-linecap:round;stroke-linejoin:round;stroke-width:0.368504px"/><line x1="269.11" y1="303.8" x2="269.11" y2="293.81" style="fill:none;stroke:#000;stroke-linecap:round;stroke-linejoin:round;stroke-width:0.368504px"/><line x1="267.76" y1="289.32" x2="259.81" y2="289.32" style="fill:none;stroke:#000;stroke-linecap:round;stroke-linejoin:round;stroke-width:0.368504px"/><line x1="267.76" y1="289.32" x2="267.76" y2="293.81" style="fill:none;stroke:#000;stroke-linecap:round;stroke-linejoin:round;stroke-width:0.368504px"/><line x1="266.48" y1="289.32" x2="266.48" y2="293.81" style="fill:none;stroke:#000;stroke-linecap:round;stroke-linejoin:round;stroke-width:0.368504px"/><line x1="265.19" y1="289.32" x2="265.19" y2="293.81" style="fill:none;stroke:#000;stroke-linecap:round;stroke-linejoin:round;stroke-width:0.368504px"/><line x1="263.91" y1="289.32" x2="263.91" y2="293.81" style="fill:none;stroke:#000;stroke-linecap:round;stroke-linejoin:round;stroke-width:0.368504px"/><line x1="262.63" y1="289.32" x2="262.63" y2="293.81" style="fill:none;stroke:#000;stroke-linecap:round;stroke-linejoin:round;stroke-width:0.368504px"/><line x1="261.35" y1="289.32" x2="261.35" y2="293.81" style="fill:none;stroke:#000;stroke-linecap:round;stroke-linejoin:round;stroke-width:0.368504px"/><line x1="269.11" y1="293.81" x2="259.81" y2="293.81" style="fill:none;stroke:#000;stroke-linecap:round;stroke-linejoin:round;stroke-width:0.368504px"/><line x1="422.69" y1="513.39" x2="424.51" y2="509.53" style="fill:none;stroke:#000;stroke-linecap:round;stroke-linejoin:round;stroke-width:0.368504px"/><line x1="423.27" y1="513.67" x2="425.09" y2="509.8" style="fill:none;stroke:#000;stroke-linecap:round;stroke-linejoin:round;stroke-width:0.368504px"/><line x1="278.48" y1="383.58" x2="278.48" y2="376.64" style="fill:none;stroke:#000;stroke-linecap:round;stroke-linejoin:round;stroke-width:0.368504px"/><line x1="254.25" y1="310.31" x2="142.44" y2="310.31" style="fill:none;stroke:#000;stroke-linecap:round;stroke-linejoin:round;stroke-width:0.368504px"/><line x1="357.33" y1="376.64" x2="357.33" y2="368.11" style="fill:none;stroke:#000;stroke-linecap:round;stroke-linejoin:round;stroke-width:0.368504px"/><line x1="363.52" y1="376.64" x2="363.52" y2="368.11" style="fill:none;stroke:#000;stroke-linecap:round;stroke-linejoin:round;stroke-width:0.368504px"/><line x1="357.33" y1="375.56" x2="363.52" y2="375.56" style="fill:none;stroke:#000;stroke-linecap:round;stroke-linejoin:round;stroke-width:0.368504px"/><line x1="357.33" y1="374.3" x2="363.52" y2="374.3" style="fill:none;stroke:#000;stroke-linecap:round;stroke-linejoin:round;stroke-width:0.368504px"/><line x1="357.33" y1="373.05" x2="363.52" y2="373.05" style="fill:none;stroke:#000;stroke-linecap:round;stroke-linejoin:round;stroke-width:0.368504px"/><line x1="357.33" y1="371.81" x2="363.52" y2="371.81" style="fill:none;stroke:#000;stroke-linecap:round;stroke-linejoin:round;stroke-width:0.368504px"/><line x1="357.33" y1="370.59" x2="363.52" y2="370.59" style="fill:none;stroke:#000;stroke-linecap:round;stroke-linejoin:round;stroke-width:0.368504px"/><line x1="487.44" y1="370.35" x2="487.44" y2="376.64" style="fill:none;stroke:#000;stroke-linecap:round;stroke-linejoin:round;stroke-width:0.368504px"/><line x1="509.85" y1="370.35" x2="509.85" y2="376.64" style="fill:none;stroke:#000;stroke-linecap:round;stroke-linejoin:round;stroke-width:0.368504px"/><line x1="260.07" y1="289.32" x2="260.07" y2="293.81" style="fill:none;stroke:#000;stroke-linecap:round;stroke-linejoin:round;stroke-width:0.368504px"/><line x1="259.81" y1="376.64" x2="259.81" y2="393.91" style="fill:none;stroke:#000;stroke-linecap:round;stroke-linejoin:round;stroke-width:0.368504px"/><line x1="428.34" y1="519.21" x2="426.68" y2="528.97" style="fill:none;stroke:#000;stroke-linecap:round;stroke-linejoin:round;stroke-width:0.368504px"/><line x1="424.51" y1="509.53" x2="425.09" y2="509.8" style="fill:none;stroke:#000;stroke-linecap:round;stroke-linejoin:round;stroke-width:0.368504px"/><line x1="422.69" y1="513.39" x2="423.27" y2="513.67" style="fill:none;stroke:#000;stroke-linecap:round;stroke-linejoin:round;stroke-width:0.368504px"/><line x1="419.66" y1="512.01" x2="421.39" y2="508.1" style="fill:none;stroke:#000;stroke-linecap:round;stroke-linejoin:round;stroke-width:0.368504px"/><line x1="420.25" y1="512.27" x2="421.97" y2="508.36" style="fill:none;stroke:#000;stroke-linecap:round;stroke-linejoin:round;stroke-width:0.368504px"/><line x1="421.39" y1="508.1" x2="421.97" y2="508.36" style="fill:none;stroke:#000;stroke-linecap:round;stroke-linejoin:round;stroke-width:0.368504px"/><line x1="419.66" y1="512.01" x2="420.25" y2="512.27" style="fill:none;stroke:#000;stroke-linecap:round;stroke-linejoin:round;stroke-width:0.368504px"/><line x1="416.6" y1="510.71" x2="418.23" y2="506.76" style="fill:none;stroke:#000;stroke-linecap:round;stroke-linejoin:round;stroke-width:0.368504px"/><line x1="417.19" y1="510.95" x2="418.82" y2="507" style="fill:none;stroke:#000;stroke-linecap:round;stroke-linejoin:round;stroke-width:0.368504px"/><line x1="418.23" y1="506.76" x2="418.82" y2="507" style="fill:none;stroke:#000;stroke-linecap:round;stroke-linejoin:round;stroke-width:0.368504px"/><line x1="416.6" y1="510.71" x2="417.19" y2="510.95" style="fill:none;stroke:#000;stroke-linecap:round;stroke-linejoin:round;stroke-width:0.368504px"/><line x1="413.51" y1="509.48" x2="415.04" y2="505.49" style="fill:none;stroke:#000;stroke-linecap:round;stroke-linejoin:round;stroke-width:0.368504px"/><line x1="414.11" y1="509.71" x2="415.64" y2="505.72" style="fill:none;stroke:#000;stroke-linecap:round;stroke-linejoin:round;stroke-width:0.368504px"/><line x1="415.04" y1="505.49" x2="415.64" y2="505.72" style="fill:none;stroke:#000;stroke-linecap:round;stroke-linejoin:round;stroke-width:0.368504px"/><line x1="413.51" y1="509.48" x2="414.11" y2="509.71" style="fill:none;stroke:#000;stroke-linecap:round;stroke-linejoin:round;stroke-width:0.368504px"/><line x1="410.39" y1="508.32" x2="411.82" y2="504.29" style="fill:none;stroke:#000;stroke-linecap:round;stroke-linejoin:round;stroke-width:0.368504px"/><line x1="410.99" y1="508.54" x2="412.42" y2="504.51" style="fill:none;stroke:#000;stroke-linecap:round;stroke-linejoin:round;stroke-width:0.368504px"/><line x1="411.82" y1="504.29" x2="412.42" y2="504.51" style="fill:none;stroke:#000;stroke-linecap:round;stroke-linejoin:round;stroke-width:0.368504px"/><line x1="410.39" y1="508.32" x2="410.99" y2="508.54" style="fill:none;stroke:#000;stroke-linecap:round;stroke-linejoin:round;stroke-width:0.368504px"/><line x1="407.24" y1="507.24" x2="408.57" y2="503.18" style="fill:none;stroke:#000;stroke-linecap:round;stroke-linejoin:round;stroke-width:0.368504px"/><line x1="407.85" y1="507.44" x2="409.18" y2="503.38" style="fill:none;stroke:#000;stroke-linecap:round;stroke-linejoin:round;stroke-width:0.368504px"/><line x1="408.57" y1="503.18" x2="409.18" y2="503.38" style="fill:none;stroke:#000;stroke-linecap:round;stroke-linejoin:round;stroke-width:0.368504px"/><line x1="407.24" y1="507.24" x2="407.85" y2="507.44" style="fill:none;stroke:#000;stroke-linecap:round;stroke-linejoin:round;stroke-width:0.368504px"/><line x1="404.06" y1="506.24" x2="405.3" y2="502.15" style="fill:none;stroke:#000;stroke-linecap:round;stroke-linejoin:round;stroke-width:0.368504px"/><line x1="404.68" y1="506.43" x2="405.91" y2="502.33" style="fill:none;stroke:#000;stroke-linecap:round;stroke-linejoin:round;stroke-width:0.368504px"/><line x1="405.3" y1="502.15" x2="405.91" y2="502.33" style="fill:none;stroke:#000;stroke-linecap:round;stroke-linejoin:round;stroke-width:0.368504px"/><line x1="404.06" y1="506.24" x2="404.68" y2="506.43" style="fill:none;stroke:#000;stroke-linecap:round;stroke-linejoin:round;stroke-width:0.368504px"/><line x1="400.86" y1="505.32" x2="402" y2="501.2" style="fill:none;stroke:#000;stroke-linecap:round;stroke-linejoin:round;stroke-width:0.368504px"/><line x1="401.48" y1="505.49" x2="402.62" y2="501.37" style="fill:none;stroke:#000;stroke-linecap:round;stroke-linejoin:round;stroke-width:0.368504px"/><line x1="402" y1="501.2" x2="402.62" y2="501.37" style="fill:none;stroke:#000;stroke-linecap:round;stroke-linejoin:round;stroke-width:0.368504px"/><line x1="400.86" y1="505.32" x2="401.48" y2="505.49" style="fill:none;stroke:#000;stroke-linecap:round;stroke-linejoin:round;stroke-width:0.368504px"/><line x1="397.64" y1="504.47" x2="398.68" y2="500.32" style="fill:none;stroke:#000;stroke-linecap:round;stroke-linejoin:round;stroke-width:0.368504px"/><line x1="398.27" y1="504.63" x2="399.3" y2="500.48" style="fill:none;stroke:#000;stroke-linecap:round;stroke-linejoin:round;stroke-width:0.368504px"/><line x1="398.68" y1="500.32" x2="399.3" y2="500.48" style="fill:none;stroke:#000;stroke-linecap:round;stroke-linejoin:round;stroke-width:0.368504px"/><line x1="397.64" y1="504.47" x2="398.27" y2="504.63" style="fill:none;stroke:#000;stroke-linecap:round;stroke-linejoin:round;stroke-width:0.368504px"/><line x1="394.4" y1="503.7" x2="395.34" y2="499.53" style="fill:none;stroke:#000;stroke-linecap:round;stroke-linejoin:round;stroke-width:0.368504px"/><line x1="395.03" y1="503.84" x2="395.96" y2="499.67" style="fill:none;stroke:#000;stroke-linecap:round;stroke-linejoin:round;stroke-width:0.368504px"/><line x1="395.34" y1="499.53" x2="395.96" y2="499.67" style="fill:none;stroke:#000;stroke-linecap:round;stroke-linejoin:round;stroke-width:0.368504px"/><line x1="394.4" y1="503.7" x2="395.03" y2="503.84" style="fill:none;stroke:#000;stroke-linecap:round;stroke-linejoin:round;stroke-width:0.368504px"/><line x1="391.15" y1="503.01" x2="391.98" y2="498.82" style="fill:none;stroke:#000;stroke-linecap:round;stroke-linejoin:round;stroke-width:0.368504px"/><line x1="391.78" y1="503.14" x2="392.61" y2="498.95" style="fill:none;stroke:#000;stroke-linecap:round;stroke-linejoin:round;stroke-width:0.368504px"/><line x1="391.98" y1="498.82" x2="392.61" y2="498.95" style="fill:none;stroke:#000;stroke-linecap:round;stroke-linejoin:round;stroke-width:0.368504px"/><line x1="391.15" y1="503.01" x2="391.78" y2="503.14" style="fill:none;stroke:#000;stroke-linecap:round;stroke-linejoin:round;stroke-width:0.368504px"/><line x1="387.88" y1="502.41" x2="388.61" y2="498.2" style="fill:none;stroke:#000;stroke-linecap:round;stroke-linejoin:round;stroke-width:0.368504px"/><line x1="388.51" y1="502.52" x2="389.24" y2="498.3" style="fill:none;stroke:#000;stroke-linecap:round;stroke-linejoin:round;stroke-width:0.368504px"/><line x1="388.61" y1="498.2" x2="389.24" y2="498.3" style="fill:none;stroke:#000;stroke-linecap:round;stroke-linejoin:round;stroke-width:0.368504px"/><line x1="387.88" y1="502.41" x2="388.51" y2="502.52" style="fill:none;stroke:#000;stroke-linecap:round;stroke-linejoin:round;stroke-width:0.368504px"/><line x1="384.59" y1="501.88" x2="385.22" y2="497.65" style="fill:none;stroke:#000;stroke-linecap:round;stroke-linejoin:round;stroke-width:0.368504px"/><line x1="385.22" y1="501.97" x2="385.85" y2="497.74" style="fill:none;stroke:#000;stroke-linecap:round;stroke-linejoin:round;stroke-width:0.368504px"/><line x1="385.22" y1="497.65" x2="385.85" y2="497.74" style="fill:none;stroke:#000;stroke-linecap:round;stroke-linejoin:round;stroke-width:0.368504px"/><line x1="384.59" y1="501.88" x2="385.22" y2="501.97" style="fill:none;stroke:#000;stroke-linecap:round;stroke-linejoin:round;stroke-width:0.368504px"/><line x1="381.29" y1="501.43" x2="381.81" y2="497.19" style="fill:none;stroke:#000;stroke-linecap:round;stroke-linejoin:round;stroke-width:0.368504px"/><line x1="381.93" y1="501.51" x2="382.45" y2="497.27" style="fill:none;stroke:#000;stroke-linecap:round;stroke-linejoin:round;stroke-width:0.368504px"/><line x1="381.81" y1="497.19" x2="382.45" y2="497.27" style="fill:none;stroke:#000;stroke-linecap:round;stroke-linejoin:round;stroke-width:0.368504px"/><line x1="381.29" y1="501.43" x2="381.93" y2="501.51" style="fill:none;stroke:#000;stroke-linecap:round;stroke-linejoin:round;stroke-width:0.368504px"/><line x1="377.98" y1="501.06" x2="378.4" y2="496.81" style="fill:none;stroke:#000;stroke-linecap:round;stroke-linejoin:round;stroke-width:0.368504px"/><line x1="378.62" y1="501.12" x2="379.04" y2="496.87" style="fill:none;stroke:#000;stroke-linecap:round;stroke-linejoin:round;stroke-width:0.368504px"/><line x1="378.4" y1="496.81" x2="379.04" y2="496.87" style="fill:none;stroke:#000;stroke-linecap:round;stroke-linejoin:round;stroke-width:0.368504px"/><line x1="377.98" y1="501.06" x2="378.62" y2="501.12" style="fill:none;stroke:#000;stroke-linecap:round;stroke-linejoin:round;stroke-width:0.368504px"/><line x1="374.66" y1="500.77" x2="374.98" y2="496.51" style="fill:none;stroke:#000;stroke-linecap:round;stroke-linejoin:round;stroke-width:0.368504px"/><line x1="375.3" y1="500.82" x2="375.62" y2="496.56" style="fill:none;stroke:#000;stroke-linecap:round;stroke-linejoin:round;stroke-width:0.368504px"/><line x1="374.98" y1="496.51" x2="375.62" y2="496.56" style="fill:none;stroke:#000;stroke-linecap:round;stroke-linejoin:round;stroke-width:0.368504px"/><line x1="374.66" y1="500.77" x2="375.3" y2="500.82" style="fill:none;stroke:#000;stroke-linecap:round;stroke-linejoin:round;stroke-width:0.368504px"/><line x1="371.34" y1="500.57" x2="371.56" y2="496.3" style="fill:none;stroke:#000;stroke-linecap:round;stroke-linejoin:round;stroke-width:0.368504px"/><line x1="371.98" y1="500.6" x2="372.2" y2="496.33" style="fill:none;stroke:#000;stroke-linecap:round;stroke-linejoin:round;stroke-width:0.368504px"/><line x1="371.56" y1="496.3" x2="372.2" y2="496.33" style="fill:none;stroke:#000;stroke-linecap:round;stroke-linejoin:round;stroke-width:0.368504px"/><line x1="371.34" y1="500.57" x2="371.98" y2="500.6" style="fill:none;stroke:#000;stroke-linecap:round;stroke-linejoin:round;stroke-width:0.368504px"/><line x1="368.02" y1="500.44" x2="368.12" y2="496.17" style="fill:none;stroke:#000;stroke-linecap:round;stroke-linejoin:round;stroke-width:0.368504px"/><line x1="368.66" y1="500.46" x2="368.77" y2="496.19" style="fill:none;stroke:#000;stroke-linecap:round;stroke-linejoin:round;stroke-width:0.368504px"/><line x1="368.12" y1="496.17" x2="368.77" y2="496.19" style="fill:none;stroke:#000;stroke-linecap:round;stroke-linejoin:round;stroke-width:0.368504px"/><line x1="368.02" y1="500.44" x2="368.66" y2="500.46" style="fill:none;stroke:#000;stroke-linecap:round;stroke-linejoin:round;stroke-width:0.368504px"/><line x1="364.69" y1="500.4" x2="364.69" y2="496.12" style="fill:none;stroke:#000;stroke-linecap:round;stroke-linejoin:round;stroke-width:0.368504px"/><line x1="365.33" y1="500.4" x2="365.33" y2="496.12" style="fill:none;stroke:#000;stroke-linecap:round;stroke-linejoin:round;stroke-width:0.368504px"/><line x1="364.69" y1="496.12" x2="365.33" y2="496.12" style="fill:none;stroke:#000;stroke-linecap:round;stroke-linejoin:round;stroke-width:0.368504px"/><line x1="364.69" y1="500.4" x2="365.33" y2="500.4" style="fill:none;stroke:#000;stroke-linecap:round;stroke-linejoin:round;stroke-width:0.368504px"/><line x1="361.36" y1="500.43" x2="361.26" y2="496.16" style="fill:none;stroke:#000;stroke-linecap:round;stroke-linejoin:round;stroke-width:0.368504px"/><line x1="362" y1="500.42" x2="361.9" y2="496.15" style="fill:none;stroke:#000;stroke-linecap:round;stroke-linejoin:round;stroke-width:0.368504px"/><line x1="361.26" y1="496.16" x2="361.9" y2="496.15" style="fill:none;stroke:#000;stroke-linecap:round;stroke-linejoin:round;stroke-width:0.368504px"/><line x1="361.36" y1="500.43" x2="362" y2="500.42" style="fill:none;stroke:#000;stroke-linecap:round;stroke-linejoin:round;stroke-width:0.368504px"/><line x1="358.03" y1="500.55" x2="357.83" y2="496.28" style="fill:none;stroke:#000;stroke-linecap:round;stroke-linejoin:round;stroke-width:0.368504px"/><line x1="358.67" y1="500.52" x2="358.47" y2="496.25" style="fill:none;stroke:#000;stroke-linecap:round;stroke-linejoin:round;stroke-width:0.368504px"/><line x1="357.83" y1="496.28" x2="358.47" y2="496.25" style="fill:none;stroke:#000;stroke-linecap:round;stroke-linejoin:round;stroke-width:0.368504px"/><line x1="358.03" y1="500.55" x2="358.67" y2="500.52" style="fill:none;stroke:#000;stroke-linecap:round;stroke-linejoin:round;stroke-width:0.368504px"/><line x1="253.59" y1="474.15" x2="249.04" y2="500.89" style="fill:none;stroke:#000;stroke-linecap:round;stroke-linejoin:round;stroke-width:0.368504px"/><line x1="277.81" y1="484.05" x2="274.21" y2="505.18" style="fill:none;stroke:#000;stroke-linecap:round;stroke-linejoin:round;stroke-width:0.368504px"/><line x1="252.35" y1="476.58" x2="253.22" y2="476.36" style="fill:none;stroke:#000;stroke-linecap:round;stroke-linejoin:round;stroke-width:0.368504px"/><line x1="249.04" y1="500.89" x2="274.21" y2="505.18" style="fill:none;stroke:#000;stroke-linecap:round;stroke-linejoin:round;stroke-width:0.368504px"/><rect x="262.1" y="312.49" width="280.05" height="55.62" style="fill:none;stroke:#000;stroke-linecap:round;stroke-linejoin:round;stroke-width:0.368504px"/><rect x="259.81" y="310.31" width="284.5" height="60.03" style="fill:none;stroke:#000;stroke-linecap:round;stroke-linejoin:round;stroke-width:0.368504px"/><rect x="261.35" y="276.97" width="1.11" height="1.15" style="fill:none;stroke:#000;stroke-linecap:round;stroke-linejoin:round;stroke-width:0.368504px"/><rect x="278.88" y="276.97" width="1.11" height="1.15" style="fill:none;stroke:#000;stroke-linecap:round;stroke-linejoin:round;stroke-width:0.368504px"/><rect x="296.4" y="276.97" width="1.11" height="1.15" style="fill:none;stroke:#000;stroke-linecap:round;stroke-linejoin:round;stroke-width:0.368504px"/><rect x="313.92" y="276.97" width="1.11" height="1.15" style="fill:none;stroke:#000;stroke-linecap:round;stroke-linejoin:round;stroke-width:0.368504px"/><rect x="331.45" y="276.97" width="1.11" height="1.15" style="fill:none;stroke:#000;stroke-linecap:round;stroke-linejoin:round;stroke-width:0.368504px"/><rect x="348.97" y="276.97" width="1.11" height="1.15" style="fill:none;stroke:#000;stroke-linecap:round;stroke-linejoin:round;stroke-width:0.368504px"/><rect x="366.5" y="276.97" width="1.11" height="1.15" style="fill:none;stroke:#000;stroke-linecap:round;stroke-linejoin:round;stroke-width:0.368504px"/><rect x="384.02" y="276.97" width="1.11" height="1.15" style="fill:none;stroke:#000;stroke-linecap:round;stroke-linejoin:round;stroke-width:0.368504px"/><rect x="401.54" y="276.97" width="1.11" height="1.15" style="fill:none;stroke:#000;stroke-linecap:round;stroke-linejoin:round;stroke-width:0.368504px"/><rect x="419.07" y="276.97" width="1.11" height="1.15" style="fill:none;stroke:#000;stroke-linecap:round;stroke-linejoin:round;stroke-width:0.368504px"/><rect x="436.59" y="276.97" width="1.11" height="1.15" style="fill:none;stroke:#000;stroke-linecap:round;stroke-linejoin:round;stroke-width:0.368504px"/><rect x="454.12" y="276.97" width="1.11" height="1.15" style="fill:none;stroke:#000;stroke-linecap:round;stroke-linejoin:round;stroke-width:0.368504px"/><rect x="471.64" y="276.97" width="1.11" height="1.15" style="fill:none;stroke:#000;stroke-linecap:round;stroke-linejoin:round;stroke-width:0.368504px"/><rect x="489.16" y="276.97" width="1.11" height="1.15" style="fill:none;stroke:#000;stroke-linecap:round;stroke-linejoin:round;stroke-width:0.368504px"/><rect x="506.69" y="276.97" width="1.11" height="1.15" style="fill:none;stroke:#000;stroke-linecap:round;stroke-linejoin:round;stroke-width:0.368504px"/><rect x="524.21" y="276.97" width="1.11" height="1.15" style="fill:none;stroke:#000;stroke-linecap:round;stroke-linejoin:round;stroke-width:0.368504px"/><rect x="541.73" y="276.97" width="1.11" height="1.15" style="fill:none;stroke:#000;stroke-linecap:round;stroke-linejoin:round;stroke-width:0.368504px"/><rect x="385.13" y="266.29" width="16.41" height="30.69" style="fill:none;stroke:#000;stroke-linecap:round;stroke-linejoin:round;stroke-width:0.368504px"/><rect x="367.91" y="313.34" width="15.81" height="15.81" style="fill:none;stroke:#000;stroke-linecap:round;stroke-linejoin:round;stroke-width:0.368504px"/><rect x="262.96" y="313.34" width="103.24" height="53.91" style="fill:none;stroke:#000;stroke-linecap:round;stroke-linejoin:round;stroke-width:0.368504px"/><polygon points="241.52 31.13 329.82 58.41 525.93 121.99 560.13 132.08 650.14 159.53 759.94 183.15 750.37 232.95 742.07 262.95 719.09 378.5 704.4 456.38 539.12 456.38 507.15 544.85 81.35 472.33 241.52 31.13" style="fill:none;stroke:#000;stroke-linecap:round;stroke-linejoin:round;stroke-width:0.368504px"/><polyline points="74.79 495.44 425.03 557.03 579.46 583.69 650.58 595.28" style="fill:none;stroke:#b2b2b2;stroke-linecap:round;stroke-linejoin:round;stroke-width:0.368504px"/><polyline points="502.7 595.28 394.69 578.18 59.16 523.94 41.7 520.26 0 504.36" style="fill:none;stroke:#b2b2b2;stroke-linecap:round;stroke-linejoin:round;stroke-width:0.368504px"/><polyline points="74.79 495.44 24.23 486.25 0 477.29" style="fill:none;stroke:#b2b2b2;stroke-linecap:round;stroke-linejoin:round;stroke-width:0.368504px"/><line x1="31.59" y1="464.19" x2="1" y2="452.79" style="fill:none;stroke:#b2b2b2;stroke-linecap:round;stroke-linejoin:round;stroke-width:0.368504px"/><line x1="81.35" y1="472.34" x2="31.59" y2="464.19" style="fill:none;stroke:#b2b2b2;stroke-linecap:round;stroke-linejoin:round;stroke-width:0.368504px"/><polyline points="236.74 0 561.23 103.39 780.44 171.7 841.89 183.89" style="fill:none;stroke:#b2b2b2;stroke-linecap:round;stroke-linejoin:round;stroke-width:0.368504px"/><polyline points="399.98 0 537.4 44.62 841.89 128.35" style="fill:none;stroke:#b2b2b2;stroke-linecap:round;stroke-linejoin:round;stroke-width:0.368504px"/><polyline points="343.74 0 789.97 139.93 841.89 149.79" style="fill:none;stroke:#b2b2b2;stroke-linecap:round;stroke-linejoin:round;stroke-width:0.368504px"/><line x1="546.61" y1="140.71" x2="546.61" y2="376.64" style="fill:none;stroke:#000;stroke-linecap:round;stroke-linejoin:round;stroke-width:0.368504px"/><polyline points="559.48 144.38 559.48 262.46 739.99 262.95" style="fill:none;stroke:#000;stroke-linecap:round;stroke-linejoin:round;stroke-width:0.368504px"/><polyline points="559.48 142.03 696.45 178.81 739.65 187.08 758.49 190.7" style="fill:none;stroke:#000;stroke-linecap:round;stroke-linejoin:round;stroke-width:0.368504px"/><line x1="254.25" y1="383.58" x2="115.85" y2="383.58" style="fill:none;stroke:#000;stroke-linecap:round;stroke-linejoin:round;stroke-width:0.368504px"/><line x1="259.81" y1="260.96" x2="160.36" y2="260.96" style="fill:none;stroke:#000;stroke-linecap:round;stroke-linejoin:round;stroke-width:0.368504px"/><line x1="559.48" y1="265.88" x2="559.48" y2="303.94" style="fill:none;stroke:#000;stroke-linecap:round;stroke-linejoin:round;stroke-width:0.368504px"/><line x1="559.48" y1="307.36" x2="559.48" y2="341.99" style="fill:none;stroke:#000;stroke-linecap:round;stroke-linejoin:round;stroke-width:0.368504px"/><line x1="559.48" y1="345.41" x2="559.48" y2="377.46" style="fill:none;stroke:#000;stroke-linecap:round;stroke-linejoin:round;stroke-width:0.368504px"/><line x1="559.48" y1="380.87" x2="559.48" y2="392.07" style="fill:none;stroke:#000;stroke-linecap:round;stroke-linejoin:round;stroke-width:0.368504px"/><line x1="546.61" y1="138.36" x2="238.31" y2="39.95" style="fill:none;stroke:#000;stroke-linecap:round;stroke-linejoin:round;stroke-width:0.368504px"/><polyline points="755.96 192.56 748.28 232.46 739.99 262.46 716.99 378.09 702.63 454.24 537.62 454.24 505.75 542.44 84.23 470.66 239.59 42.71" style="fill:none;stroke:#000;stroke-linecap:round;stroke-linejoin:round;stroke-width:0.368504px"/><polyline points="559.48 144.38 696.45 181.16 739.65 189.43 755.96 192.56" style="fill:none;stroke:#000;stroke-linecap:round;stroke-linejoin:round;stroke-width:0.368504px"/><line x1="546.61" y1="140.71" x2="239.59" y2="42.71" style="fill:none;stroke:#000;stroke-linecap:round;stroke-linejoin:round;stroke-width:0.368504px"/><line x1="559.48" y1="392.07" x2="714.35" y2="392.07" style="fill:none;stroke:#000;stroke-linecap:round;stroke-linejoin:round;stroke-width:0.368504px"/><line x1="544.32" y1="376.64" x2="546.61" y2="376.64" style="fill:none;stroke:#000;stroke-linecap:round;stroke-linejoin:round;stroke-width:0.368504px"/><path d="M118.06,386.4L96.7,445.24c2,5.28,8,11.34,13.3,13.3,7.07,1.84,18.79.72,25.39-2.42,7.26-2.92,20.81-5,28.61-4.43,8,0.34,20.6,4.85,27,9.67L203.9,469c5.13,3.27,14.57,5.12,20.55,4l29.79-10.76V386.81Z" style="fill:none;stroke:#000;stroke-linecap:round;stroke-linejoin:round;stroke-width:0.368504px"/><path d="M89.26,456.82c3.3,4.38,10.63,8.33,16.1,8.69L116,466.06l11.93-1.68c7.11-2.33,20.18-3.48,27.6-2.42,8.65,0.38,22.48,5.09,29.56,10.08l13,5.77c4.87,1.22,14.41,3,19.39,3.54l18.27-2.61,17.9-4.6" style="fill:none;stroke:#000;stroke-linecap:round;stroke-linejoin:round;stroke-width:0.368504px"/><path d="M88.42,459.14c3.3,4.38,10.63,8.33,16.1,8.69l10.63,0.56,11.93-1.68c7.11-2.33,20.18-3.48,27.6-2.42,8.65,0.38,22.48,5.09,29.56,10.08l13,5.77c4.87,1.22,14.41,3,19.39,3.54l18.27-2.61,17.5-4.49" style="fill:none;stroke:#000;stroke-linecap:round;stroke-linejoin:round;stroke-width:0.368504px"/><rect x="369.22" y="378.24" width="29.91" height="9.4" style="fill:none;stroke:#000;stroke-linecap:round;stroke-linejoin:round;stroke-width:0.368504px"/><path d="M428.34,519.21c-18.19-11-52.08-18.21-73.16-15.59" style="fill:none;stroke:#000;stroke-linecap:round;stroke-linejoin:round;stroke-width:0.368504px"/><path d="M277.81,484.05c18.53,15.7,53.6,24.57,77.36,19.56" style="fill:none;stroke:#000;stroke-linecap:round;stroke-linejoin:round;stroke-width:0.368504px"/><path d="M428,521.32c-18.19-11-52.08-18.21-73.16-15.59" style="fill:none;stroke:#000;stroke-linecap:round;stroke-linejoin:round;stroke-width:0.368504px"/><path d="M277.45,486.16c18.54,15.61,53.63,24.48,77.36,19.56" style="fill:none;stroke:#000;stroke-linecap:round;stroke-linejoin:round;stroke-width:0.368504px"/><path d="M534.16,418.16a18.73,18.73,0,1,0-18.73,18.73,18.73,18.73,0,0,0,18.73-18.73h0Z" style="fill:none;stroke:#000;stroke-linecap:round;stroke-linejoin:round;stroke-width:0.368504px"/><line x1="259.81" y1="393.91" x2="360.69" y2="393.91" style="fill:none;stroke:#b2b2b2;stroke-linecap:round;stroke-linejoin:round;stroke-width:0.141732px;stroke-dasharray:1.3050199747085571,1.3050199747085571"/><line x1="360.69" y1="393.91" x2="366.53" y2="393.91" style="fill:none;stroke:#b2b2b2;stroke-linecap:round;stroke-linejoin:round;stroke-width:0.141732px;stroke-dasharray:1.3050199747085571,1.3050199747085571"/><line x1="366.53" y1="393.91" x2="415.26" y2="402.75" style="fill:none;stroke:#b2b2b2;stroke-linecap:round;stroke-linejoin:round;stroke-width:0.141732px;stroke-dasharray:1.3050199747085571,1.3050199747085571"/><line x1="415.26" y1="402.75" x2="433.44" y2="417.32" style="fill:none;stroke:#b2b2b2;stroke-linecap:round;stroke-linejoin:round;stroke-width:0.141732px;stroke-dasharray:1.3050199747085571,1.3050199747085571"/><line x1="433.44" y1="417.32" x2="412.55" y2="414.1" style="fill:none;stroke:#b2b2b2;stroke-linecap:round;stroke-linejoin:round;stroke-width:0.141732px;stroke-dasharray:1.3050199747085571,1.3050199747085571"/><line x1="412.55" y1="414.1" x2="407.66" y2="443.23" style="fill:none;stroke:#b2b2b2;stroke-linecap:round;stroke-linejoin:round;stroke-width:0.141732px;stroke-dasharray:1.3050199747085571,1.3050199747085571"/><line x1="407.66" y1="443.23" x2="439.11" y2="448.13" style="fill:none;stroke:#b2b2b2;stroke-linecap:round;stroke-linejoin:round;stroke-width:0.141732px;stroke-dasharray:1.3050199747085571,1.3050199747085571"/><line x1="439.11" y1="448.13" x2="441.65" y2="462.86" style="fill:none;stroke:#b2b2b2;stroke-linecap:round;stroke-linejoin:round;stroke-width:0.141732px;stroke-dasharray:1.3050199747085571,1.3050199747085571"/><line x1="441.65" y1="462.86" x2="430.32" y2="529.59" style="fill:none;stroke:#b2b2b2;stroke-linecap:round;stroke-linejoin:round;stroke-width:0.141732px;stroke-dasharray:1.3050199747085571,1.3050199747085571"/><line x1="452.64" y1="525.62" x2="470.09" y2="420.35" style="fill:none;stroke:#b2b2b2;stroke-linecap:round;stroke-linejoin:round;stroke-width:0.141732px;stroke-dasharray:1.3050199747085571,1.3050199747085571"/><line x1="470.09" y1="420.35" x2="489.2" y2="401.24" style="fill:none;stroke:#b2b2b2;stroke-linecap:round;stroke-linejoin:round;stroke-width:0.141732px;stroke-dasharray:1.3050199747085571,1.3050199747085571"/><line x1="489.2" y1="401.24" x2="533.44" y2="393.62" style="fill:none;stroke:#b2b2b2;stroke-linecap:round;stroke-linejoin:round;stroke-width:0.141732px;stroke-dasharray:1.3050199747085571,1.3050199747085571"/><line x1="533.44" y1="393.62" x2="541.73" y2="393.62" style="fill:none;stroke:#b2b2b2;stroke-linecap:round;stroke-linejoin:round;stroke-width:0.141732px;stroke-dasharray:1.3050199747085571,1.3050199747085571"/><line x1="541.73" y1="393.62" x2="541.73" y2="376.64" style="fill:none;stroke:#b2b2b2;stroke-linecap:round;stroke-linejoin:round;stroke-width:0.141732px;stroke-dasharray:1.3050199747085571,1.3050199747085571"/><line x1="427.98" y1="521.32" x2="455.16" y2="526.06" style="fill:none;stroke:#b2b2b2;stroke-linecap:round;stroke-linejoin:round;stroke-width:0.141732px;stroke-dasharray:1.3050199747085571,1.3050199747085571"/><line x1="455.16" y1="526.06" x2="454.3" y2="531.22" style="fill:none;stroke:#b2b2b2;stroke-linecap:round;stroke-linejoin:round;stroke-width:0.141732px;stroke-dasharray:1.3050199747085571,1.3050199747085571"/><line x1="454.3" y1="531.22" x2="506.69" y2="539.83" style="fill:none;stroke:#b2b2b2;stroke-linecap:round;stroke-linejoin:round;stroke-width:0.141732px;stroke-dasharray:1.3050199747085571,1.3050199747085571"/><path d="M366.94,270.28v-1.87h-0.67V268h1.82v0.41h-0.66v1.87h-0.49Z"/><path d="M368.83,269.88h1v0.41h-1.5V268h1.44v0.41h-1v0.53h0.9v0.4h-0.9v0.53Z"/><path d="M371.94,270.28h-0.52l-0.45-.86h-0.31v0.86h-0.48V268h0.89a0.63,0.63,0,0,1,.75.64,0.66,0.66,0,0,1-.39.65Zm-1-1.24a0.34,0.34,0,0,0,.41-0.34c0-.22-0.14-0.3-0.39-0.3h-0.27V269h0.25Z"/><path d="M374,270.28h-0.52l-0.45-.86h-0.31v0.86H372.2V268h0.89a0.63,0.63,0,0,1,.75.64,0.66,0.66,0,0,1-.39.65Zm-1-1.24a0.34,0.34,0,0,0,.41-0.34c0-.22-0.14-0.3-0.39-0.3h-0.27V269h0.25Z"/><path d="M375.38,268l0.8,2.28h-0.53l-0.19-.55H374.7l-0.18.55H374l0.75-2.28h0.6Zm-0.3.46h0l-0.28.88h0.58Z"/><path d="M376.79,268.58c0,0.47,1.18.18,1.18,1a0.89,0.89,0,0,1-1.75,0l0.44-.07a0.41,0.41,0,0,0,.45.41,0.31,0.31,0,0,0,.38-0.28c0-.47-1.19-0.14-1.19-1a0.73,0.73,0,0,1,.83-0.69,0.68,0.68,0,0,1,.81.67l-0.44.05a0.32,0.32,0,0,0-.37-0.34C376.9,268.34,376.79,268.44,376.79,268.58Z"/><path d="M378.67,268.58c0,0.47,1.18.18,1.18,1a0.89,0.89,0,0,1-1.75,0l0.44-.07a0.41,0.41,0,0,0,.45.41,0.31,0.31,0,0,0,.38-0.28c0-.47-1.19-0.14-1.19-1A0.73,0.73,0,0,1,379,268a0.68,0.68,0,0,1,.81.67l-0.44.05a0.32,0.32,0,0,0-.37-0.34C378.77,268.34,378.67,268.44,378.67,268.58Z"/><path d="M380.65,269.88h1v0.41h-1.5V268h1.44v0.41h-1v0.53h0.9v0.4h-0.9v0.53Z"/><path d="M395.15,290.11v0.48h-2.28v-1.43h0.41v0.95h0.58v-0.87h0.4v0.87h0.89Z"/><path d="M394.74,288.37v-1h0.41v1.5h-2.28v-1.44h0.41v1h0.53v-0.9h0.4v0.9h0.53Z"/><path d="M395.15,286.53l-2.28.74v-0.54l1.8-.52v0l-1.8-.52v-0.5l2.28,0.71v0.65Z"/><path d="M392.88,284l2.28-.8v0.53l-0.55.19v0.76l0.55,0.18v0.5l-2.28-.75V284Zm0.46,0.3h0l0.88,0.28V284Z"/><path d="M394.74,282.42v-1h0.41v1.46h-2.28v-0.48h1.87Z"/><path d="M392.88,280l2.28-.8v0.53l-0.55.19v0.76l0.55,0.18v0.5l-2.28-.75V280Zm0.46,0.3h0l0.88,0.28V280Z"/><path d="M395.15,278.34h-2.28v-0.9a0.55,0.55,0,0,1,.56-0.69,0.53,0.53,0,0,1,.53.43h0a0.52,0.52,0,0,1,.56-0.53,0.69,0.69,0,0,1,.63.86v0.83Zm-1.34-.66c0-.23,0-0.45-0.3-0.45s-0.26.16-.26,0.38v0.25h0.57v-0.18Zm1-.07c0-.26,0-0.44-0.3-0.44s-0.3.18-.3,0.39v0.3h0.59v-0.25Z"/><path d="M392.88,275.21l2.28-.8v0.53l-0.55.19v0.76l0.55,0.18v0.5l-2.28-.75v-0.6Zm0.46,0.3h0l0.88,0.28v-0.58Z"/><path d="M395.15,272.38v0.52l-0.86.45v0.31h0.86v0.48h-2.28v-0.89a0.63,0.63,0,0,1,.64-0.75,0.66,0.66,0,0,1,.65.39Zm-1.24,1a0.34,0.34,0,0,0-.34-0.41c-0.22,0-.3.14-0.3,0.39v0.27h0.64v-0.25Z"/><path d="M343.82,364.36a0.71,0.71,0,0,1-.65.32,1,1,0,0,1-1-1.14,1.06,1.06,0,0,1,1.1-1.22,0.79,0.79,0,0,1,.9.79l-0.45,0a0.42,0.42,0,0,0-.46-0.44,0.62,0.62,0,0,0-.59.77c0,0.54.18,0.79,0.58,0.79a0.41,0.41,0,0,0,.46-0.4v-0.08h-0.41v-0.35h0.89v1.18h-0.35Z"/><path d="M345.13,364.23h1v0.41h-1.5v-2.28h1.44v0.41h-1v0.53H346v0.4h-0.9v0.53Z"/><path d="M348.89,364.64h-0.45v-1.79h0l-0.54,1.79h-0.44l-0.52-1.79h0v1.79h-0.44v-2.28h0.72l0.48,1.66h0l0.48-1.66h0.72v2.28Z"/><path d="M349.84,364.23h1v0.41h-1.5v-2.28h1.44v0.41h-1v0.53h0.9v0.4h-0.9v0.53Z"/><path d="M351.67,364.64h-0.48v-2.28h0.48v2.28Z"/><path d="M353.45,364.64L352.58,363v1.61h-0.44v-2.28h0.58l0.86,1.61v-1.61H354v2.28h-0.56Z"/><path d="M356.24,364.64h-0.52l-0.45-.86H355v0.86h-0.48v-2.28h0.89a0.63,0.63,0,0,1,.75.64,0.66,0.66,0,0,1-.39.65Zm-1-1.25a0.34,0.34,0,0,0,.41-0.34c0-.22-0.14-0.3-0.39-0.3H355v0.64h0.25Z"/><path d="M357.65,362.36l0.8,2.28h-0.53l-0.19-.55H357l-0.18.55h-0.5l0.75-2.28h0.6Zm-0.3.46h0l-0.28.88h0.58Z"/><path d="M360,363.75v-1.39h0.48v1.46a0.79,0.79,0,0,1-.92.86,0.76,0.76,0,0,1-.9-0.87v-1.44h0.49v1.38c0,0.36.09,0.53,0.43,0.53S360,364.12,360,363.75Z"/><path d="M363.3,364.64h-0.45v-1.79h0l-0.54,1.79h-0.44l-0.52-1.79h0v1.79h-0.44v-2.28h0.72l0.48,1.66h0l0.48-1.66h0.72v2.28Z"/><path d="M358,492.37h-0.48V490.1H359v0.41H358v0.58h0.87v0.4H358v0.89Z"/><path d="M360.26,490.1l0.8,2.28h-0.53l-0.19-.55h-0.76l-0.18.55h-0.5l0.75-2.28h0.6Zm-0.3.46h0l-0.28.88h0.58Z"/><path d="M363.17,492.37h-0.49v-0.93h-0.87v0.93h-0.48V490.1h0.48V491h0.87V490.1h0.49v2.28Z"/><path d="M365.4,492.37h-0.52l-0.45-.86h-0.31v0.86h-0.48V490.1h0.89a0.63,0.63,0,0,1,.75.64,0.66,0.66,0,0,1-.39.65Zm-1-1.25a0.34,0.34,0,0,0,.41-0.34c0-.22-0.14-0.3-0.39-0.3h-0.27v0.64h0.25Z"/><path d="M367.41,492.37h-0.52l-0.45-.86h-0.31v0.86h-0.48V490.1h0.89a0.63,0.63,0,0,1,.75.64,0.66,0.66,0,0,1-.39.65Zm-1-1.25a0.34,0.34,0,0,0,.41-0.34c0-.22-0.14-0.3-0.39-0.3h-0.27v0.64h0.25Z"/><path d="M368.83,490.1l0.8,2.28H369.1l-0.19-.55h-0.76l-0.18.55h-0.5l0.75-2.28h0.6Zm-0.3.46h0l-0.28.88h0.58Z"/><path d="M369.89,492.37V490.1h0.8a1,1,0,0,1,1.13,1.1,1.06,1.06,0,0,1-1.18,1.17h-0.75Zm0.72-.39a0.64,0.64,0,0,0,.71-0.76,0.6,0.6,0,0,0-.67-0.74h-0.27V492h0.24Z"/><path d="M372.54,490.67c0,0.47,1.18.18,1.18,1a0.89,0.89,0,0,1-1.75,0l0.44-.07a0.41,0.41,0,0,0,.45.41,0.31,0.31,0,0,0,.38-0.28c0-.47-1.19-0.14-1.19-1a0.73,0.73,0,0,1,.83-0.68,0.68,0.68,0,0,1,.81.67l-0.44.05a0.32,0.32,0,0,0-.37-0.34C372.65,490.43,372.54,490.53,372.54,490.67Z"/><path d="M374.46,492.37V490.5h-0.67V490.1h1.82v0.41H375v1.87h-0.49Z"/><path d="M376.77,490.1l0.8,2.28H377l-0.19-.55h-0.76l-0.18.55h-0.5l0.75-2.28h0.6Zm-0.67-.16a0.26,0.26,0,1,1,.28-0.26A0.25,0.25,0,0,1,376.09,489.93Zm0.37,0.62h0l-0.28.88h0.58Zm0.36-.62a0.26,0.26,0,1,1,.28-0.26A0.25,0.25,0,0,1,376.83,489.93Z"/><path d="M379.15,492.37l-0.88-1.61v1.61h-0.44V490.1h0.58l0.86,1.61V490.1h0.44v2.28h-0.56Z"/><path d="M380.18,492.37V490.1H381a1,1,0,0,1,1.13,1.1,1.06,1.06,0,0,1-1.18,1.17h-0.75Zm0.72-.39a0.64,0.64,0,0,0,.71-0.76,0.6,0.6,0,0,0-.67-0.74h-0.27V492h0.24Z"/><path d="M382.93,492h1v0.41h-1.5V490.1h1.44v0.41h-1V491h0.9v0.4h-0.9V492Z"/><path d="M386,492.37h-0.52l-0.45-.86h-0.31v0.86h-0.48V490.1h0.89a0.63,0.63,0,0,1,.75.64,0.66,0.66,0,0,1-.39.65Zm-1-1.25a0.34,0.34,0,0,0,.41-0.34c0-.22-0.14-0.3-0.39-0.3h-0.27v0.64H385Z"/><path d="M250.15,505.33l-0.48-.08,0.16-.92-0.86-.15-0.16.92-0.48-.08,0.39-2.24,0.48,0.08-0.16.91,0.86,0.15,0.16-.91,0.48,0.08Z"/><path d="M252.13,503.36l0.41,2.38-0.52-.09-0.09-.58-0.75-.13-0.27.52-0.49-.08,1.12-2.12Zm-0.37.4h0l-0.42.82,0.57,0.1Z"/><path d="M254.17,505.12l0.23-1.37,0.48,0.08-0.25,1.43a0.79,0.79,0,0,1-1,.69,0.76,0.76,0,0,1-.74-1l0.24-1.42,0.48,0.08L253.35,505c-0.06.35,0,.54,0.33,0.6S254.11,505.48,254.17,505.12Z"/><path d="M255.41,506.23l-0.47-.08,0.39-2.24,0.85,0.15a0.66,0.66,0,0,1,.63.83,0.76,0.76,0,0,1-1,.67l-0.24,0Zm0.38-1.08a0.37,0.37,0,0,0,.51-0.32,0.33,0.33,0,0,0-.34-0.42l-0.23,0-0.13.75Z"/><path d="M257.31,506.56l0.32-1.84L257,504.6l0.07-.4,1.79,0.31-0.07.4-0.65-.11-0.32,1.84Z"/><path d="M259.25,506.48l1,0.17-0.07.4-1.48-.25,0.39-2.24,1.42,0.24-0.07.4-0.95-.16-0.09.53,0.89,0.15-0.07.39-0.89-.15Z"/><path d="M261,507.19l-0.48-.08,0.39-2.24,0.48,0.08Z"/><path d="M262.74,507.49l-0.59-1.73-0.27,1.58-0.44-.08,0.39-2.24,0.57,0.1,0.58,1.74,0.27-1.59,0.43,0.08-0.39,2.24Z"/><path d="M265.28,507.64a0.71,0.71,0,0,1-.7.2,1,1,0,0,1-.76-1.29,1.06,1.06,0,0,1,1.29-1,0.79,0.79,0,0,1,.75.94l-0.45,0a0.42,0.42,0,0,0-.38-0.51,0.63,0.63,0,0,0-.71.66c-0.09.53,0,.81,0.43,0.88a0.41,0.41,0,0,0,.53-0.31v-0.08l-0.41-.07,0.06-.35,0.88,0.15-0.2,1.17-0.35-.06v-0.28Z"/><path d="M267.56,506l0.41,2.38-0.52-.09-0.09-.58-0.75-.13-0.27.52-0.49-.08,1.12-2.12Zm-0.37.4h0l-0.42.82,0.57,0.1Z"/><path d="M269.53,508.66l-0.59-1.73-0.27,1.58-0.44-.08,0.39-2.24,0.57,0.1,0.58,1.74,0.27-1.59,0.43,0.07-0.39,2.24Z"/><path d="M272.07,508.81a0.71,0.71,0,0,1-.7.2,1,1,0,0,1-.76-1.29,1.06,1.06,0,0,1,1.29-1,0.79,0.79,0,0,1,.75.94l-0.45,0a0.42,0.42,0,0,0-.37-0.51,0.63,0.63,0,0,0-.71.66c-0.09.53,0,.81,0.43,0.88a0.41,0.41,0,0,0,.53-0.31v-0.08l-0.41-.07,0.06-.35,0.88,0.15-0.2,1.17-0.35-.06v-0.28Z"/><path d="M501.66,270.94h-0.52l-0.45-.86h-0.31v0.86H499.9v-2.28h0.89a0.63,0.63,0,0,1,.75.64,0.66,0.66,0,0,1-.39.65Zm-1-1.24a0.34,0.34,0,0,0,.41-0.34c0-.22-0.14-0.3-0.39-0.3h-0.27v0.64h0.25Z"/><path d="M502.4,270.53h1v0.41h-1.5v-2.28h1.44v0.41h-1v0.53h0.9V270h-0.9v0.53Z"/><path d="M504.11,269.24c0,0.47,1.18.18,1.18,1a0.89,0.89,0,0,1-1.75,0l0.44-.07a0.41,0.41,0,0,0,.45.41,0.31,0.31,0,0,0,.38-0.28c0-.47-1.19-0.14-1.19-1a0.73,0.73,0,0,1,.83-0.69,0.68,0.68,0,0,1,.81.67l-0.44.05a0.32,0.32,0,0,0-.37-0.34C504.21,269,504.11,269.09,504.11,269.24Z"/><path d="M506.09,270.94h-0.48v-2.28h0.48v2.28Z"/><path d="M506.56,270.94v-2.28h0.8a1,1,0,0,1,1.13,1.1,1.06,1.06,0,0,1-1.18,1.17h-0.75Zm0.72-.39a0.64,0.64,0,0,0,.71-0.76,0.6,0.6,0,0,0-.67-0.74H507v1.5h0.24Z"/><path d="M509.32,270.53h1v0.41h-1.5v-2.28h1.44v0.41h-1v0.53h0.9V270h-0.9v0.53Z"/><path d="M512,270.94l-0.88-1.61v1.61h-0.44v-2.28h0.58l0.86,1.61v-1.61h0.44v2.28H512Z"/><path d="M512.89,269.83a1.06,1.06,0,0,1,1.1-1.2,0.79,0.79,0,0,1,.9.82l-0.44,0A0.41,0.41,0,0,0,514,269c-0.37,0-.59.24-0.59,0.78s0.2,0.78.56,0.78a0.45,0.45,0,0,0,.49-0.41l0.44,0.08a0.86,0.86,0,0,1-.94.73A1,1,0,0,1,512.89,269.83Z"/><path d="M516.17,270.94h-0.49v-0.85l-0.79-1.42h0.53l0.5,1h0l0.48-1h0.49l-0.74,1.42v0.86Z"/><path d="M517.47,270.23v-0.41h0.85v0.41h-0.85Z"/><path d="M519.65,270.94h-0.48v-2.28H520a0.66,0.66,0,0,1,.76.71,0.76,0.76,0,0,1-.89.83h-0.25v0.74Zm0.19-1.13a0.37,0.37,0,0,0,.45-0.41,0.33,0.33,0,0,0-.41-0.35h-0.23v0.76h0.19Z"/><path d="M522.88,270.94h-0.52l-0.45-.86H521.6v0.86h-0.48v-2.28H522a0.63,0.63,0,0,1,.75.64,0.66,0.66,0,0,1-.39.65Zm-1-1.24a0.34,0.34,0,0,0,.41-0.34c0-.22-0.14-0.3-0.39-0.3H521.6v0.64h0.25Z"/><path d="M523.62,270.94h-0.48v-2.28h0.48v2.28Z"/><path d="M524.58,270.94l-0.74-2.28h0.54l0.52,1.8h0l0.52-1.8h0.5l-0.71,2.28h-0.65Z"/><path d="M527.14,268.66l0.8,2.28h-0.53l-0.19-.55h-0.76l-0.18.55h-0.5l0.75-2.28h0.6Zm-0.3.46h0l-0.28.88h0.58Z"/><path d="M528.4,270.94v-1.87h-0.67v-0.41h1.82v0.41h-0.66v1.87H528.4Z"/><path d="M530.3,270.53h1v0.41h-1.5v-2.28h1.44v0.41h-1v0.53h0.9V270h-0.9v0.53Z"/><path d="M532.62,270.53h1.1v0.41H532v-0.35l1.08-1.52h-1v-0.41h1.61V269Z"/><path d="M533.86,269.81a1.07,1.07,0,0,1,1.11-1.19,1,1,0,0,1,1,1.14,1,1,0,0,1-1.09,1.21A1,1,0,0,1,533.86,269.81Zm1.65,0c0-.52-0.2-0.76-0.55-0.76a0.63,0.63,0,0,0-.6.77c0,0.54.22,0.77,0.58,0.77S535.51,270.36,535.51,269.8Z"/><path d="M537.68,270.94l-0.88-1.61v1.61h-0.44v-2.28h0.58l0.86,1.61v-1.61h0.44v2.28h-0.56Z"/><path d="M539.18,270.53h1v0.41h-1.5v-2.28h1.44v0.41h-1v0.53h0.9V270h-0.9v0.53Z"/><path d="M430.36,537.46l-0.1-1.61h0l-0.63,1.48-0.63-.11-0.1-2.33,0.5,0.08,0,1.78h0l0.7-1.66,0.51,0.09,0.11,1.81h0l0.59-1.69,0.48,0.08L431,537.56Z"/><path d="M433.17,535.63l0.41,2.38-0.52-.09-0.09-.58-0.75-.13-0.27.52-0.49-.08,1.12-2.12Zm-0.37.4h0l-0.42.82,0.57,0.1Z"/><path d="M435.57,538.35l-0.51-.09-0.3-.93-0.31-.05-0.15.85-0.47-.08,0.38-2.24,0.87,0.15a0.63,0.63,0,0,1,.63.76,0.66,0.66,0,0,1-.5.58Zm-0.81-1.4a0.34,0.34,0,0,0,.46-0.27c0-.21-0.08-0.32-0.34-0.36l-0.26,0-0.11.63Z"/><path d="M436.37,538.08l1,0.17-0.07.4-1.48-.25,0.38-2.24,1.42,0.24-0.07.4-0.95-.16-0.09.53,0.89,0.15-0.07.39-0.89-.15Z"/><path d="M438.93,538.93l-0.59-1.73-0.27,1.58-0.44-.08,0.38-2.24,0.57,0.1,0.58,1.74,0.27-1.59,0.43,0.07L439.48,539Z"/><path d="M440.48,538.78l1,0.17-0.07.4-1.48-.25,0.38-2.24,1.42,0.25-0.07.4-0.95-.16-0.09.53,0.89,0.15-0.07.39-0.89-.15Z"/><path d="M442.22,539.5l-0.48-.08,0.38-2.24,0.48,0.08Z"/><path d="M444,539.8l-0.59-1.73-0.27,1.58-0.44-.08,0.38-2.24,0.57,0.1,0.58,1.74,0.27-1.59,0.43,0.07-0.39,2.24Z"/><path d="M446.51,539.95a0.71,0.71,0,0,1-.7.2,1,1,0,0,1-.76-1.28,1.06,1.06,0,0,1,1.29-1,0.79,0.79,0,0,1,.75.94l-0.45,0a0.42,0.42,0,0,0-.38-0.51,0.63,0.63,0,0,0-.71.66c-0.09.53,0,.81,0.43,0.88a0.41,0.41,0,0,0,.53-0.31V539.4l-0.41-.07,0.06-.35,0.88,0.15-0.2,1.17-0.35-.06v-0.29Z"/><path d="M448.8,538.32l0.41,2.38-0.52-.09-0.09-.58-0.75-.13-0.27.52-0.49-.08,1.12-2.12Zm-0.37.4h0l-0.42.82,0.57,0.1Z"/><path d="M450.77,541l-0.59-1.73-0.27,1.58-0.44-.08,0.38-2.24,0.57,0.1,0.58,1.74,0.27-1.59,0.43,0.07-0.39,2.24Z"/><path d="M453.3,541.12a0.71,0.71,0,0,1-.7.2,1,1,0,0,1-.76-1.29,1.06,1.06,0,0,1,1.29-1,0.79,0.79,0,0,1,.75.94l-0.45,0a0.42,0.42,0,0,0-.38-0.51,0.63,0.63,0,0,0-.71.66c-0.09.53,0,.81,0.43,0.88a0.41,0.41,0,0,0,.53-0.31v-0.08l-0.41-.07,0.06-.35,0.88,0.15-0.2,1.17-0.35-.06v-0.29Z"/></svg>