<svg xmlns="http://www.w3.org/2000/svg" width="841.89" height="595.28" viewBox="0 0 841.89 595.28"><title>vandalismusspuren</title><path d="M544.32,265.61H546a5,5,0,0,1,5,5v94.73a5,5,0,0,1-5,5h-1.68a0,0,0,0,1,0,0V265.61A0,0,0,0,1,544.32,265.61Z" style="fill:#e2001a;fill-opacity:0.6000000000000001"/><path d="M501,333.68h1.68a5,5,0,0,1,5,5v70a5,5,0,0,1-5,5H501a0,0,0,0,1,0,0v-80A0,0,0,0,1,501,333.68Z" transform="translate(878 -130.62) rotate(90)" style="fill:#e2001a;fill-opacity:0.6000000000000001"/><path d="M253.13,310.31h1.68a5,5,0,0,1,5,5v50.29a5,5,0,0,1-5,5h-1.68a0,0,0,0,1,0,0V310.31A0,0,0,0,1,253.13,310.31Z" transform="translate(512.94 680.92) rotate(180)" style="fill:#e2001a;fill-opacity:0.6000000000000001"/><circle cx="637.57" cy="399.43" r="5.82" style="fill:#93117e;fill-opacity:0.6000000000000001"/><circle cx="656.38" cy="404.62" r="3.38" style="fill:#93117e;fill-opacity:0.6000000000000001"/><circle cx="539.31" cy="162.69" r="24.33" style="fill:#e2001a;fill-opacity:0.6000000000000001"/><circle cx="566.14" cy="503.09" r="9.81" style="fill:#e2001a;opacity:0.6000000000000001"/><circle cx="566.33" cy="532.03" r="10" style="fill:#93117e;opacity:0.6000000000000001"/><path d="M588.34,507.07v-8.68h3c2.05,0,2.62.94,2.62,2.12a2,2,0,0,1-1.73,2v0a2,2,0,0,1,2.08,2.15c0,1.78-1.33,2.35-3.21,2.35h-2.73Zm2.35-4.88c0.95,0,2.13-.26,2.13-1.52,0-1.08-.62-1.37-1.81-1.37h-1.58v2.89h1.26Zm0.23,4c1.26,0,2.21-.19,2.21-1.5,0-1.15-.86-1.55-2-1.55h-1.73v3h1.49Z"/><path d="M595.32,504c0-2.25,1.32-3.23,2.9-3.23s2.45,1.14,2.45,2.66a6.5,6.5,0,0,1,0,.8h-4.15c0,1.57.74,2.06,1.73,2.06a1.3,1.3,0,0,0,1.45-1.09l1,0.22a2.27,2.27,0,0,1-2.45,1.79C596,507.22,595.32,505.69,595.32,504Zm4.22-.62c0-1.1-.42-1.72-1.39-1.72a1.62,1.62,0,0,0-1.67,1.72h3.06Z"/><path d="M606.49,502.56l-1,.22a1.14,1.14,0,0,0-1.28-1.14c-0.9,0-1.19.4-1.19,0.86,0,0.64.5,0.82,1.37,1,1.13,0.24,2.2.47,2.2,1.85,0,1.17-.91,1.87-2.41,1.87s-2.27-.55-2.46-1.79l1-.26a1.35,1.35,0,0,0,1.54,1.19c0.74,0,1.28-.23,1.28-0.89s-0.5-.8-1.34-1c-1-.2-2.22-0.42-2.22-1.86,0-1.25,1-1.86,2.28-1.86A2,2,0,0,1,606.49,502.56Z"/><path d="M607.69,504c0-2.15,1.1-3.27,3-3.27a2.13,2.13,0,0,1,2.37,2.15l-1,.14a1.29,1.29,0,0,0-1.38-1.38c-0.89,0-1.76.48-1.76,2.23s0.74,2.39,1.73,2.39a1.41,1.41,0,0,0,1.54-1.32l1,0.2a2.32,2.32,0,0,1-2.53,2C608.48,507.22,607.69,505.9,607.69,504Z"/><path d="M619.66,507.07h-1.09v-4a1.08,1.08,0,0,0-1.15-1.32,3.11,3.11,0,0,0-1.8.74v4.59h-1.09V498h1.08v3.59a3.49,3.49,0,0,1,2.17-.83c1.31,0,1.88.72,1.88,2.11v4.19Z"/><path d="M622.6,507.07h-1.09v-6.16h0.94l0.06,0.7a3.37,3.37,0,0,1,2.1-.83,1.47,1.47,0,0,1,1.55.85,3.39,3.39,0,0,1,2.13-.85c1.29,0,1.75.72,1.75,2.1v4.2h-1.09v-4c0-.83-0.17-1.29-1-1.29a3,3,0,0,0-1.66.68c0,0.14,0,.3,0,0.46v4.2h-1.09v-4c0-.83-0.17-1.29-1-1.29a3,3,0,0,0-1.7.73v4.61Z"/><path d="M632.47,499.72a0.71,0.71,0,0,1-.77-0.79,0.7,0.7,0,0,1,.77-0.78,0.71,0.71,0,0,1,.78.78A0.72,0.72,0,0,1,632.47,499.72Zm0.53,7.35h-1.09v-6.16H633v6.16Z"/><path d="M634.51,504c0-2.25,1.32-3.23,2.9-3.23s2.45,1.14,2.45,2.66a6.5,6.5,0,0,1,0,.8h-4.15c0,1.57.74,2.06,1.73,2.06a1.3,1.3,0,0,0,1.45-1.09l1,0.22a2.27,2.27,0,0,1-2.45,1.79C635.17,507.22,634.51,505.69,634.51,504Zm4.22-.62c0-1.1-.42-1.72-1.39-1.72a1.62,1.62,0,0,0-1.67,1.72h3.06Z"/><path d="M644.72,501.92a2.89,2.89,0,0,0-2.18.67v4.49h-1.09v-6.16h0.91l0.08,0.89a2.34,2.34,0,0,1,2.05-1h0.23v1.13Z"/><path d="M645.79,500.91h1.09v4c0,0.85.2,1.32,1.12,1.32a3,3,0,0,0,1.79-.76v-4.58h1.09v6.16h-0.95l-0.07-.71a3.41,3.41,0,0,1-2.18.83c-1.31,0-1.88-.72-1.88-2.1v-4.19Z"/><path d="M657.92,507.07h-1.09v-4a1.08,1.08,0,0,0-1.15-1.32,3.11,3.11,0,0,0-1.8.74v4.59h-1.09v-6.16h1l0.06,0.73a3.61,3.61,0,0,1,2.22-.86c1.32,0,1.89.72,1.89,2.11v4.19Z"/><path d="M663.81,501.34a1.13,1.13,0,0,1,1-.8,1.66,1.66,0,0,1,.54.1v0.88a3.72,3.72,0,0,0-1.18.13,2.07,2.07,0,0,1,.46,1.34,2.26,2.26,0,0,1-2.52,2.21A3.48,3.48,0,0,1,661,505a0.86,0.86,0,0,0-.38.58c0,0.24.13,0.42,0.79,0.47l1.71,0.12c1.27,0.08,2,.4,2,1.61,0,1.51-1.62,2-3.17,2-2.3,0-2.77-.79-2.77-1.52a1.6,1.6,0,0,1,1-1.42h0a0.88,0.88,0,0,1-.67-0.85,1.61,1.61,0,0,1,.82-1.21,1.88,1.88,0,0,1-.91-1.73,2.31,2.31,0,0,1,2.61-2.27A2.45,2.45,0,0,1,663.81,501.34ZM663,507.2l-2-.12a1.14,1.14,0,0,0-.68,1c0,0.52.42,0.86,1.81,0.86s1.91-.32,1.91-1C664,507.5,663.8,507.26,663,507.2Zm-0.9-5.55A1.33,1.33,0,0,0,660.5,503a1.27,1.27,0,0,0,1.54,1.32,1.31,1.31,0,0,0,1.51-1.29A1.27,1.27,0,0,0,662.06,501.65Z"/><path d="M665.83,504c0-2.25,1.32-3.23,2.9-3.23s2.45,1.14,2.45,2.66a6.5,6.5,0,0,1,0,.8H667c0,1.57.74,2.06,1.73,2.06a1.3,1.3,0,0,0,1.45-1.09l1,0.22a2.27,2.27,0,0,1-2.45,1.79C666.49,507.22,665.83,505.69,665.83,504Zm4.22-.62c0-1.1-.42-1.72-1.39-1.72a1.62,1.62,0,0,0-1.67,1.72H670Z"/><path d="M677.9,507.07h-1.09v-4a1.08,1.08,0,0,0-1.15-1.32,3.11,3.11,0,0,0-1.8.74v4.59h-1.09v-6.16h1l0.06,0.73a3.61,3.61,0,0,1,2.22-.86c1.32,0,1.89.72,1.89,2.11v4.19Z"/><path d="M589.45,535.07h-1.1v-8.68h5.07v1h-4v3h3.67v1h-3.67v3.75Z"/><path d="M594.23,532c0-2.25,1.32-3.23,2.9-3.23s2.45,1.14,2.45,2.66a6.5,6.5,0,0,1,0,.8h-4.15c0,1.57.74,2.06,1.73,2.06a1.3,1.3,0,0,0,1.45-1.09l1,0.22a2.27,2.27,0,0,1-2.45,1.79C594.88,535.22,594.23,533.69,594.23,532Zm4.22-.62c0-1.1-.42-1.72-1.39-1.72a1.62,1.62,0,0,0-1.67,1.72h3.06Z"/><path d="M601.14,528.91h1.09v4c0,0.85.2,1.32,1.12,1.32a3,3,0,0,0,1.79-.76v-4.58h1.09v6.16h-0.95l-0.07-.71a3.41,3.41,0,0,1-2.18.83c-1.31,0-1.88-.72-1.88-2.1v-4.19Z"/><path d="M607.75,532c0-2.25,1.32-3.23,2.9-3.23s2.45,1.14,2.45,2.66a6.5,6.5,0,0,1,0,.8H608.9c0,1.57.74,2.06,1.73,2.06a1.3,1.3,0,0,0,1.45-1.09l1,0.22a2.27,2.27,0,0,1-2.45,1.79C608.41,535.22,607.75,533.69,607.75,532Zm4.22-.62c0-1.1-.42-1.72-1.39-1.72a1.62,1.62,0,0,0-1.67,1.72H612Z"/><path d="M618,529.92a2.89,2.89,0,0,0-2.18.67v4.49h-1.09v-6.16h0.91l0.08,0.89a2.34,2.34,0,0,1,2.05-1H618v1.13Z"/><path d="M617.81,536.18L621.18,526h1l-3.36,10.16h-1Z"/><path d="M624,534.11h4.81v1h-6.15v-0.82l4.64-6.91h-4.51v-1h5.83v0.84Z"/><path d="M630.27,528.91h1.09v4c0,0.85.2,1.32,1.12,1.32a3,3,0,0,0,1.79-.76v-4.58h1.09v6.16h-0.95l-0.07-.71a3.41,3.41,0,0,1-2.18.83c-1.31,0-1.88-.72-1.88-2.1v-4.19Zm1.32-1.15a0.74,0.74,0,1,1,0-1.48A0.74,0.74,0,1,1,631.59,527.76Zm2.51,0a0.74,0.74,0,1,1,.76-0.74A0.7,0.7,0,0,1,634.1,527.76Z"/><path d="M642.4,535.07h-1.09v-4a1.08,1.08,0,0,0-1.15-1.32,3.11,3.11,0,0,0-1.8.74v4.59h-1.09v-6.16h1l0.06,0.73a3.61,3.61,0,0,1,2.22-.86c1.32,0,1.89.72,1.89,2.11v4.19Z"/><path d="M649.28,535.07h-0.91l-0.08-.66h0a2.88,2.88,0,0,1-2,.82c-1.4,0-2.35-.89-2.35-3.13,0-2.43,1.24-3.31,2.6-3.31a2.72,2.72,0,0,1,1.73.58V526h1.07v9.05Zm-1.08-4.82a2.71,2.71,0,0,0-1.57-.54c-1.19,0-1.62.95-1.62,2.37s0.47,2.22,1.55,2.22a2.49,2.49,0,0,0,1.64-.75v-3.3Z"/><path d="M650.79,532c0-2.25,1.32-3.23,2.9-3.23s2.45,1.14,2.45,2.66a6.5,6.5,0,0,1,0,.8h-4.15c0,1.57.74,2.06,1.73,2.06a1.3,1.3,0,0,0,1.45-1.09l1,0.22a2.27,2.27,0,0,1-2.45,1.79C651.45,535.22,650.79,533.69,650.79,532Zm4.22-.62c0-1.1-.42-1.72-1.39-1.72a1.62,1.62,0,0,0-1.67,1.72H655Z"/><path d="M658.82,535.07h-1.09V526h1.09v9.05Z"/><path d="M665.85,535.07h-1.09v-4a1.08,1.08,0,0,0-1.15-1.32,3.11,3.11,0,0,0-1.8.74v4.59h-1.09v-6.16h1l0.06,0.73a3.61,3.61,0,0,1,2.22-.86c1.32,0,1.9.72,1.9,2.11v4.19Z"/></svg>